<svg version="1.1" xmlns="http://www.w3.org/2000/svg" xmlns:xlink="http://www.w3.org/1999/xlink" width="548" height="900"><defs/><g><g><path fill="none" stroke="#000000" paint-order="fill stroke markers" d=" M 10 10 L 127.275390625 10 L 127.275390625 890 L 10 890 L 10 10 Z Z" stroke-miterlimit="10" stroke-dasharray=""/></g><g><path fill="none" stroke="#000000" paint-order="fill stroke markers" d=" M 10 33 L 127.275390625 33" stroke-miterlimit="10" stroke-dasharray=""/></g><g><g><path fill="none" stroke="none"/><text fill="#000000" stroke="none" font-family="Roboto" font-size="13px" font-style="normal" font-weight="normal" text-decoration="undefined" x="170.6376953125" y="61" text-anchor="middle" dominant-baseline="text-before-edge" transform="matrix(1 0 0 1 -102 -46)">customer</text></g></g><g><path fill="none" stroke="#000000" paint-order="fill stroke markers" d=" M 138 10 L 378 10 L 378 890 L 138 890 L 138 10 Z Z" stroke-miterlimit="10" stroke-dasharray=""/></g><g><path fill="none" stroke="#000000" paint-order="fill stroke markers" d=" M 138 33 L 378 33" stroke-miterlimit="10" stroke-dasharray=""/></g><g><g><path fill="none" stroke="none"/><text fill="#000000" stroke="none" font-family="Roboto" font-size="13px" font-style="normal" font-weight="normal" text-decoration="undefined" x="360" y="61" text-anchor="middle" dominant-baseline="text-before-edge" transform="matrix(1 0 0 1 -102 -46)">medical center</text></g></g><g><path fill="none" stroke="#000000" paint-order="fill stroke markers" d=" M 386 10 L 538 10 L 538 890 L 386 890 L 386 10 Z Z" stroke-miterlimit="10" stroke-dasharray=""/></g><g><path fill="none" stroke="#000000" paint-order="fill stroke markers" d=" M 386 33 L 538 33" stroke-miterlimit="10" stroke-dasharray=""/></g><g><g><path fill="none" stroke="none"/><text fill="#000000" stroke="none" font-family="Roboto" font-size="13px" font-style="normal" font-weight="normal" text-decoration="undefined" x="564" y="61" text-anchor="middle" dominant-baseline="text-before-edge" transform="matrix(1 0 0 1 -102 -46)">backend</text></g></g><g><path fill="#C0C0C0" stroke="none" paint-order="stroke fill markers" d=" M 57 81 C 57 72.1634432 64.16344319999999 65 73 65 C 81.83655680000001 65 89 72.1634432 89 81 C 89 89.83655680000001 81.83655680000001 97 73 97 C 64.16344319999999 97 57 89.83655680000001 57 81 Z" fill-opacity="0.2"/></g><g><path fill="#ffffff" stroke="none" paint-order="stroke fill markers" d=" M 50 74 C 50 65.1634432 57.16344319999999 58 66 58 C 74.83655680000001 58 82 65.1634432 82 74 C 82 82.83655680000001 74.83655680000001 90 66 90 C 57.16344319999999 90 50 82.83655680000001 50 74 Z"/></g><g><path fill="none" stroke="#000000" paint-order="fill stroke markers" d=" M 50 74 C 50 65.1634432 57.16344319999999 58 66 58 C 74.83655680000001 58 82 65.1634432 82 74 C 82 82.83655680000001 74.83655680000001 90 66 90 C 57.16344319999999 90 50 82.83655680000001 50 74 Z" stroke-miterlimit="10" stroke-dasharray=""/></g><g><rect fill="#ffffff" stroke="none" x="119.025390625" y="86.5" width="103.94921875" height="13" transform="matrix(1 0 0 1 -102 -46)"/></g><g><g><path fill="none" stroke="none"/><text fill="#000000" stroke="none" font-family="Roboto" font-size="13px" font-style="normal" font-weight="normal" text-decoration="undefined" x="171" y="93" text-anchor="middle" dominant-baseline="central" transform="matrix(1 0 0 1 -102 -46)">Start</text></g></g><g><path fill="#C0C0C0" stroke="none" paint-order="stroke fill markers" d=" M 43 185 L 104.43017578125 185 Q 114.43017578125 185 114.43017578125 195 L 114.43017578125 237 Q 114.43017578125 247 104.43017578125 247 L 43 247 Q 33 247 33 237 L 33 195 Q 33 185 43 185 Z" fill-opacity="0.2"/></g><g><path fill="#ffffff" stroke="none" paint-order="stroke fill markers" d=" M 36 178 L 97.43017578125 178 Q 107.43017578125 178 107.43017578125 188 L 107.43017578125 230 Q 107.43017578125 240 97.43017578125 240 L 36 240 Q 26 240 26 230 L 26 188 Q 26 178 36 178 Z"/></g><g><path fill="none" stroke="#000000" paint-order="fill stroke markers" d=" M 36 178 L 97.43017578125 178 Q 107.43017578125 178 107.43017578125 188 L 107.43017578125 230 Q 107.43017578125 240 97.43017578125 240 L 36 240 Q 26 240 26 230 L 26 188 Q 26 178 36 178 Z" stroke-miterlimit="10" stroke-dasharray=""/></g><g><g><path fill="none" stroke="none"/><text fill="#000000" stroke="none" font-family="Roboto" font-size="13px" font-style="normal" font-weight="normal" text-decoration="undefined" x="168.715087890625" y="235.5" text-anchor="middle" dominant-baseline="central" transform="matrix(1 0 0 1 -102 -46)">call medical</text><text fill="#000000" stroke="none" font-family="Roboto" font-size="13px" font-style="normal" font-weight="normal" text-decoration="undefined" x="168.715087890625" y="248.5" text-anchor="middle" dominant-baseline="central" transform="matrix(1 0 0 1 -102 -46)">center to get</text><text fill="#000000" stroke="none" font-family="Roboto" font-size="13px" font-style="normal" font-weight="normal" text-decoration="undefined" x="168.715087890625" y="261.5" text-anchor="middle" dominant-baseline="central" transform="matrix(1 0 0 1 -102 -46)">ambulance</text><text fill="#000000" stroke="none" font-family="Roboto" font-size="13px" font-style="normal" font-weight="normal" text-decoration="undefined" x="168.715087890625" y="274.5" text-anchor="middle" dominant-baseline="central" transform="matrix(1 0 0 1 -102 -46)">service</text></g></g><g><path fill="none" stroke="#000000" paint-order="fill stroke markers" d=" M 66 90 L 66 178" stroke-miterlimit="10" stroke-dasharray=""/></g><g><path fill="#000000" stroke="none" paint-order="stroke fill markers" d=" M 61.790482243984 167.83732514237585 L 66 178 L 70.209517756016 167.83732514237585"/></g><g><path fill="none" stroke="#000000" paint-order="fill stroke markers" d=" M 61.790482243984 167.83732514237585 L 66 178 L 70.209517756016 167.83732514237585 L 61.790482243984 167.83732514237585" stroke-miterlimit="10" stroke-dasharray=""/></g><g><path fill="#C0C0C0" stroke="none" paint-order="stroke fill markers" d=" M 201 129 C 201 120.16344319999999 208.16344320000002 113 217 113 C 225.83655679999998 113 233 120.16344319999999 233 129 C 233 137.8365568 225.83655679999998 145 217 145 C 208.16344320000002 145 201 137.8365568 201 129 Z" fill-opacity="0.2"/></g><g><path fill="#ffffff" stroke="none" paint-order="stroke fill markers" d=" M 194 122 C 194 113.16344319999999 201.16344320000002 106 210 106 C 218.83655679999998 106 226 113.16344319999999 226 122 C 226 130.8365568 218.83655679999998 138 210 138 C 201.16344320000002 138 194 130.8365568 194 122 Z"/></g><g><path fill="none" stroke="#000000" paint-order="fill stroke markers" d=" M 194 122 C 194 113.16344319999999 201.16344320000002 106 210 106 C 218.83655679999998 106 226 113.16344319999999 226 122 C 226 130.8365568 218.83655679999998 138 210 138 C 201.16344320000002 138 194 130.8365568 194 122 Z" stroke-miterlimit="10" stroke-dasharray=""/></g><g><rect fill="#ffffff" stroke="none" x="279.287353515625" y="111.5" width="65.42529296875" height="39" transform="matrix(1 0 0 1 -102 -46)"/></g><g><g><path fill="none" stroke="none"/><text fill="#000000" stroke="none" font-family="Roboto" font-size="13px" font-style="normal" font-weight="normal" text-decoration="undefined" x="312" y="118" text-anchor="middle" dominant-baseline="central" transform="matrix(1 0 0 1 -102 -46)">Start</text><text fill="#000000" stroke="none" font-family="Roboto" font-size="13px" font-style="normal" font-weight="normal" text-decoration="undefined" x="312" y="131" text-anchor="middle" dominant-baseline="central" transform="matrix(1 0 0 1 -102 -46)">Ambulance</text><text fill="#000000" stroke="none" font-family="Roboto" font-size="13px" font-style="normal" font-weight="normal" text-decoration="undefined" x="312" y="144" text-anchor="middle" dominant-baseline="central" transform="matrix(1 0 0 1 -102 -46)">Service</text></g></g><g><path fill="#C0C0C0" stroke="none" paint-order="stroke fill markers" d=" M 187 185 L 248.43017578125 185 Q 258.43017578125 185 258.43017578125 195 L 258.43017578125 224 Q 258.43017578125 234 248.43017578125 234 L 187 234 Q 177 234 177 224 L 177 195 Q 177 185 187 185 Z" fill-opacity="0.2"/></g><g><path fill="#ffffff" stroke="none" paint-order="stroke fill markers" d=" M 180 178 L 241.43017578125 178 Q 251.43017578125 178 251.43017578125 188 L 251.43017578125 217 Q 251.43017578125 227 241.43017578125 227 L 180 227 Q 170 227 170 217 L 170 188 Q 170 178 180 178 Z"/></g><g><path fill="none" stroke="#000000" paint-order="fill stroke markers" d=" M 180 178 L 241.43017578125 178 Q 251.43017578125 178 251.43017578125 188 L 251.43017578125 217 Q 251.43017578125 227 241.43017578125 227 L 180 227 Q 170 227 170 217 L 170 188 Q 170 178 180 178 Z" stroke-miterlimit="10" stroke-dasharray=""/></g><g><g><path fill="none" stroke="none"/><text fill="#000000" stroke="none" font-family="Roboto" font-size="13px" font-style="normal" font-weight="normal" text-decoration="undefined" x="312.715087890625" y="235.5" text-anchor="middle" dominant-baseline="central" transform="matrix(1 0 0 1 -102 -46)">medical</text><text fill="#000000" stroke="none" font-family="Roboto" font-size="13px" font-style="normal" font-weight="normal" text-decoration="undefined" x="312.715087890625" y="248.5" text-anchor="middle" dominant-baseline="central" transform="matrix(1 0 0 1 -102 -46)">center as call</text><text fill="#000000" stroke="none" font-family="Roboto" font-size="13px" font-style="normal" font-weight="normal" text-decoration="undefined" x="312.715087890625" y="261.5" text-anchor="middle" dominant-baseline="central" transform="matrix(1 0 0 1 -102 -46)">center</text></g></g><g><path fill="none" stroke="#000000" paint-order="fill stroke markers" d=" M 107 207 L 170 207" stroke-miterlimit="10" stroke-dasharray="6,4"/></g><g><path fill="#FFFFFF" stroke="none" paint-order="stroke fill markers" d=" M 159.83732514237585 211.209517756016 L 170 207 L 159.83732514237585 202.790482243984"/></g><g><path fill="none" stroke="#000000" paint-order="fill stroke markers" d=" M 159.83732514237585 211.209517756016 L 170 207 L 159.83732514237585 202.790482243984 L 159.83732514237585 211.209517756016" stroke-miterlimit="10" stroke-dasharray=""/></g><g><path fill="#FFFFFF" stroke="none" paint-order="stroke fill markers" d=" M 107 207 C 107 205.3431456 108.34314560000001 204 110 204 C 111.65685439999999 204 113 205.3431456 113 207 C 113 208.6568544 111.65685439999999 210 110 210 C 108.34314560000001 210 107 208.6568544 107 207 Z"/></g><g><path fill="none" stroke="#000000" paint-order="fill stroke markers" d=" M 107 207 C 107 205.3431456 108.34314560000001 204 110 204 C 111.65685439999999 204 113 205.3431456 113 207 C 113 208.6568544 111.65685439999999 210 110 210 C 108.34314560000001 210 107 208.6568544 107 207 Z" stroke-miterlimit="10" stroke-dasharray=""/></g><g><path fill="none" stroke="#000000" paint-order="fill stroke markers" d=" M 210 138 L 210 178" stroke-miterlimit="10" stroke-dasharray=""/></g><g><path fill="#000000" stroke="none" paint-order="stroke fill markers" d=" M 205.790482243984 167.83732514237585 L 210 178 L 214.209517756016 167.83732514237585"/></g><g><path fill="none" stroke="#000000" paint-order="fill stroke markers" d=" M 205.790482243984 167.83732514237585 L 210 178 L 214.209517756016 167.83732514237585 L 205.790482243984 167.83732514237585" stroke-miterlimit="10" stroke-dasharray=""/></g><g><path fill="#C0C0C0" stroke="none" paint-order="stroke fill markers" d=" M 43 281 L 104.43017578125 281 Q 114.43017578125 281 114.43017578125 291 L 114.43017578125 320 Q 114.43017578125 330 104.43017578125 330 L 43 330 Q 33 330 33 320 L 33 291 Q 33 281 43 281 Z" fill-opacity="0.2"/></g><g><path fill="#ffffff" stroke="none" paint-order="stroke fill markers" d=" M 36 274 L 97.43017578125 274 Q 107.43017578125 274 107.43017578125 284 L 107.43017578125 313 Q 107.43017578125 323 97.43017578125 323 L 36 323 Q 26 323 26 313 L 26 284 Q 26 274 36 274 Z"/></g><g><path fill="none" stroke="#000000" paint-order="fill stroke markers" d=" M 36 274 L 97.43017578125 274 Q 107.43017578125 274 107.43017578125 284 L 107.43017578125 313 Q 107.43017578125 323 97.43017578125 323 L 36 323 Q 26 323 26 313 L 26 284 Q 26 274 36 274 Z" stroke-miterlimit="10" stroke-dasharray=""/></g><g><g><path fill="none" stroke="none"/><text fill="#000000" stroke="none" font-family="Roboto" font-size="13px" font-style="normal" font-weight="normal" text-decoration="undefined" x="168.715087890625" y="331.5" text-anchor="middle" dominant-baseline="central" transform="matrix(1 0 0 1 -102 -46)">get</text><text fill="#000000" stroke="none" font-family="Roboto" font-size="13px" font-style="normal" font-weight="normal" text-decoration="undefined" x="168.715087890625" y="344.5" text-anchor="middle" dominant-baseline="central" transform="matrix(1 0 0 1 -102 -46)">ambulance</text><text fill="#000000" stroke="none" font-family="Roboto" font-size="13px" font-style="normal" font-weight="normal" text-decoration="undefined" x="168.715087890625" y="357.5" text-anchor="middle" dominant-baseline="central" transform="matrix(1 0 0 1 -102 -46)">service</text></g></g><g><path fill="none" stroke="#000000" paint-order="fill stroke markers" d=" M 66 240 L 66 274" stroke-miterlimit="10" stroke-dasharray=""/></g><g><path fill="#000000" stroke="none" paint-order="stroke fill markers" d=" M 61.790482243984 263.83732514237585 L 66 274 L 70.209517756016 263.83732514237585"/></g><g><path fill="none" stroke="#000000" paint-order="fill stroke markers" d=" M 61.790482243984 263.83732514237585 L 66 274 L 70.209517756016 263.83732514237585 L 61.790482243984 263.83732514237585" stroke-miterlimit="10" stroke-dasharray=""/></g><g><path fill="#C0C0C0" stroke="none" paint-order="stroke fill markers" d=" M 187 273 L 248.43017578125 273 Q 258.43017578125 273 258.43017578125 283 L 258.43017578125 325 Q 258.43017578125 335 248.43017578125 335 L 187 335 Q 177 335 177 325 L 177 283 Q 177 273 187 273 Z" fill-opacity="0.2"/></g><g><path fill="#ffffff" stroke="none" paint-order="stroke fill markers" d=" M 180 266 L 241.43017578125 266 Q 251.43017578125 266 251.43017578125 276 L 251.43017578125 318 Q 251.43017578125 328 241.43017578125 328 L 180 328 Q 170 328 170 318 L 170 276 Q 170 266 180 266 Z"/></g><g><path fill="none" stroke="#000000" paint-order="fill stroke markers" d=" M 180 266 L 241.43017578125 266 Q 251.43017578125 266 251.43017578125 276 L 251.43017578125 318 Q 251.43017578125 328 241.43017578125 328 L 180 328 Q 170 328 170 318 L 170 276 Q 170 266 180 266 Z" stroke-miterlimit="10" stroke-dasharray=""/></g><g><g><path fill="none" stroke="none"/><text fill="#000000" stroke="none" font-family="Roboto" font-size="13px" font-style="normal" font-weight="normal" text-decoration="undefined" x="312.715087890625" y="323.5" text-anchor="middle" dominant-baseline="central" transform="matrix(1 0 0 1 -102 -46)">medical</text><text fill="#000000" stroke="none" font-family="Roboto" font-size="13px" font-style="normal" font-weight="normal" text-decoration="undefined" x="312.715087890625" y="336.5" text-anchor="middle" dominant-baseline="central" transform="matrix(1 0 0 1 -102 -46)">center as</text><text fill="#000000" stroke="none" font-family="Roboto" font-size="13px" font-style="normal" font-weight="normal" text-decoration="undefined" x="312.715087890625" y="349.5" text-anchor="middle" dominant-baseline="central" transform="matrix(1 0 0 1 -102 -46)">ambulance</text><text fill="#000000" stroke="none" font-family="Roboto" font-size="13px" font-style="normal" font-weight="normal" text-decoration="undefined" x="312.715087890625" y="362.5" text-anchor="middle" dominant-baseline="central" transform="matrix(1 0 0 1 -102 -46)">operator</text></g></g><g><path fill="none" stroke="#000000" paint-order="fill stroke markers" d=" M 210 227 L 210 266" stroke-miterlimit="10" stroke-dasharray=""/></g><g><path fill="#000000" stroke="none" paint-order="stroke fill markers" d=" M 205.790482243984 255.83732514237585 L 210 266 L 214.209517756016 255.83732514237585"/></g><g><path fill="none" stroke="#000000" paint-order="fill stroke markers" d=" M 205.790482243984 255.83732514237585 L 210 266 L 214.209517756016 255.83732514237585 L 205.790482243984 255.83732514237585" stroke-miterlimit="10" stroke-dasharray=""/></g><g><path fill="none" stroke="#000000" paint-order="fill stroke markers" d=" M 170 303 L 107 303" stroke-miterlimit="10" stroke-dasharray="6,4"/></g><g><path fill="#FFFFFF" stroke="none" paint-order="stroke fill markers" d=" M 117.16267485762415 298.790482243984 L 107 303 L 117.16267485762415 307.209517756016"/></g><g><path fill="none" stroke="#000000" paint-order="fill stroke markers" d=" M 117.16267485762415 298.790482243984 L 107 303 L 117.16267485762415 307.209517756016 L 117.16267485762415 298.790482243984" stroke-miterlimit="10" stroke-dasharray=""/></g><g><path fill="#FFFFFF" stroke="none" paint-order="stroke fill markers" d=" M 164 303 C 164 301.3431456 165.3431456 300 167 300 C 168.6568544 300 170 301.3431456 170 303 C 170 304.6568544 168.6568544 306 167 306 C 165.3431456 306 164 304.6568544 164 303 Z"/></g><g><path fill="none" stroke="#000000" paint-order="fill stroke markers" d=" M 164 303 C 164 301.3431456 165.3431456 300 167 300 C 168.6568544 300 170 301.3431456 170 303 C 170 304.6568544 168.6568544 306 167 306 C 165.3431456 306 164 304.6568544 164 303 Z" stroke-miterlimit="10" stroke-dasharray=""/></g><g><path fill="#C0C0C0" stroke="none" paint-order="stroke fill markers" d=" M 57 825 C 57 816.1634432 64.16344319999999 809 73 809 C 81.83655680000001 809 89 816.1634432 89 825 C 89 833.8365568 81.83655680000001 841 73 841 C 64.16344319999999 841 57 833.8365568 57 825 Z" fill-opacity="0.2"/></g><g><path fill="#ffffff" stroke="none" paint-order="stroke fill markers" d=" M 50 818 C 50 809.1634432 57.16344319999999 802 66 802 C 74.83655680000001 802 82 809.1634432 82 818 C 82 826.8365568 74.83655680000001 834 66 834 C 57.16344319999999 834 50 826.8365568 50 818 Z"/></g><g><path fill="none" stroke="#000000" paint-order="fill stroke markers" d=" M 50 818 C 50 809.1634432 57.16344319999999 802 66 802 C 74.83655680000001 802 82 809.1634432 82 818 C 82 826.8365568 74.83655680000001 834 66 834 C 57.16344319999999 834 50 826.8365568 50 818 Z" stroke-miterlimit="10" stroke-width="3" stroke-dasharray=""/></g><g><rect fill="#ffffff" stroke="none" x="119.075439453125" y="893.5" width="97.84912109375" height="13" transform="matrix(1 0 0 1 -102 -46)"/></g><g><g><path fill="none" stroke="none"/><text fill="#000000" stroke="none" font-family="Roboto" font-size="13px" font-style="normal" font-weight="normal" text-decoration="undefined" x="168" y="900" text-anchor="middle" dominant-baseline="central" transform="matrix(1 0 0 1 -102 -46)">End</text></g></g><g><path fill="none" stroke="#000000" paint-order="fill stroke markers" d=" M 66 323 L 66 802" stroke-miterlimit="10" stroke-dasharray=""/></g><g><path fill="#000000" stroke="none" paint-order="stroke fill markers" d=" M 61.790482243984 791.8373251423759 L 66 802 L 70.209517756016 791.8373251423759"/></g><g><path fill="none" stroke="#000000" paint-order="fill stroke markers" d=" M 61.790482243984 791.8373251423759 L 66 802 L 70.209517756016 791.8373251423759 L 61.790482243984 791.8373251423759" stroke-miterlimit="10" stroke-dasharray=""/></g><g><path fill="#C0C0C0" stroke="none" paint-order="stroke fill markers" d=" M 291 337 L 352.43017578125 337 Q 362.43017578125 337 362.43017578125 347 L 362.43017578125 389 Q 362.43017578125 399 352.43017578125 399 L 291 399 Q 281 399 281 389 L 281 347 Q 281 337 291 337 Z" fill-opacity="0.2"/></g><g><path fill="#ffffff" stroke="none" paint-order="stroke fill markers" d=" M 284 330 L 345.43017578125 330 Q 355.43017578125 330 355.43017578125 340 L 355.43017578125 382 Q 355.43017578125 392 345.43017578125 392 L 284 392 Q 274 392 274 382 L 274 340 Q 274 330 284 330 Z"/></g><g><path fill="none" stroke="#000000" paint-order="fill stroke markers" d=" M 284 330 L 345.43017578125 330 Q 355.43017578125 330 355.43017578125 340 L 355.43017578125 382 Q 355.43017578125 392 345.43017578125 392 L 284 392 Q 274 392 274 382 L 274 340 Q 274 330 284 330 Z" stroke-miterlimit="10" stroke-dasharray=""/></g><g><g><path fill="none" stroke="none"/><text fill="#000000" stroke="none" font-family="Roboto" font-size="13px" font-style="normal" font-weight="normal" text-decoration="undefined" x="416.715087890625" y="387.5" text-anchor="middle" dominant-baseline="central" transform="matrix(1 0 0 1 -102 -46)">get</text><text fill="#000000" stroke="none" font-family="Roboto" font-size="13px" font-style="normal" font-weight="normal" text-decoration="undefined" x="416.715087890625" y="400.5" text-anchor="middle" dominant-baseline="central" transform="matrix(1 0 0 1 -102 -46)">notification</text><text fill="#000000" stroke="none" font-family="Roboto" font-size="13px" font-style="normal" font-weight="normal" text-decoration="undefined" x="416.715087890625" y="413.5" text-anchor="middle" dominant-baseline="central" transform="matrix(1 0 0 1 -102 -46)">from</text><text fill="#000000" stroke="none" font-family="Roboto" font-size="13px" font-style="normal" font-weight="normal" text-decoration="undefined" x="416.715087890625" y="426.5" text-anchor="middle" dominant-baseline="central" transform="matrix(1 0 0 1 -102 -46)">callcenter</text></g></g><g><path fill="none" stroke="#000000" paint-order="fill stroke markers" d=" M 226 122 L 306 122 L 306 122 A 8 8 0 0 1 314 130 L 314 330" stroke-miterlimit="10" stroke-dasharray=""/></g><g><path fill="#000000" stroke="none" paint-order="stroke fill markers" d=" M 309.790482243984 319.83732514237585 L 314 330 L 318.209517756016 319.83732514237585"/></g><g><path fill="none" stroke="#000000" paint-order="fill stroke markers" d=" M 309.790482243984 319.83732514237585 L 314 330 L 318.209517756016 319.83732514237585 L 309.790482243984 319.83732514237585" stroke-miterlimit="10" stroke-dasharray=""/></g><g><path fill="#C0C0C0" stroke="none" paint-order="stroke fill markers" d=" M 187 481 L 243.0283203125 481 Q 253.0283203125 481 253.0283203125 491 L 253.0283203125 533 Q 253.0283203125 543 243.0283203125 543 L 187 543 Q 177 543 177 533 L 177 491 Q 177 481 187 481 Z" fill-opacity="0.2"/></g><g><path fill="#ffffff" stroke="none" paint-order="stroke fill markers" d=" M 180 474 L 236.0283203125 474 Q 246.0283203125 474 246.0283203125 484 L 246.0283203125 526 Q 246.0283203125 536 236.0283203125 536 L 180 536 Q 170 536 170 526 L 170 484 Q 170 474 180 474 Z"/></g><g><path fill="none" stroke="#000000" paint-order="fill stroke markers" d=" M 180 474 L 236.0283203125 474 Q 246.0283203125 474 246.0283203125 484 L 246.0283203125 526 Q 246.0283203125 536 236.0283203125 536 L 180 536 Q 170 536 170 526 L 170 484 Q 170 474 180 474 Z" stroke-miterlimit="10" stroke-dasharray=""/></g><g><g><path fill="none" stroke="none"/><text fill="#000000" stroke="none" font-family="Roboto" font-size="13px" font-style="normal" font-weight="normal" text-decoration="undefined" x="310.01416015625" y="531.5" text-anchor="middle" dominant-baseline="central" transform="matrix(1 0 0 1 -102 -46)">medical</text><text fill="#000000" stroke="none" font-family="Roboto" font-size="13px" font-style="normal" font-weight="normal" text-decoration="undefined" x="310.01416015625" y="544.5" text-anchor="middle" dominant-baseline="central" transform="matrix(1 0 0 1 -102 -46)">preparation</text><text fill="#000000" stroke="none" font-family="Roboto" font-size="13px" font-style="normal" font-weight="normal" text-decoration="undefined" x="310.01416015625" y="557.5" text-anchor="middle" dominant-baseline="central" transform="matrix(1 0 0 1 -102 -46)">to recieve</text><text fill="#000000" stroke="none" font-family="Roboto" font-size="13px" font-style="normal" font-weight="normal" text-decoration="undefined" x="310.01416015625" y="570.5" text-anchor="middle" dominant-baseline="central" transform="matrix(1 0 0 1 -102 -46)">patient</text></g></g><g><path fill="none" stroke="#000000" paint-order="fill stroke markers" d=" M 210 328 L 210 402" stroke-miterlimit="10" stroke-dasharray=""/></g><g><path fill="#000000" stroke="none" paint-order="stroke fill markers" d=" M 205.790482243984 391.83732514237585 L 210 402 L 214.209517756016 391.83732514237585"/></g><g><path fill="none" stroke="#000000" paint-order="fill stroke markers" d=" M 205.790482243984 391.83732514237585 L 210 402 L 214.209517756016 391.83732514237585 L 205.790482243984 391.83732514237585" stroke-miterlimit="10" stroke-dasharray=""/></g><g><path fill="none" stroke="#000000" paint-order="fill stroke markers" d=" M 274 362 L 234 362 L 234 362 A 8 8 0 0 0 226 370 L 226 402" stroke-miterlimit="10" stroke-dasharray=""/></g><g><path fill="#000000" stroke="none" paint-order="stroke fill markers" d=" M 221.790482243984 391.83732514237585 L 226 402 L 230.209517756016 391.83732514237585"/></g><g><path fill="none" stroke="#000000" paint-order="fill stroke markers" d=" M 221.790482243984 391.83732514237585 L 226 402 L 230.209517756016 391.83732514237585 L 221.790482243984 391.83732514237585" stroke-miterlimit="10" stroke-dasharray=""/></g><g><path fill="#C0C0C0" stroke="none" paint-order="stroke fill markers" d=" M 187 409 L 248.43017578125 409 Q 258.43017578125 409 258.43017578125 419 L 258.43017578125 448 Q 258.43017578125 458 248.43017578125 458 L 187 458 Q 177 458 177 448 L 177 419 Q 177 409 187 409 Z" fill-opacity="0.2"/></g><g><path fill="#ffffff" stroke="none" paint-order="stroke fill markers" d=" M 180 402 L 241.43017578125 402 Q 251.43017578125 402 251.43017578125 412 L 251.43017578125 441 Q 251.43017578125 451 241.43017578125 451 L 180 451 Q 170 451 170 441 L 170 412 Q 170 402 180 402 Z"/></g><g><path fill="none" stroke="#000000" paint-order="fill stroke markers" d=" M 180 402 L 241.43017578125 402 Q 251.43017578125 402 251.43017578125 412 L 251.43017578125 441 Q 251.43017578125 451 241.43017578125 451 L 180 451 Q 170 451 170 441 L 170 412 Q 170 402 180 402 Z" stroke-miterlimit="10" stroke-dasharray=""/></g><g><g><path fill="none" stroke="none"/><text fill="#000000" stroke="none" font-family="Roboto" font-size="13px" font-style="normal" font-weight="normal" text-decoration="undefined" x="312.715087890625" y="459.5" text-anchor="middle" dominant-baseline="central" transform="matrix(1 0 0 1 -102 -46)">get</text><text fill="#000000" stroke="none" font-family="Roboto" font-size="13px" font-style="normal" font-weight="normal" text-decoration="undefined" x="312.715087890625" y="472.5" text-anchor="middle" dominant-baseline="central" transform="matrix(1 0 0 1 -102 -46)">information</text><text fill="#000000" stroke="none" font-family="Roboto" font-size="13px" font-style="normal" font-weight="normal" text-decoration="undefined" x="312.715087890625" y="485.5" text-anchor="middle" dominant-baseline="central" transform="matrix(1 0 0 1 -102 -46)">about patient</text></g></g><g><path fill="none" stroke="#000000" paint-order="fill stroke markers" d=" M 209 451 L 209 474" stroke-miterlimit="10" stroke-dasharray=""/></g><g><path fill="#000000" stroke="none" paint-order="stroke fill markers" d=" M 204.790482243984 463.83732514237585 L 209 474 L 213.209517756016 463.83732514237585"/></g><g><path fill="none" stroke="#000000" paint-order="fill stroke markers" d=" M 204.790482243984 463.83732514237585 L 209 474 L 213.209517756016 463.83732514237585 L 204.790482243984 463.83732514237585" stroke-miterlimit="10" stroke-dasharray=""/></g><g><path fill="#C0C0C0" stroke="none" paint-order="stroke fill markers" d=" M 443 337 L 504.43017578125 337 Q 514.43017578125 337 514.43017578125 347 L 514.43017578125 376 Q 514.43017578125 386 504.43017578125 386 L 443 386 Q 433 386 433 376 L 433 347 Q 433 337 443 337 Z" fill-opacity="0.2"/></g><g><path fill="#ffffff" stroke="none" paint-order="stroke fill markers" d=" M 436 330 L 497.43017578125 330 Q 507.43017578125 330 507.43017578125 340 L 507.43017578125 369 Q 507.43017578125 379 497.43017578125 379 L 436 379 Q 426 379 426 369 L 426 340 Q 426 330 436 330 Z"/></g><g><path fill="none" stroke="#000000" paint-order="fill stroke markers" d=" M 436 330 L 497.43017578125 330 Q 507.43017578125 330 507.43017578125 340 L 507.43017578125 369 Q 507.43017578125 379 497.43017578125 379 L 436 379 Q 426 379 426 369 L 426 340 Q 426 330 436 330 Z" stroke-miterlimit="10" stroke-dasharray=""/></g><g><g><path fill="none" stroke="none"/><text fill="#000000" stroke="none" font-family="Roboto" font-size="13px" font-style="normal" font-weight="normal" text-decoration="undefined" x="568.715087890625" y="387.5" text-anchor="middle" dominant-baseline="central" transform="matrix(1 0 0 1 -102 -46)">notify</text><text fill="#000000" stroke="none" font-family="Roboto" font-size="13px" font-style="normal" font-weight="normal" text-decoration="undefined" x="568.715087890625" y="400.5" text-anchor="middle" dominant-baseline="central" transform="matrix(1 0 0 1 -102 -46)">medical</text><text fill="#000000" stroke="none" font-family="Roboto" font-size="13px" font-style="normal" font-weight="normal" text-decoration="undefined" x="568.715087890625" y="413.5" text-anchor="middle" dominant-baseline="central" transform="matrix(1 0 0 1 -102 -46)">center</text></g></g><g><path fill="none" stroke="#000000" paint-order="fill stroke markers" d=" M 426 359 L 355 359" stroke-miterlimit="10" stroke-dasharray="6,4"/></g><g><path fill="#FFFFFF" stroke="none" paint-order="stroke fill markers" d=" M 365.16267485762415 354.790482243984 L 355 359 L 365.16267485762415 363.209517756016"/></g><g><path fill="none" stroke="#000000" paint-order="fill stroke markers" d=" M 365.16267485762415 354.790482243984 L 355 359 L 365.16267485762415 363.209517756016 L 365.16267485762415 354.790482243984" stroke-miterlimit="10" stroke-dasharray=""/></g><g><path fill="#FFFFFF" stroke="none" paint-order="stroke fill markers" d=" M 420 359 C 420 357.3431456 421.34314559999996 356 423 356 C 424.65685440000004 356 426 357.3431456 426 359 C 426 360.6568544 424.65685440000004 362 423 362 C 421.34314559999996 362 420 360.6568544 420 359 Z"/></g><g><path fill="none" stroke="#000000" paint-order="fill stroke markers" d=" M 420 359 C 420 357.3431456 421.34314559999996 356 423 356 C 424.65685440000004 356 426 357.3431456 426 359 C 426 360.6568544 424.65685440000004 362 423 362 C 421.34314559999996 362 420 360.6568544 420 359 Z" stroke-miterlimit="10" stroke-dasharray=""/></g><g><path fill="#C0C0C0" stroke="none" paint-order="stroke fill markers" d=" M 443 417 L 504.43017578125 417 Q 514.43017578125 417 514.43017578125 427 L 514.43017578125 456 Q 514.43017578125 466 504.43017578125 466 L 443 466 Q 433 466 433 456 L 433 427 Q 433 417 443 417 Z" fill-opacity="0.2"/></g><g><path fill="#ffffff" stroke="none" paint-order="stroke fill markers" d=" M 436 410 L 497.43017578125 410 Q 507.43017578125 410 507.43017578125 420 L 507.43017578125 449 Q 507.43017578125 459 497.43017578125 459 L 436 459 Q 426 459 426 449 L 426 420 Q 426 410 436 410 Z"/></g><g><path fill="none" stroke="#000000" paint-order="fill stroke markers" d=" M 436 410 L 497.43017578125 410 Q 507.43017578125 410 507.43017578125 420 L 507.43017578125 449 Q 507.43017578125 459 497.43017578125 459 L 436 459 Q 426 459 426 449 L 426 420 Q 426 410 436 410 Z" stroke-miterlimit="10" stroke-dasharray=""/></g><g><g><path fill="none" stroke="none"/><text fill="#000000" stroke="none" font-family="Roboto" font-size="13px" font-style="normal" font-weight="normal" text-decoration="undefined" x="568.715087890625" y="467.5" text-anchor="middle" dominant-baseline="central" transform="matrix(1 0 0 1 -102 -46)">retrieve</text><text fill="#000000" stroke="none" font-family="Roboto" font-size="13px" font-style="normal" font-weight="normal" text-decoration="undefined" x="568.715087890625" y="480.5" text-anchor="middle" dominant-baseline="central" transform="matrix(1 0 0 1 -102 -46)">patient</text><text fill="#000000" stroke="none" font-family="Roboto" font-size="13px" font-style="normal" font-weight="normal" text-decoration="undefined" x="568.715087890625" y="493.5" text-anchor="middle" dominant-baseline="central" transform="matrix(1 0 0 1 -102 -46)">information</text></g></g><g><path fill="none" stroke="#000000" paint-order="fill stroke markers" d=" M 251 433 L 426 433" stroke-miterlimit="10" stroke-dasharray="6,4"/></g><g><path fill="#FFFFFF" stroke="none" paint-order="stroke fill markers" d=" M 415.8373251423759 437.209517756016 L 426 433 L 415.8373251423758 428.790482243984"/></g><g><path fill="none" stroke="#000000" paint-order="fill stroke markers" d=" M 415.8373251423759 437.209517756016 L 426 433 L 415.8373251423758 428.790482243984 L 415.8373251423759 437.209517756016" stroke-miterlimit="10" stroke-dasharray=""/></g><g><path fill="#FFFFFF" stroke="none" paint-order="stroke fill markers" d=" M 251 433 C 251 431.3431456 252.3431456 430 254 430 C 255.6568544 430 257 431.3431456 257 433 C 257 434.6568544 255.6568544 436 254 436 C 252.3431456 436 251 434.6568544 251 433 Z"/></g><g><path fill="none" stroke="#000000" paint-order="fill stroke markers" d=" M 251 433 C 251 431.3431456 252.3431456 430 254 430 C 255.6568544 430 257 431.3431456 257 433 C 257 434.6568544 255.6568544 436 254 436 C 252.3431456 436 251 434.6568544 251 433 Z" stroke-miterlimit="10" stroke-dasharray=""/></g><g><path fill="none" stroke="#000000" paint-order="fill stroke markers" d=" M 466 459 L 466 498 L 466 498 A 8 8 0 0 1 458 506 L 246 506" stroke-miterlimit="10" stroke-dasharray="6,4"/></g><g><path fill="#FFFFFF" stroke="none" paint-order="stroke fill markers" d=" M 256.16267485762415 501.790482243984 L 246 506 L 256.16267485762415 510.209517756016"/></g><g><path fill="none" stroke="#000000" paint-order="fill stroke markers" d=" M 256.16267485762415 501.790482243984 L 246 506 L 256.16267485762415 510.209517756016 L 256.16267485762415 501.790482243984" stroke-miterlimit="10" stroke-dasharray=""/></g><g><path fill="#FFFFFF" stroke="none" paint-order="stroke fill markers" d=" M 463 462 C 463 460.3431456 464.34314559999996 459 466 459 C 467.65685440000004 459 469 460.3431456 469 462 C 469 463.6568544 467.65685440000004 465 466 465 C 464.34314559999996 465 463 463.6568544 463 462 Z"/></g><g><path fill="none" stroke="#000000" paint-order="fill stroke markers" d=" M 463 462 C 463 460.3431456 464.34314559999996 459 466 459 C 467.65685440000004 459 469 460.3431456 469 462 C 469 463.6568544 467.65685440000004 465 466 465 C 464.34314559999996 465 463 463.6568544 463 462 Z" stroke-miterlimit="10" stroke-dasharray=""/></g><g><path fill="#C0C0C0" stroke="none" paint-order="stroke fill markers" d=" M 187 569 L 248.43017578125 569 Q 258.43017578125 569 258.43017578125 579 L 258.43017578125 631 Q 258.43017578125 641 248.43017578125 641 L 187 641 Q 177 641 177 631 L 177 579 Q 177 569 187 569 Z" fill-opacity="0.2"/></g><g><path fill="#ffffff" stroke="none" paint-order="stroke fill markers" d=" M 180 562 L 241.43017578125 562 Q 251.43017578125 562 251.43017578125 572 L 251.43017578125 624 Q 251.43017578125 634 241.43017578125 634 L 180 634 Q 170 634 170 624 L 170 572 Q 170 562 180 562 Z"/></g><g><path fill="none" stroke="#000000" paint-order="fill stroke markers" d=" M 180 562 L 241.43017578125 562 Q 251.43017578125 562 251.43017578125 572 L 251.43017578125 624 Q 251.43017578125 634 241.43017578125 634 L 180 634 Q 170 634 170 624 L 170 572 Q 170 562 180 562 Z" stroke-miterlimit="10" stroke-dasharray=""/></g><g><path fill="none" stroke="#000000" paint-order="fill stroke markers" d=" M 208.1840380010418 628.5640260967534 A 4 4 0 1 1 212.3511410091699 628.2360679774998" stroke-miterlimit="10" stroke-dasharray=""/></g><g><path fill="none" stroke="#000000" paint-order="fill stroke markers" d=" M 209 629 L 205 629" stroke-miterlimit="10" stroke-dasharray=""/></g><g><path fill="none" stroke="#000000" paint-order="fill stroke markers" d=" M 209 629 L 209 625" stroke-miterlimit="10" stroke-dasharray=""/></g><g><g><path fill="none" stroke="none"/><text fill="#000000" stroke="none" font-family="Roboto" font-size="13px" font-style="normal" font-weight="normal" text-decoration="undefined" x="312.715087890625" y="630.5" text-anchor="middle" dominant-baseline="central" transform="matrix(1 0 0 1 -102 -46)">monitoring</text><text fill="#000000" stroke="none" font-family="Roboto" font-size="13px" font-style="normal" font-weight="normal" text-decoration="undefined" x="312.715087890625" y="643.5" text-anchor="middle" dominant-baseline="central" transform="matrix(1 0 0 1 -102 -46)">ambulance</text><text fill="#000000" stroke="none" font-family="Roboto" font-size="13px" font-style="normal" font-weight="normal" text-decoration="undefined" x="312.715087890625" y="656.5" text-anchor="middle" dominant-baseline="central" transform="matrix(1 0 0 1 -102 -46)">activity</text></g></g><g><path fill="none" stroke="#000000" paint-order="fill stroke markers" d=" M 209 536 L 209 562" stroke-miterlimit="10" stroke-dasharray=""/></g><g><path fill="#000000" stroke="none" paint-order="stroke fill markers" d=" M 204.790482243984 551.8373251423759 L 209 562 L 213.209517756016 551.8373251423759"/></g><g><path fill="none" stroke="#000000" paint-order="fill stroke markers" d=" M 204.790482243984 551.8373251423759 L 209 562 L 213.209517756016 551.8373251423759 L 204.790482243984 551.8373251423759" stroke-miterlimit="10" stroke-dasharray=""/></g><g><path fill="#C0C0C0" stroke="none" paint-order="stroke fill markers" d=" M 435 569 L 496.43017578125 569 Q 506.43017578125 569 506.43017578125 579 L 506.43017578125 623 Q 506.43017578125 633 496.43017578125 633 L 435 633 Q 425 633 425 623 L 425 579 Q 425 569 435 569 Z" fill-opacity="0.2"/></g><g><path fill="#ffffff" stroke="none" paint-order="stroke fill markers" d=" M 428 562 L 489.43017578125 562 Q 499.43017578125 562 499.43017578125 572 L 499.43017578125 616 Q 499.43017578125 626 489.43017578125 626 L 428 626 Q 418 626 418 616 L 418 572 Q 418 562 428 562 Z"/></g><g><path fill="none" stroke="#000000" paint-order="fill stroke markers" d=" M 428 562 L 489.43017578125 562 Q 499.43017578125 562 499.43017578125 572 L 499.43017578125 616 Q 499.43017578125 626 489.43017578125 626 L 428 626 Q 418 626 418 616 L 418 572 Q 418 562 428 562 Z" stroke-miterlimit="10" stroke-dasharray=""/></g><g><g><path fill="none" stroke="none"/><text fill="#000000" stroke="none" font-family="Roboto" font-size="13px" font-style="normal" font-weight="normal" text-decoration="undefined" x="560.715087890625" y="626.5" text-anchor="middle" dominant-baseline="central" transform="matrix(1 0 0 1 -102 -46)">status</text><text fill="#000000" stroke="none" font-family="Roboto" font-size="13px" font-style="normal" font-weight="normal" text-decoration="undefined" x="560.715087890625" y="639.5" text-anchor="middle" dominant-baseline="central" transform="matrix(1 0 0 1 -102 -46)">ambulance</text><text fill="#000000" stroke="none" font-family="Roboto" font-size="13px" font-style="normal" font-weight="normal" text-decoration="undefined" x="560.715087890625" y="652.5" text-anchor="middle" dominant-baseline="central" transform="matrix(1 0 0 1 -102 -46)">activities</text></g></g><g><path fill="none" stroke="#000000" paint-order="fill stroke markers" d=" M 251 586 L 418 586" stroke-miterlimit="10" stroke-dasharray="6,4"/></g><g><path fill="#FFFFFF" stroke="none" paint-order="stroke fill markers" d=" M 407.83732514237585 590.209517756016 L 418 586 L 407.83732514237585 581.790482243984"/></g><g><path fill="none" stroke="#000000" paint-order="fill stroke markers" d=" M 407.83732514237585 590.209517756016 L 418 586 L 407.83732514237585 581.790482243984 L 407.83732514237585 590.209517756016" stroke-miterlimit="10" stroke-dasharray=""/></g><g><path fill="#FFFFFF" stroke="none" paint-order="stroke fill markers" d=" M 251 586 C 251 584.3431456 252.3431456 583 254 583 C 255.6568544 583 257 584.3431456 257 586 C 257 587.6568544 255.6568544 589 254 589 C 252.3431456 589 251 587.6568544 251 586 Z"/></g><g><path fill="none" stroke="#000000" paint-order="fill stroke markers" d=" M 251 586 C 251 584.3431456 252.3431456 583 254 583 C 255.6568544 583 257 584.3431456 257 586 C 257 587.6568544 255.6568544 589 254 589 C 252.3431456 589 251 587.6568544 251 586 Z" stroke-miterlimit="10" stroke-dasharray=""/></g><g><path fill="none" stroke="#000000" paint-order="fill stroke markers" d=" M 418 602 L 251 602" stroke-miterlimit="10" stroke-dasharray="6,4"/></g><g><path fill="#FFFFFF" stroke="none" paint-order="stroke fill markers" d=" M 261.16267485762415 597.790482243984 L 251 602 L 261.16267485762415 606.209517756016"/></g><g><path fill="none" stroke="#000000" paint-order="fill stroke markers" d=" M 261.16267485762415 597.790482243984 L 251 602 L 261.16267485762415 606.209517756016 L 261.16267485762415 597.790482243984" stroke-miterlimit="10" stroke-dasharray=""/></g><g><path fill="#FFFFFF" stroke="none" paint-order="stroke fill markers" d=" M 412 602 C 412 600.3431456 413.34314559999996 599 415 599 C 416.65685440000004 599 418 600.3431456 418 602 C 418 603.6568544 416.65685440000004 605 415 605 C 413.34314559999996 605 412 603.6568544 412 602 Z"/></g><g><path fill="none" stroke="#000000" paint-order="fill stroke markers" d=" M 412 602 C 412 600.3431456 413.34314559999996 599 415 599 C 416.65685440000004 599 418 600.3431456 418 602 C 418 603.6568544 416.65685440000004 605 415 605 C 413.34314559999996 605 412 603.6568544 412 602 Z" stroke-miterlimit="10" stroke-dasharray=""/></g><g><path fill="#C0C0C0" stroke="none" paint-order="stroke fill markers" d=" M 187 673 L 248.43017578125 673 Q 258.43017578125 673 258.43017578125 683 L 258.43017578125 712 Q 258.43017578125 722 248.43017578125 722 L 187 722 Q 177 722 177 712 L 177 683 Q 177 673 187 673 Z" fill-opacity="0.2"/></g><g><path fill="#ffffff" stroke="none" paint-order="stroke fill markers" d=" M 180 666 L 241.43017578125 666 Q 251.43017578125 666 251.43017578125 676 L 251.43017578125 705 Q 251.43017578125 715 241.43017578125 715 L 180 715 Q 170 715 170 705 L 170 676 Q 170 666 180 666 Z"/></g><g><path fill="none" stroke="#000000" paint-order="fill stroke markers" d=" M 180 666 L 241.43017578125 666 Q 251.43017578125 666 251.43017578125 676 L 251.43017578125 705 Q 251.43017578125 715 241.43017578125 715 L 180 715 Q 170 715 170 705 L 170 676 Q 170 666 180 666 Z" stroke-miterlimit="10" stroke-dasharray=""/></g><g><g><path fill="none" stroke="none"/><text fill="#000000" stroke="none" font-family="Roboto" font-size="13px" font-style="normal" font-weight="normal" text-decoration="undefined" x="312.715087890625" y="723.5" text-anchor="middle" dominant-baseline="central" transform="matrix(1 0 0 1 -102 -46)">patient</text><text fill="#000000" stroke="none" font-family="Roboto" font-size="13px" font-style="normal" font-weight="normal" text-decoration="undefined" x="312.715087890625" y="736.5" text-anchor="middle" dominant-baseline="central" transform="matrix(1 0 0 1 -102 -46)">handling and</text><text fill="#000000" stroke="none" font-family="Roboto" font-size="13px" font-style="normal" font-weight="normal" text-decoration="undefined" x="312.715087890625" y="749.5" text-anchor="middle" dominant-baseline="central" transform="matrix(1 0 0 1 -102 -46)">update status</text></g></g><g><path fill="none" stroke="#000000" paint-order="fill stroke markers" d=" M 210 634 L 210 666" stroke-miterlimit="10" stroke-dasharray=""/></g><g><path fill="#000000" stroke="none" paint-order="stroke fill markers" d=" M 205.790482243984 655.8373251423759 L 210 666 L 214.209517756016 655.8373251423759"/></g><g><path fill="none" stroke="#000000" paint-order="fill stroke markers" d=" M 205.790482243984 655.8373251423759 L 210 666 L 214.209517756016 655.8373251423759 L 205.790482243984 655.8373251423759" stroke-miterlimit="10" stroke-dasharray=""/></g><g><path fill="#C0C0C0" stroke="none" paint-order="stroke fill markers" d=" M 201 825 C 201 816.1634432 208.16344320000002 809 217 809 C 225.83655679999998 809 233 816.1634432 233 825 C 233 833.8365568 225.83655679999998 841 217 841 C 208.16344320000002 841 201 833.8365568 201 825 Z" fill-opacity="0.2"/></g><g><path fill="#ffffff" stroke="none" paint-order="stroke fill markers" d=" M 194 818 C 194 809.1634432 201.16344320000002 802 210 802 C 218.83655679999998 802 226 809.1634432 226 818 C 226 826.8365568 218.83655679999998 834 210 834 C 201.16344320000002 834 194 826.8365568 194 818 Z"/></g><g><path fill="none" stroke="#000000" paint-order="fill stroke markers" d=" M 194 818 C 194 809.1634432 201.16344320000002 802 210 802 C 218.83655679999998 802 226 809.1634432 226 818 C 226 826.8365568 218.83655679999998 834 210 834 C 201.16344320000002 834 194 826.8365568 194 818 Z" stroke-miterlimit="10" stroke-width="3" stroke-dasharray=""/></g><g><rect fill="#ffffff" stroke="none" x="279.287353515625" y="886.5" width="65.42529296875" height="39" transform="matrix(1 0 0 1 -102 -46)"/></g><g><g><path fill="none" stroke="none"/><text fill="#000000" stroke="none" font-family="Roboto" font-size="13px" font-style="normal" font-weight="normal" text-decoration="undefined" x="312" y="893" text-anchor="middle" dominant-baseline="central" transform="matrix(1 0 0 1 -102 -46)">End</text><text fill="#000000" stroke="none" font-family="Roboto" font-size="13px" font-style="normal" font-weight="normal" text-decoration="undefined" x="312" y="906" text-anchor="middle" dominant-baseline="central" transform="matrix(1 0 0 1 -102 -46)">Ambulance</text><text fill="#000000" stroke="none" font-family="Roboto" font-size="13px" font-style="normal" font-weight="normal" text-decoration="undefined" x="312" y="919" text-anchor="middle" dominant-baseline="central" transform="matrix(1 0 0 1 -102 -46)">Service</text></g></g><g><path fill="#C0C0C0" stroke="none" paint-order="stroke fill markers" d=" M 187 753 L 248.43017578125 753 Q 258.43017578125 753 258.43017578125 763 L 258.43017578125 766 Q 258.43017578125 776 248.43017578125 776 L 187 776 Q 177 776 177 766 L 177 763 Q 177 753 187 753 Z" fill-opacity="0.2"/></g><g><path fill="#ffffff" stroke="none" paint-order="stroke fill markers" d=" M 180 746 L 241.43017578125 746 Q 251.43017578125 746 251.43017578125 756 L 251.43017578125 759 Q 251.43017578125 769 241.43017578125 769 L 180 769 Q 170 769 170 759 L 170 756 Q 170 746 180 746 Z"/></g><g><path fill="none" stroke="#000000" paint-order="fill stroke markers" d=" M 180 746 L 241.43017578125 746 Q 251.43017578125 746 251.43017578125 756 L 251.43017578125 759 Q 251.43017578125 769 241.43017578125 769 L 180 769 Q 170 769 170 759 L 170 756 Q 170 746 180 746 Z" stroke-miterlimit="10" stroke-dasharray=""/></g><g><g><path fill="none" stroke="none"/><text fill="#000000" stroke="none" font-family="Roboto" font-size="13px" font-style="normal" font-weight="normal" text-decoration="undefined" x="312.715087890625" y="803.5" text-anchor="middle" dominant-baseline="central" transform="matrix(1 0 0 1 -102 -46)">close ticket</text></g></g><g><path fill="none" stroke="#000000" paint-order="fill stroke markers" d=" M 210 715 L 210 746" stroke-miterlimit="10" stroke-dasharray=""/></g><g><path fill="#000000" stroke="none" paint-order="stroke fill markers" d=" M 205.790482243984 735.8373251423759 L 210 746 L 214.209517756016 735.8373251423759"/></g><g><path fill="none" stroke="#000000" paint-order="fill stroke markers" d=" M 205.790482243984 735.8373251423759 L 210 746 L 214.209517756016 735.8373251423759 L 205.790482243984 735.8373251423759" stroke-miterlimit="10" stroke-dasharray=""/></g><g><path fill="none" stroke="#000000" paint-order="fill stroke markers" d=" M 210 769 L 210 802" stroke-miterlimit="10" stroke-dasharray=""/></g><g><path fill="#000000" stroke="none" paint-order="stroke fill markers" d=" M 205.790482243984 791.8373251423759 L 210 802 L 214.209517756016 791.8373251423759"/></g><g><path fill="none" stroke="#000000" paint-order="fill stroke markers" d=" M 205.790482243984 791.8373251423759 L 210 802 L 214.209517756016 791.8373251423759 L 205.790482243984 791.8373251423759" stroke-miterlimit="10" stroke-dasharray=""/></g></g></svg>