<svg version="1.1" xmlns="http://www.w3.org/2000/svg" xmlns:xlink="http://www.w3.org/1999/xlink" width="516" height="940"><defs/><g><g><path fill="none" stroke="#000000" paint-order="fill stroke markers" d=" M 10 10 L 154 10 L 154 930 L 10 930 L 10 10 Z Z" stroke-miterlimit="10" stroke-dasharray=""/></g><g><path fill="none" stroke="#000000" paint-order="fill stroke markers" d=" M 10 33 L 154 33" stroke-miterlimit="10" stroke-dasharray=""/></g><g><g><path fill="none" stroke="none"/><text fill="#000000" stroke="none" font-family="Roboto" font-size="13px" font-style="normal" font-weight="normal" text-decoration="undefined" x="168" y="77" text-anchor="middle" dominant-baseline="text-before-edge" transform="matrix(1 0 0 1 -86 -62)">customer</text></g></g><g><path fill="none" stroke="#000000" paint-order="fill stroke markers" d=" M 162 10 L 322 10 L 322 930 L 162 930 L 162 10 Z Z" stroke-miterlimit="10" stroke-dasharray=""/></g><g><path fill="none" stroke="#000000" paint-order="fill stroke markers" d=" M 162 33 L 322 33" stroke-miterlimit="10" stroke-dasharray=""/></g><g><g><path fill="none" stroke="none"/><text fill="#000000" stroke="none" font-family="Roboto" font-size="13px" font-style="normal" font-weight="normal" text-decoration="undefined" x="328" y="77" text-anchor="middle" dominant-baseline="text-before-edge" transform="matrix(1 0 0 1 -86 -62)">callcenter</text></g></g><g><path fill="#C0C0C0" stroke="none" paint-order="stroke fill markers" d=" M 73 81 C 73 72.16344319999999 80.16344319999999 65 89 65 C 97.83655680000001 65 105 72.16344319999999 105 81 C 105 89.83655680000001 97.83655680000001 97 89 97 C 80.16344319999999 97 73 89.83655680000001 73 81 Z" fill-opacity="0.2"/></g><g><path fill="#ffffff" stroke="none" paint-order="stroke fill markers" d=" M 66 74 C 66 65.1634432 73.16344319999999 58 82 58 C 90.83655680000001 58 98 65.1634432 98 74 C 98 82.83655680000001 90.83655680000001 90 82 90 C 73.16344319999999 90 66 82.83655680000001 66 74 Z"/></g><g><path fill="none" stroke="#000000" paint-order="fill stroke markers" d=" M 66 74 C 66 65.1634432 73.16344319999999 58 82 58 C 90.83655680000001 58 98 65.1634432 98 74 C 98 82.83655680000001 90.83655680000001 90 82 90 C 73.16344319999999 90 66 82.83655680000001 66 74 Z" stroke-miterlimit="10" stroke-dasharray=""/></g><g><rect fill="#ffffff" stroke="none" x="151.00341796875" y="101.5" width="27.9931640625" height="13" transform="matrix(1 0 0 1 -86 -62)"/></g><g><g><path fill="none" stroke="none"/><text fill="#000000" stroke="none" font-family="Roboto" font-size="13px" font-style="normal" font-weight="normal" text-decoration="undefined" x="165" y="108" text-anchor="middle" dominant-baseline="central" transform="matrix(1 0 0 1 -86 -62)">Start</text></g></g><g><path fill="#C0C0C0" stroke="none" paint-order="stroke fill markers" d=" M 59 129 L 120.43017578125 129 Q 130.43017578125 129 130.43017578125 139 L 130.43017578125 168 Q 130.43017578125 178 120.43017578125 178 L 59 178 Q 49 178 49 168 L 49 139 Q 49 129 59 129 Z" fill-opacity="0.2"/></g><g><path fill="#ffffff" stroke="none" paint-order="stroke fill markers" d=" M 52 122 L 113.43017578125 122 Q 123.43017578125 122 123.43017578125 132 L 123.43017578125 161 Q 123.43017578125 171 113.43017578125 171 L 52 171 Q 42 171 42 161 L 42 132 Q 42 122 52 122 Z"/></g><g><path fill="none" stroke="#000000" paint-order="fill stroke markers" d=" M 52 122 L 113.43017578125 122 Q 123.43017578125 122 123.43017578125 132 L 123.43017578125 161 Q 123.43017578125 171 113.43017578125 171 L 52 171 Q 42 171 42 161 L 42 132 Q 42 122 52 122 Z" stroke-miterlimit="10" stroke-dasharray=""/></g><g><g><path fill="none" stroke="none"/><text fill="#000000" stroke="none" font-family="Roboto" font-size="13px" font-style="normal" font-weight="normal" text-decoration="undefined" x="168.715087890625" y="195.5" text-anchor="middle" dominant-baseline="central" transform="matrix(1 0 0 1 -86 -62)">customer get</text><text fill="#000000" stroke="none" font-family="Roboto" font-size="13px" font-style="normal" font-weight="normal" text-decoration="undefined" x="168.715087890625" y="208.5" text-anchor="middle" dominant-baseline="central" transform="matrix(1 0 0 1 -86 -62)">callcenter wa</text><text fill="#000000" stroke="none" font-family="Roboto" font-size="13px" font-style="normal" font-weight="normal" text-decoration="undefined" x="168.715087890625" y="221.5" text-anchor="middle" dominant-baseline="central" transform="matrix(1 0 0 1 -86 -62)">info</text></g></g><g><path fill="none" stroke="#000000" paint-order="fill stroke markers" d=" M 82 90 L 82 122" stroke-miterlimit="10" stroke-dasharray=""/></g><g><path fill="#000000" stroke="none" paint-order="stroke fill markers" d=" M 77.790482243984 111.83732514237585 L 82 122 L 86.209517756016 111.83732514237585"/></g><g><path fill="none" stroke="#000000" paint-order="fill stroke markers" d=" M 77.790482243984 111.83732514237585 L 82 122 L 86.209517756016 111.83732514237585 L 77.790482243984 111.83732514237585" stroke-miterlimit="10" stroke-dasharray=""/></g><g><path fill="#C0C0C0" stroke="none" paint-order="stroke fill markers" d=" M 59 217 L 120.43017578125 217 Q 130.43017578125 217 130.43017578125 227 L 130.43017578125 256 Q 130.43017578125 266 120.43017578125 266 L 59 266 Q 49 266 49 256 L 49 227 Q 49 217 59 217 Z" fill-opacity="0.2"/></g><g><path fill="#ffffff" stroke="none" paint-order="stroke fill markers" d=" M 52 210 L 113.43017578125 210 Q 123.43017578125 210 123.43017578125 220 L 123.43017578125 249 Q 123.43017578125 259 113.43017578125 259 L 52 259 Q 42 259 42 249 L 42 220 Q 42 210 52 210 Z"/></g><g><path fill="none" stroke="#000000" paint-order="fill stroke markers" d=" M 52 210 L 113.43017578125 210 Q 123.43017578125 210 123.43017578125 220 L 123.43017578125 249 Q 123.43017578125 259 113.43017578125 259 L 52 259 Q 42 259 42 249 L 42 220 Q 42 210 52 210 Z" stroke-miterlimit="10" stroke-dasharray=""/></g><g><g><path fill="none" stroke="none"/><text fill="#000000" stroke="none" font-family="Roboto" font-size="13px" font-style="normal" font-weight="normal" text-decoration="undefined" x="168.715087890625" y="283.5" text-anchor="middle" dominant-baseline="central" transform="matrix(1 0 0 1 -86 -62)">call</text><text fill="#000000" stroke="none" font-family="Roboto" font-size="13px" font-style="normal" font-weight="normal" text-decoration="undefined" x="168.715087890625" y="296.5" text-anchor="middle" dominant-baseline="central" transform="matrix(1 0 0 1 -86 -62)">ambulanMu</text><text fill="#000000" stroke="none" font-family="Roboto" font-size="13px" font-style="normal" font-weight="normal" text-decoration="undefined" x="168.715087890625" y="309.5" text-anchor="middle" dominant-baseline="central" transform="matrix(1 0 0 1 -86 -62)">callcenter</text></g></g><g><path fill="none" stroke="#000000" paint-order="fill stroke markers" d=" M 82 171 L 82 210" stroke-miterlimit="10" stroke-dasharray=""/></g><g><path fill="#000000" stroke="none" paint-order="stroke fill markers" d=" M 77.790482243984 199.83732514237585 L 82 210 L 86.209517756016 199.83732514237585"/></g><g><path fill="none" stroke="#000000" paint-order="fill stroke markers" d=" M 77.790482243984 199.83732514237585 L 82 210 L 86.209517756016 199.83732514237585 L 77.790482243984 199.83732514237585" stroke-miterlimit="10" stroke-dasharray=""/></g><g><path fill="#C0C0C0" stroke="none" paint-order="stroke fill markers" d=" M 219 217 L 280.43017578125 217 Q 290.43017578125 217 290.43017578125 227 L 290.43017578125 256 Q 290.43017578125 266 280.43017578125 266 L 219 266 Q 209 266 209 256 L 209 227 Q 209 217 219 217 Z" fill-opacity="0.2"/></g><g><path fill="#ffffff" stroke="none" paint-order="stroke fill markers" d=" M 212 210 L 273.43017578125 210 Q 283.43017578125 210 283.43017578125 220 L 283.43017578125 249 Q 283.43017578125 259 273.43017578125 259 L 212 259 Q 202 259 202 249 L 202 220 Q 202 210 212 210 Z"/></g><g><path fill="none" stroke="#000000" paint-order="fill stroke markers" d=" M 212 210 L 273.43017578125 210 Q 283.43017578125 210 283.43017578125 220 L 283.43017578125 249 Q 283.43017578125 259 273.43017578125 259 L 212 259 Q 202 259 202 249 L 202 220 Q 202 210 212 210 Z" stroke-miterlimit="10" stroke-dasharray=""/></g><g><g><path fill="none" stroke="none"/><text fill="#000000" stroke="none" font-family="Roboto" font-size="13px" font-style="normal" font-weight="normal" text-decoration="undefined" x="328.715087890625" y="283.5" text-anchor="middle" dominant-baseline="central" transform="matrix(1 0 0 1 -86 -62)">receive order</text><text fill="#000000" stroke="none" font-family="Roboto" font-size="13px" font-style="normal" font-weight="normal" text-decoration="undefined" x="328.715087890625" y="296.5" text-anchor="middle" dominant-baseline="central" transform="matrix(1 0 0 1 -86 -62)">from</text><text fill="#000000" stroke="none" font-family="Roboto" font-size="13px" font-style="normal" font-weight="normal" text-decoration="undefined" x="328.715087890625" y="309.5" text-anchor="middle" dominant-baseline="central" transform="matrix(1 0 0 1 -86 -62)">customer</text></g></g><g><path fill="none" stroke="#000000" paint-order="fill stroke markers" d=" M 330 10 L 506 10 L 506 930 L 330 930 L 330 10 Z Z" stroke-miterlimit="10" stroke-dasharray=""/></g><g><path fill="none" stroke="#000000" paint-order="fill stroke markers" d=" M 330 33 L 506 33" stroke-miterlimit="10" stroke-dasharray=""/></g><g><g><path fill="none" stroke="none"/><text fill="#000000" stroke="none" font-family="Roboto" font-size="13px" font-style="normal" font-weight="normal" text-decoration="undefined" x="504" y="77" text-anchor="middle" dominant-baseline="text-before-edge" transform="matrix(1 0 0 1 -86 -62)">backend</text></g></g><g><path fill="none" stroke="#000000" paint-order="fill stroke markers" d=" M 123 234 L 202 234" stroke-miterlimit="10" stroke-dasharray="6,4"/></g><g><path fill="#FFFFFF" stroke="none" paint-order="stroke fill markers" d=" M 191.83732514237585 238.209517756016 L 202 234 L 191.83732514237585 229.790482243984"/></g><g><path fill="none" stroke="#000000" paint-order="fill stroke markers" d=" M 191.83732514237585 238.209517756016 L 202 234 L 191.83732514237585 229.790482243984 L 191.83732514237585 238.209517756016" stroke-miterlimit="10" stroke-dasharray=""/></g><g><path fill="#FFFFFF" stroke="none" paint-order="stroke fill markers" d=" M 123 234 C 123 232.3431456 124.34314560000001 231 126 231 C 127.65685439999999 231 129 232.3431456 129 234 C 129 235.6568544 127.65685439999999 237 126 237 C 124.34314560000001 237 123 235.6568544 123 234 Z"/></g><g><path fill="none" stroke="#000000" paint-order="fill stroke markers" d=" M 123 234 C 123 232.3431456 124.34314560000001 231 126 231 C 127.65685439999999 231 129 232.3431456 129 234 C 129 235.6568544 127.65685439999999 237 126 237 C 124.34314560000001 237 123 235.6568544 123 234 Z" stroke-miterlimit="10" stroke-dasharray=""/></g><g><path fill="#C0C0C0" stroke="none" paint-order="stroke fill markers" d=" M 219 297 L 280.43017578125 297 Q 290.43017578125 297 290.43017578125 307 L 290.43017578125 336 Q 290.43017578125 346 280.43017578125 346 L 219 346 Q 209 346 209 336 L 209 307 Q 209 297 219 297 Z" fill-opacity="0.2"/></g><g><path fill="#ffffff" stroke="none" paint-order="stroke fill markers" d=" M 212 290 L 273.43017578125 290 Q 283.43017578125 290 283.43017578125 300 L 283.43017578125 329 Q 283.43017578125 339 273.43017578125 339 L 212 339 Q 202 339 202 329 L 202 300 Q 202 290 212 290 Z"/></g><g><path fill="none" stroke="#000000" paint-order="fill stroke markers" d=" M 212 290 L 273.43017578125 290 Q 283.43017578125 290 283.43017578125 300 L 283.43017578125 329 Q 283.43017578125 339 273.43017578125 339 L 212 339 Q 202 339 202 329 L 202 300 Q 202 290 212 290 Z" stroke-miterlimit="10" stroke-dasharray=""/></g><g><g><path fill="none" stroke="none"/><text fill="#000000" stroke="none" font-family="Roboto" font-size="13px" font-style="normal" font-weight="normal" text-decoration="undefined" x="328.715087890625" y="363.5" text-anchor="middle" dominant-baseline="central" transform="matrix(1 0 0 1 -86 -62)">entry</text><text fill="#000000" stroke="none" font-family="Roboto" font-size="13px" font-style="normal" font-weight="normal" text-decoration="undefined" x="328.715087890625" y="376.5" text-anchor="middle" dominant-baseline="central" transform="matrix(1 0 0 1 -86 -62)">information</text><text fill="#000000" stroke="none" font-family="Roboto" font-size="13px" font-style="normal" font-weight="normal" text-decoration="undefined" x="328.715087890625" y="389.5" text-anchor="middle" dominant-baseline="central" transform="matrix(1 0 0 1 -86 -62)">order</text></g></g><g><path fill="none" stroke="#000000" paint-order="fill stroke markers" d=" M 242 259 L 242 290" stroke-miterlimit="10" stroke-dasharray=""/></g><g><path fill="#000000" stroke="none" paint-order="stroke fill markers" d=" M 237.790482243984 279.83732514237585 L 242 290 L 246.209517756016 279.83732514237585"/></g><g><path fill="none" stroke="#000000" paint-order="fill stroke markers" d=" M 237.790482243984 279.83732514237585 L 242 290 L 246.209517756016 279.83732514237585 L 237.790482243984 279.83732514237585" stroke-miterlimit="10" stroke-dasharray=""/></g><g><path fill="#C0C0C0" stroke="none" paint-order="stroke fill markers" d=" M 371 297 L 479 297 Q 489 297 489 307 L 489 359 Q 489 369 479 369 L 371 369 Q 361 369 361 359 L 361 307 Q 361 297 371 297 Z" fill-opacity="0.2"/></g><g><path fill="#ffffff" stroke="none" paint-order="stroke fill markers" d=" M 364 290 L 472 290 Q 482 290 482 300 L 482 352 Q 482 362 472 362 L 364 362 Q 354 362 354 352 L 354 300 Q 354 290 364 290 Z"/></g><g><path fill="none" stroke="#000000" paint-order="fill stroke markers" d=" M 364 290 L 472 290 Q 482 290 482 300 L 482 352 Q 482 362 472 362 L 364 362 Q 354 362 354 352 L 354 300 Q 354 290 364 290 Z" stroke-miterlimit="10" stroke-dasharray=""/></g><g><g><path fill="none" stroke="none"/><text fill="#000000" stroke="none" font-family="Roboto" font-size="13px" font-style="normal" font-weight="normal" text-decoration="undefined" x="504" y="368.5" text-anchor="middle" dominant-baseline="central" transform="matrix(1 0 0 1 -86 -62)">add order information</text><text fill="#000000" stroke="none" font-family="Roboto" font-size="13px" font-style="normal" font-weight="normal" text-decoration="undefined" x="504" y="381.5" text-anchor="middle" dominant-baseline="central" transform="matrix(1 0 0 1 -86 -62)">and search available</text><text fill="#000000" stroke="none" font-family="Roboto" font-size="13px" font-style="normal" font-weight="normal" text-decoration="undefined" x="504" y="394.5" text-anchor="middle" dominant-baseline="central" transform="matrix(1 0 0 1 -86 -62)">ambulance unit</text><text fill="#000000" stroke="none" font-family="Roboto" font-size="13px" font-style="normal" font-weight="normal" text-decoration="undefined" x="504" y="407.5" text-anchor="middle" dominant-baseline="central" transform="matrix(1 0 0 1 -86 -62)">nearest</text></g></g><g><path fill="none" stroke="#000000" paint-order="fill stroke markers" d=" M 283 314 L 354 314" stroke-miterlimit="10" stroke-dasharray="6,4"/></g><g><path fill="#FFFFFF" stroke="none" paint-order="stroke fill markers" d=" M 343.83732514237585 318.209517756016 L 354 314 L 343.83732514237585 309.790482243984"/></g><g><path fill="none" stroke="#000000" paint-order="fill stroke markers" d=" M 343.83732514237585 318.209517756016 L 354 314 L 343.83732514237585 309.790482243984 L 343.83732514237585 318.209517756016" stroke-miterlimit="10" stroke-dasharray=""/></g><g><path fill="#FFFFFF" stroke="none" paint-order="stroke fill markers" d=" M 283 314 C 283 312.3431456 284.3431456 311 286 311 C 287.6568544 311 289 312.3431456 289 314 C 289 315.6568544 287.6568544 317 286 317 C 284.3431456 317 283 315.6568544 283 314 Z"/></g><g><path fill="none" stroke="#000000" paint-order="fill stroke markers" d=" M 283 314 C 283 312.3431456 284.3431456 311 286 311 C 287.6568544 311 289 312.3431456 289 314 C 289 315.6568544 287.6568544 317 286 317 C 284.3431456 317 283 315.6568544 283 314 Z" stroke-miterlimit="10" stroke-dasharray=""/></g><g><path fill="#C0C0C0" stroke="none" paint-order="stroke fill markers" d=" M 219 377 L 280.43017578125 377 Q 290.43017578125 377 290.43017578125 387 L 290.43017578125 429 Q 290.43017578125 439 280.43017578125 439 L 219 439 Q 209 439 209 429 L 209 387 Q 209 377 219 377 Z" fill-opacity="0.2"/></g><g><path fill="#ffffff" stroke="none" paint-order="stroke fill markers" d=" M 212 370 L 273.43017578125 370 Q 283.43017578125 370 283.43017578125 380 L 283.43017578125 422 Q 283.43017578125 432 273.43017578125 432 L 212 432 Q 202 432 202 422 L 202 380 Q 202 370 212 370 Z"/></g><g><path fill="none" stroke="#000000" paint-order="fill stroke markers" d=" M 212 370 L 273.43017578125 370 Q 283.43017578125 370 283.43017578125 380 L 283.43017578125 422 Q 283.43017578125 432 273.43017578125 432 L 212 432 Q 202 432 202 422 L 202 380 Q 202 370 212 370 Z" stroke-miterlimit="10" stroke-dasharray=""/></g><g><g><path fill="none" stroke="none"/><text fill="#000000" stroke="none" font-family="Roboto" font-size="13px" font-style="normal" font-weight="normal" text-decoration="undefined" x="328.715087890625" y="443.5" text-anchor="middle" dominant-baseline="central" transform="matrix(1 0 0 1 -86 -62)">get</text><text fill="#000000" stroke="none" font-family="Roboto" font-size="13px" font-style="normal" font-weight="normal" text-decoration="undefined" x="328.715087890625" y="456.5" text-anchor="middle" dominant-baseline="central" transform="matrix(1 0 0 1 -86 -62)">availability</text><text fill="#000000" stroke="none" font-family="Roboto" font-size="13px" font-style="normal" font-weight="normal" text-decoration="undefined" x="328.715087890625" y="469.5" text-anchor="middle" dominant-baseline="central" transform="matrix(1 0 0 1 -86 -62)">ambulance</text><text fill="#000000" stroke="none" font-family="Roboto" font-size="13px" font-style="normal" font-weight="normal" text-decoration="undefined" x="328.715087890625" y="482.5" text-anchor="middle" dominant-baseline="central" transform="matrix(1 0 0 1 -86 -62)">info</text></g></g><g><path fill="none" stroke="#000000" paint-order="fill stroke markers" d=" M 418 362 L 418 394 L 418 394 A 8 8 0 0 1 410 402 L 283 402" stroke-miterlimit="10" stroke-dasharray="6,4"/></g><g><path fill="#FFFFFF" stroke="none" paint-order="stroke fill markers" d=" M 293.16267485762415 397.790482243984 L 283 402 L 293.16267485762415 406.209517756016"/></g><g><path fill="none" stroke="#000000" paint-order="fill stroke markers" d=" M 293.16267485762415 397.790482243984 L 283 402 L 293.16267485762415 406.209517756016 L 293.16267485762415 397.790482243984" stroke-miterlimit="10" stroke-dasharray=""/></g><g><path fill="#FFFFFF" stroke="none" paint-order="stroke fill markers" d=" M 415 365 C 415 363.3431456 416.3431456 362 418 362 C 419.6568544 362 421 363.3431456 421 365 C 421 366.6568544 419.6568544 368 418 368 C 416.3431456 368 415 366.6568544 415 365 Z"/></g><g><path fill="none" stroke="#000000" paint-order="fill stroke markers" d=" M 415 365 C 415 363.3431456 416.3431456 362 418 362 C 419.6568544 362 421 363.3431456 421 365 C 421 366.6568544 419.6568544 368 418 368 C 416.3431456 368 415 366.6568544 415 365 Z" stroke-miterlimit="10" stroke-dasharray=""/></g><g><path fill="none" stroke="#000000" paint-order="fill stroke markers" d=" M 242 339 L 242 370" stroke-miterlimit="10" stroke-dasharray=""/></g><g><path fill="#000000" stroke="none" paint-order="stroke fill markers" d=" M 237.790482243984 359.83732514237585 L 242 370 L 246.209517756016 359.83732514237585"/></g><g><path fill="none" stroke="#000000" paint-order="fill stroke markers" d=" M 237.790482243984 359.83732514237585 L 242 370 L 246.209517756016 359.83732514237585 L 237.790482243984 359.83732514237585" stroke-miterlimit="10" stroke-dasharray=""/></g><g><path fill="#C0C0C0" stroke="none" paint-order="stroke fill markers" d=" M 219 545 L 280.43017578125 545 Q 290.43017578125 545 290.43017578125 555 L 290.43017578125 597 Q 290.43017578125 607 280.43017578125 607 L 219 607 Q 209 607 209 597 L 209 555 Q 209 545 219 545 Z" fill-opacity="0.2"/></g><g><path fill="#ffffff" stroke="none" paint-order="stroke fill markers" d=" M 212 538 L 273.43017578125 538 Q 283.43017578125 538 283.43017578125 548 L 283.43017578125 590 Q 283.43017578125 600 273.43017578125 600 L 212 600 Q 202 600 202 590 L 202 548 Q 202 538 212 538 Z"/></g><g><path fill="none" stroke="#000000" paint-order="fill stroke markers" d=" M 212 538 L 273.43017578125 538 Q 283.43017578125 538 283.43017578125 548 L 283.43017578125 590 Q 283.43017578125 600 273.43017578125 600 L 212 600 Q 202 600 202 590 L 202 548 Q 202 538 212 538 Z" stroke-miterlimit="10" stroke-dasharray=""/></g><g><g><path fill="none" stroke="none"/><text fill="#000000" stroke="none" font-family="Roboto" font-size="13px" font-style="normal" font-weight="normal" text-decoration="undefined" x="328.715087890625" y="611.5" text-anchor="middle" dominant-baseline="central" transform="matrix(1 0 0 1 -86 -62)">send</text><text fill="#000000" stroke="none" font-family="Roboto" font-size="13px" font-style="normal" font-weight="normal" text-decoration="undefined" x="328.715087890625" y="624.5" text-anchor="middle" dominant-baseline="central" transform="matrix(1 0 0 1 -86 -62)">ambulance</text><text fill="#000000" stroke="none" font-family="Roboto" font-size="13px" font-style="normal" font-weight="normal" text-decoration="undefined" x="328.715087890625" y="637.5" text-anchor="middle" dominant-baseline="central" transform="matrix(1 0 0 1 -86 -62)">info to</text><text fill="#000000" stroke="none" font-family="Roboto" font-size="13px" font-style="normal" font-weight="normal" text-decoration="undefined" x="328.715087890625" y="650.5" text-anchor="middle" dominant-baseline="central" transform="matrix(1 0 0 1 -86 -62)">customer'</text></g></g><g><path fill="none" stroke="#000000" paint-order="fill stroke markers" d=" M 242 432 L 242 458" stroke-miterlimit="10" stroke-dasharray=""/></g><g><path fill="#000000" stroke="none" paint-order="stroke fill markers" d=" M 237.790482243984 447.83732514237585 L 242 458 L 246.209517756016 447.83732514237585"/></g><g><path fill="none" stroke="#000000" paint-order="fill stroke markers" d=" M 237.790482243984 447.83732514237585 L 242 458 L 246.209517756016 447.83732514237585 L 237.790482243984 447.83732514237585" stroke-miterlimit="10" stroke-dasharray=""/></g><g><path fill="#C0C0C0" stroke="none" paint-order="stroke fill markers" d=" M 59 545 L 120.43017578125 545 Q 130.43017578125 545 130.43017578125 555 L 130.43017578125 597 Q 130.43017578125 607 120.43017578125 607 L 59 607 Q 49 607 49 597 L 49 555 Q 49 545 59 545 Z" fill-opacity="0.2"/></g><g><path fill="#ffffff" stroke="none" paint-order="stroke fill markers" d=" M 52 538 L 113.43017578125 538 Q 123.43017578125 538 123.43017578125 548 L 123.43017578125 590 Q 123.43017578125 600 113.43017578125 600 L 52 600 Q 42 600 42 590 L 42 548 Q 42 538 52 538 Z"/></g><g><path fill="none" stroke="#000000" paint-order="fill stroke markers" d=" M 52 538 L 113.43017578125 538 Q 123.43017578125 538 123.43017578125 548 L 123.43017578125 590 Q 123.43017578125 600 113.43017578125 600 L 52 600 Q 42 600 42 590 L 42 548 Q 42 538 52 538 Z" stroke-miterlimit="10" stroke-dasharray=""/></g><g><g><path fill="none" stroke="none"/><text fill="#000000" stroke="none" font-family="Roboto" font-size="13px" font-style="normal" font-weight="normal" text-decoration="undefined" x="168.715087890625" y="611.5" text-anchor="middle" dominant-baseline="central" transform="matrix(1 0 0 1 -86 -62)">get</text><text fill="#000000" stroke="none" font-family="Roboto" font-size="13px" font-style="normal" font-weight="normal" text-decoration="undefined" x="168.715087890625" y="624.5" text-anchor="middle" dominant-baseline="central" transform="matrix(1 0 0 1 -86 -62)">ambulance</text><text fill="#000000" stroke="none" font-family="Roboto" font-size="13px" font-style="normal" font-weight="normal" text-decoration="undefined" x="168.715087890625" y="637.5" text-anchor="middle" dominant-baseline="central" transform="matrix(1 0 0 1 -86 -62)">availability</text><text fill="#000000" stroke="none" font-family="Roboto" font-size="13px" font-style="normal" font-weight="normal" text-decoration="undefined" x="168.715087890625" y="650.5" text-anchor="middle" dominant-baseline="central" transform="matrix(1 0 0 1 -86 -62)">information</text></g></g><g><path fill="none" stroke="#000000" paint-order="fill stroke markers" d=" M 202 569 L 123 569" stroke-miterlimit="10" stroke-dasharray="6,4"/></g><g><path fill="#FFFFFF" stroke="none" paint-order="stroke fill markers" d=" M 133.16267485762415 564.790482243984 L 123 569 L 133.16267485762415 573.209517756016"/></g><g><path fill="none" stroke="#000000" paint-order="fill stroke markers" d=" M 133.16267485762415 564.790482243984 L 123 569 L 133.16267485762415 573.209517756016 L 133.16267485762415 564.790482243984" stroke-miterlimit="10" stroke-dasharray=""/></g><g><path fill="#FFFFFF" stroke="none" paint-order="stroke fill markers" d=" M 196 569 C 196 567.3431456 197.3431456 566 199 566 C 200.6568544 566 202 567.3431456 202 569 C 202 570.6568544 200.6568544 572 199 572 C 197.3431456 572 196 570.6568544 196 569 Z"/></g><g><path fill="none" stroke="#000000" paint-order="fill stroke markers" d=" M 196 569 C 196 567.3431456 197.3431456 566 199 566 C 200.6568544 566 202 567.3431456 202 569 C 202 570.6568544 200.6568544 572 199 572 C 197.3431456 572 196 570.6568544 196 569 Z" stroke-miterlimit="10" stroke-dasharray=""/></g><g><path fill="#C0C0C0" stroke="none" paint-order="stroke fill markers" d=" M 219 641 L 280.43017578125 641 Q 290.43017578125 641 290.43017578125 651 L 290.43017578125 703 Q 290.43017578125 713 280.43017578125 713 L 219 713 Q 209 713 209 703 L 209 651 Q 209 641 219 641 Z" fill-opacity="0.2"/></g><g><path fill="#ffffff" stroke="none" paint-order="stroke fill markers" d=" M 212 634 L 273.43017578125 634 Q 283.43017578125 634 283.43017578125 644 L 283.43017578125 696 Q 283.43017578125 706 273.43017578125 706 L 212 706 Q 202 706 202 696 L 202 644 Q 202 634 212 634 Z"/></g><g><path fill="none" stroke="#000000" paint-order="fill stroke markers" d=" M 212 634 L 273.43017578125 634 Q 283.43017578125 634 283.43017578125 644 L 283.43017578125 696 Q 283.43017578125 706 273.43017578125 706 L 212 706 Q 202 706 202 696 L 202 644 Q 202 634 212 634 Z" stroke-miterlimit="10" stroke-dasharray=""/></g><g><path fill="none" stroke="#000000" paint-order="fill stroke markers" d=" M 240.1840380010418 700.5640260967534 A 4 4 0 1 1 244.3511410091699 700.2360679774998" stroke-miterlimit="10" stroke-dasharray=""/></g><g><path fill="none" stroke="#000000" paint-order="fill stroke markers" d=" M 241 701 L 237 701" stroke-miterlimit="10" stroke-dasharray=""/></g><g><path fill="none" stroke="#000000" paint-order="fill stroke markers" d=" M 241 701 L 241 697" stroke-miterlimit="10" stroke-dasharray=""/></g><g><g><path fill="none" stroke="none"/><text fill="#000000" stroke="none" font-family="Roboto" font-size="13px" font-style="normal" font-weight="normal" text-decoration="undefined" x="328.715087890625" y="718.5" text-anchor="middle" dominant-baseline="central" transform="matrix(1 0 0 1 -86 -62)">monitoring</text><text fill="#000000" stroke="none" font-family="Roboto" font-size="13px" font-style="normal" font-weight="normal" text-decoration="undefined" x="328.715087890625" y="731.5" text-anchor="middle" dominant-baseline="central" transform="matrix(1 0 0 1 -86 -62)">ambulance</text><text fill="#000000" stroke="none" font-family="Roboto" font-size="13px" font-style="normal" font-weight="normal" text-decoration="undefined" x="328.715087890625" y="744.5" text-anchor="middle" dominant-baseline="central" transform="matrix(1 0 0 1 -86 -62)">activity</text></g></g><g><path fill="none" stroke="#000000" paint-order="fill stroke markers" d=" M 242 600 L 242 634" stroke-miterlimit="10" stroke-dasharray=""/></g><g><path fill="#000000" stroke="none" paint-order="stroke fill markers" d=" M 237.790482243984 623.8373251423759 L 242 634 L 246.209517756016 623.8373251423759"/></g><g><path fill="none" stroke="#000000" paint-order="fill stroke markers" d=" M 237.790482243984 623.8373251423759 L 242 634 L 246.209517756016 623.8373251423759 L 237.790482243984 623.8373251423759" stroke-miterlimit="10" stroke-dasharray=""/></g><g><path fill="none" stroke="#000000" paint-order="fill stroke markers" d=" M 82 259 L 82 538" stroke-miterlimit="10" stroke-dasharray=""/></g><g><path fill="#000000" stroke="none" paint-order="stroke fill markers" d=" M 77.790482243984 527.8373251423759 L 82 538 L 86.209517756016 527.8373251423759"/></g><g><path fill="none" stroke="#000000" paint-order="fill stroke markers" d=" M 77.790482243984 527.8373251423759 L 82 538 L 86.209517756016 527.8373251423759 L 77.790482243984 527.8373251423759" stroke-miterlimit="10" stroke-dasharray=""/></g><g><path fill="#C0C0C0" stroke="none" paint-order="stroke fill markers" d=" M 73 857 C 73 848.1634432 80.16344319999999 841 89 841 C 97.83655680000001 841 105 848.1634432 105 857 C 105 865.8365568 97.83655680000001 873 89 873 C 80.16344319999999 873 73 865.8365568 73 857 Z" fill-opacity="0.2"/></g><g><path fill="#ffffff" stroke="none" paint-order="stroke fill markers" d=" M 66 850 C 66 841.1634432 73.16344319999999 834 82 834 C 90.83655680000001 834 98 841.1634432 98 850 C 98 858.8365568 90.83655680000001 866 82 866 C 73.16344319999999 866 66 858.8365568 66 850 Z"/></g><g><path fill="none" stroke="#000000" paint-order="fill stroke markers" d=" M 66 850 C 66 841.1634432 73.16344319999999 834 82 834 C 90.83655680000001 834 98 841.1634432 98 850 C 98 858.8365568 90.83655680000001 866 82 866 C 73.16344319999999 866 66 858.8365568 66 850 Z" stroke-miterlimit="10" stroke-width="3" stroke-dasharray=""/></g><g><rect fill="#ffffff" stroke="none" x="157.053466796875" y="934.5" width="21.89306640625" height="13" transform="matrix(1 0 0 1 -86 -62)"/></g><g><g><path fill="none" stroke="none"/><text fill="#000000" stroke="none" font-family="Roboto" font-size="13px" font-style="normal" font-weight="normal" text-decoration="undefined" x="168" y="941" text-anchor="middle" dominant-baseline="central" transform="matrix(1 0 0 1 -86 -62)">End</text></g></g><g><path fill="#C0C0C0" stroke="none" paint-order="stroke fill markers" d=" M 59 641 L 120.43017578125 641 Q 130.43017578125 641 130.43017578125 651 L 130.43017578125 680 Q 130.43017578125 690 120.43017578125 690 L 59 690 Q 49 690 49 680 L 49 651 Q 49 641 59 641 Z" fill-opacity="0.2"/></g><g><path fill="#ffffff" stroke="none" paint-order="stroke fill markers" d=" M 52 634 L 113.43017578125 634 Q 123.43017578125 634 123.43017578125 644 L 123.43017578125 673 Q 123.43017578125 683 113.43017578125 683 L 52 683 Q 42 683 42 673 L 42 644 Q 42 634 52 634 Z"/></g><g><path fill="none" stroke="#000000" paint-order="fill stroke markers" d=" M 52 634 L 113.43017578125 634 Q 123.43017578125 634 123.43017578125 644 L 123.43017578125 673 Q 123.43017578125 683 113.43017578125 683 L 52 683 Q 42 683 42 673 L 42 644 Q 42 634 52 634 Z" stroke-miterlimit="10" stroke-dasharray=""/></g><g><g><path fill="none" stroke="none"/><text fill="#000000" stroke="none" font-family="Roboto" font-size="13px" font-style="normal" font-weight="normal" text-decoration="undefined" x="168.715087890625" y="707.5" text-anchor="middle" dominant-baseline="central" transform="matrix(1 0 0 1 -86 -62)">get</text><text fill="#000000" stroke="none" font-family="Roboto" font-size="13px" font-style="normal" font-weight="normal" text-decoration="undefined" x="168.715087890625" y="720.5" text-anchor="middle" dominant-baseline="central" transform="matrix(1 0 0 1 -86 -62)">ambulance</text><text fill="#000000" stroke="none" font-family="Roboto" font-size="13px" font-style="normal" font-weight="normal" text-decoration="undefined" x="168.715087890625" y="733.5" text-anchor="middle" dominant-baseline="central" transform="matrix(1 0 0 1 -86 -62)">service</text></g></g><g><path fill="none" stroke="#000000" paint-order="fill stroke markers" d=" M 82 600 L 82 634" stroke-miterlimit="10" stroke-dasharray=""/></g><g><path fill="#000000" stroke="none" paint-order="stroke fill markers" d=" M 77.790482243984 623.8373251423759 L 82 634 L 86.209517756016 623.8373251423759"/></g><g><path fill="none" stroke="#000000" paint-order="fill stroke markers" d=" M 77.790482243984 623.8373251423759 L 82 634 L 86.209517756016 623.8373251423759 L 77.790482243984 623.8373251423759" stroke-miterlimit="10" stroke-dasharray=""/></g><g><path fill="none" stroke="#000000" paint-order="fill stroke markers" d=" M 82 683 L 82 834" stroke-miterlimit="10" stroke-dasharray=""/></g><g><path fill="#000000" stroke="none" paint-order="stroke fill markers" d=" M 77.790482243984 823.8373251423759 L 82 834 L 86.209517756016 823.8373251423759"/></g><g><path fill="none" stroke="#000000" paint-order="fill stroke markers" d=" M 77.790482243984 823.8373251423759 L 82 834 L 86.209517756016 823.8373251423759 L 77.790482243984 823.8373251423759" stroke-miterlimit="10" stroke-dasharray=""/></g><g><path fill="#C0C0C0" stroke="none" paint-order="stroke fill markers" d=" M 219 465 L 280.43017578125 465 Q 290.43017578125 465 290.43017578125 475 L 290.43017578125 504 Q 290.43017578125 514 280.43017578125 514 L 219 514 Q 209 514 209 504 L 209 475 Q 209 465 219 465 Z" fill-opacity="0.2"/></g><g><path fill="#ffffff" stroke="none" paint-order="stroke fill markers" d=" M 212 458 L 273.43017578125 458 Q 283.43017578125 458 283.43017578125 468 L 283.43017578125 497 Q 283.43017578125 507 273.43017578125 507 L 212 507 Q 202 507 202 497 L 202 468 Q 202 458 212 458 Z"/></g><g><path fill="none" stroke="#000000" paint-order="fill stroke markers" d=" M 212 458 L 273.43017578125 458 Q 283.43017578125 458 283.43017578125 468 L 283.43017578125 497 Q 283.43017578125 507 273.43017578125 507 L 212 507 Q 202 507 202 497 L 202 468 Q 202 458 212 458 Z" stroke-miterlimit="10" stroke-dasharray=""/></g><g><g><path fill="none" stroke="none"/><text fill="#000000" stroke="none" font-family="Roboto" font-size="13px" font-style="normal" font-weight="normal" text-decoration="undefined" x="328.715087890625" y="531.5" text-anchor="middle" dominant-baseline="central" transform="matrix(1 0 0 1 -86 -62)">assign</text><text fill="#000000" stroke="none" font-family="Roboto" font-size="13px" font-style="normal" font-weight="normal" text-decoration="undefined" x="328.715087890625" y="544.5" text-anchor="middle" dominant-baseline="central" transform="matrix(1 0 0 1 -86 -62)">ambulance</text><text fill="#000000" stroke="none" font-family="Roboto" font-size="13px" font-style="normal" font-weight="normal" text-decoration="undefined" x="328.715087890625" y="557.5" text-anchor="middle" dominant-baseline="central" transform="matrix(1 0 0 1 -86 -62)">unit</text></g></g><g><path fill="none" stroke="#000000" paint-order="fill stroke markers" d=" M 242 507 L 242 538" stroke-miterlimit="10" stroke-dasharray=""/></g><g><path fill="#000000" stroke="none" paint-order="stroke fill markers" d=" M 237.790482243984 527.8373251423759 L 242 538 L 246.209517756016 527.8373251423759"/></g><g><path fill="none" stroke="#000000" paint-order="fill stroke markers" d=" M 237.790482243984 527.8373251423759 L 242 538 L 246.209517756016 527.8373251423759 L 237.790482243984 527.8373251423759" stroke-miterlimit="10" stroke-dasharray=""/></g><g><path fill="#C0C0C0" stroke="none" paint-order="stroke fill markers" d=" M 371 465 L 471 465 Q 481 465 481 475 L 481 517 Q 481 527 471 527 L 371 527 Q 361 527 361 517 L 361 475 Q 361 465 371 465 Z" fill-opacity="0.2"/></g><g><path fill="#ffffff" stroke="none" paint-order="stroke fill markers" d=" M 364 458 L 464 458 Q 474 458 474 468 L 474 510 Q 474 520 464 520 L 364 520 Q 354 520 354 510 L 354 468 Q 354 458 364 458 Z"/></g><g><path fill="none" stroke="#000000" paint-order="fill stroke markers" d=" M 364 458 L 464 458 Q 474 458 474 468 L 474 510 Q 474 520 464 520 L 364 520 Q 354 520 354 510 L 354 468 Q 354 458 364 458 Z" stroke-miterlimit="10" stroke-dasharray=""/></g><g><g><path fill="none" stroke="none"/><text fill="#000000" stroke="none" font-family="Roboto" font-size="13px" font-style="normal" font-weight="normal" text-decoration="undefined" x="500" y="531.5" text-anchor="middle" dominant-baseline="central" transform="matrix(1 0 0 1 -86 -62)">send assignment to</text><text fill="#000000" stroke="none" font-family="Roboto" font-size="13px" font-style="normal" font-weight="normal" text-decoration="undefined" x="500" y="544.5" text-anchor="middle" dominant-baseline="central" transform="matrix(1 0 0 1 -86 -62)">ambulance</text><text fill="#000000" stroke="none" font-family="Roboto" font-size="13px" font-style="normal" font-weight="normal" text-decoration="undefined" x="500" y="557.5" text-anchor="middle" dominant-baseline="central" transform="matrix(1 0 0 1 -86 -62)">unit/operator and</text><text fill="#000000" stroke="none" font-family="Roboto" font-size="13px" font-style="normal" font-weight="normal" text-decoration="undefined" x="500" y="570.5" text-anchor="middle" dominant-baseline="central" transform="matrix(1 0 0 1 -86 -62)">get confirmation</text></g></g><g><path fill="none" stroke="#000000" paint-order="fill stroke markers" d=" M 283 487 L 354 487" stroke-miterlimit="10" stroke-dasharray="6,4"/></g><g><path fill="#FFFFFF" stroke="none" paint-order="stroke fill markers" d=" M 343.83732514237585 491.209517756016 L 354 487 L 343.83732514237585 482.790482243984"/></g><g><path fill="none" stroke="#000000" paint-order="fill stroke markers" d=" M 343.83732514237585 491.209517756016 L 354 487 L 343.83732514237585 482.790482243984 L 343.83732514237585 491.209517756016" stroke-miterlimit="10" stroke-dasharray=""/></g><g><path fill="#FFFFFF" stroke="none" paint-order="stroke fill markers" d=" M 283 487 C 283 485.34314559999996 284.3431456 484 286 484 C 287.6568544 484 289 485.34314559999996 289 487 C 289 488.65685440000004 287.6568544 490 286 490 C 284.3431456 490 283 488.65685440000004 283 487 Z"/></g><g><path fill="none" stroke="#000000" paint-order="fill stroke markers" d=" M 283 487 C 283 485.34314559999996 284.3431456 484 286 484 C 287.6568544 484 289 485.34314559999996 289 487 C 289 488.65685440000004 287.6568544 490 286 490 C 284.3431456 490 283 488.65685440000004 283 487 Z" stroke-miterlimit="10" stroke-dasharray=""/></g><g><path fill="none" stroke="#000000" paint-order="fill stroke markers" d=" M 418 520 L 418 562 L 418 562 A 8 8 0 0 1 410 570 L 283 570" stroke-miterlimit="10" stroke-dasharray="6,4"/></g><g><path fill="#FFFFFF" stroke="none" paint-order="stroke fill markers" d=" M 293.16267485762415 565.790482243984 L 283 570 L 293.16267485762415 574.209517756016"/></g><g><path fill="none" stroke="#000000" paint-order="fill stroke markers" d=" M 293.16267485762415 565.790482243984 L 283 570 L 293.16267485762415 574.209517756016 L 293.16267485762415 565.790482243984" stroke-miterlimit="10" stroke-dasharray=""/></g><g><path fill="#FFFFFF" stroke="none" paint-order="stroke fill markers" d=" M 415 523 C 415 521.3431456 416.3431456 520 418 520 C 419.6568544 520 421 521.3431456 421 523 C 421 524.6568544 419.6568544 526 418 526 C 416.3431456 526 415 524.6568544 415 523 Z"/></g><g><path fill="none" stroke="#000000" paint-order="fill stroke markers" d=" M 415 523 C 415 521.3431456 416.3431456 520 418 520 C 419.6568544 520 421 521.3431456 421 523 C 421 524.6568544 419.6568544 526 418 526 C 416.3431456 526 415 524.6568544 415 523 Z" stroke-miterlimit="10" stroke-dasharray=""/></g><g><path fill="#C0C0C0" stroke="none" paint-order="stroke fill markers" d=" M 233 153 C 233 144.1634432 240.16344320000002 137 249 137 C 257.8365568 137 265 144.1634432 265 153 C 265 161.8365568 257.8365568 169 249 169 C 240.16344320000002 169 233 161.8365568 233 153 Z" fill-opacity="0.2"/></g><g><path fill="#ffffff" stroke="none" paint-order="stroke fill markers" d=" M 226 146 C 226 137.1634432 233.16344320000002 130 242 130 C 250.83655679999998 130 258 137.1634432 258 146 C 258 154.8365568 250.83655679999998 162 242 162 C 233.16344320000002 162 226 154.8365568 226 146 Z"/></g><g><path fill="none" stroke="#000000" paint-order="fill stroke markers" d=" M 226 146 C 226 137.1634432 233.16344320000002 130 242 130 C 250.83655679999998 130 258 137.1634432 258 146 C 258 154.8365568 250.83655679999998 162 242 162 C 233.16344320000002 162 226 154.8365568 226 146 Z" stroke-miterlimit="10" stroke-dasharray=""/></g><g><rect fill="#ffffff" stroke="none" x="298.0517578125" y="151.5" width="59.896484375" height="39" transform="matrix(1 0 0 1 -86 -62)"/></g><g><g><path fill="none" stroke="none"/><text fill="#000000" stroke="none" font-family="Roboto" font-size="13px" font-style="normal" font-weight="normal" text-decoration="undefined" x="328" y="158" text-anchor="middle" dominant-baseline="central" transform="matrix(1 0 0 1 -86 -62)">Start</text><text fill="#000000" stroke="none" font-family="Roboto" font-size="13px" font-style="normal" font-weight="normal" text-decoration="undefined" x="328" y="171" text-anchor="middle" dominant-baseline="central" transform="matrix(1 0 0 1 -86 -62)">CallCenter</text><text fill="#000000" stroke="none" font-family="Roboto" font-size="13px" font-style="normal" font-weight="normal" text-decoration="undefined" x="328" y="184" text-anchor="middle" dominant-baseline="central" transform="matrix(1 0 0 1 -86 -62)">Activity</text></g></g><g><path fill="none" stroke="#000000" paint-order="fill stroke markers" d=" M 242 162 L 242 210" stroke-miterlimit="10" stroke-dasharray=""/></g><g><path fill="#000000" stroke="none" paint-order="stroke fill markers" d=" M 237.790482243984 199.83732514237585 L 242 210 L 246.209517756016 199.83732514237585"/></g><g><path fill="none" stroke="#000000" paint-order="fill stroke markers" d=" M 237.790482243984 199.83732514237585 L 242 210 L 246.209517756016 199.83732514237585 L 237.790482243984 199.83732514237585" stroke-miterlimit="10" stroke-dasharray=""/></g><g><path fill="#C0C0C0" stroke="none" paint-order="stroke fill markers" d=" M 233 857 C 233 848.1634432 240.16344320000002 841 249 841 C 257.8365568 841 265 848.1634432 265 857 C 265 865.8365568 257.8365568 873 249 873 C 240.16344320000002 873 233 865.8365568 233 857 Z" fill-opacity="0.2"/></g><g><path fill="#ffffff" stroke="none" paint-order="stroke fill markers" d=" M 226 850 C 226 841.1634432 233.16344320000002 834 242 834 C 250.83655679999998 834 258 841.1634432 258 850 C 258 858.8365568 250.83655679999998 866 242 866 C 233.16344320000002 866 226 858.8365568 226 850 Z"/></g><g><path fill="none" stroke="#000000" paint-order="fill stroke markers" d=" M 226 850 C 226 841.1634432 233.16344320000002 834 242 834 C 250.83655679999998 834 258 841.1634432 258 850 C 258 858.8365568 250.83655679999998 866 242 866 C 233.16344320000002 866 226 858.8365568 226 850 Z" stroke-miterlimit="10" stroke-width="3" stroke-dasharray=""/></g><g><rect fill="#ffffff" stroke="none" x="298.0517578125" y="934.5" width="59.896484375" height="39" transform="matrix(1 0 0 1 -86 -62)"/></g><g><g><path fill="none" stroke="none"/><text fill="#000000" stroke="none" font-family="Roboto" font-size="13px" font-style="normal" font-weight="normal" text-decoration="undefined" x="328" y="941" text-anchor="middle" dominant-baseline="central" transform="matrix(1 0 0 1 -86 -62)">End</text><text fill="#000000" stroke="none" font-family="Roboto" font-size="13px" font-style="normal" font-weight="normal" text-decoration="undefined" x="328" y="954" text-anchor="middle" dominant-baseline="central" transform="matrix(1 0 0 1 -86 -62)">CallCenter</text><text fill="#000000" stroke="none" font-family="Roboto" font-size="13px" font-style="normal" font-weight="normal" text-decoration="undefined" x="328" y="967" text-anchor="middle" dominant-baseline="central" transform="matrix(1 0 0 1 -86 -62)">Activity</text></g></g><g><path fill="none" stroke="#000000" paint-order="fill stroke markers" d=" M 242 706 L 242 746" stroke-miterlimit="10" stroke-dasharray=""/></g><g><path fill="#000000" stroke="none" paint-order="stroke fill markers" d=" M 237.790482243984 735.8373251423759 L 242 746 L 246.209517756016 735.8373251423759"/></g><g><path fill="none" stroke="#000000" paint-order="fill stroke markers" d=" M 237.790482243984 735.8373251423759 L 242 746 L 246.209517756016 735.8373251423759 L 237.790482243984 735.8373251423759" stroke-miterlimit="10" stroke-dasharray=""/></g><g><path fill="#C0C0C0" stroke="none" paint-order="stroke fill markers" d=" M 395 649 L 456.43017578125 649 Q 466.43017578125 649 466.43017578125 659 L 466.43017578125 714 Q 466.43017578125 724 456.43017578125 724 L 395 724 Q 385 724 385 714 L 385 659 Q 385 649 395 649 Z" fill-opacity="0.2"/></g><g><path fill="#ffffff" stroke="none" paint-order="stroke fill markers" d=" M 388 642 L 449.43017578125 642 Q 459.43017578125 642 459.43017578125 652 L 459.43017578125 707 Q 459.43017578125 717 449.43017578125 717 L 388 717 Q 378 717 378 707 L 378 652 Q 378 642 388 642 Z"/></g><g><path fill="none" stroke="#000000" paint-order="fill stroke markers" d=" M 388 642 L 449.43017578125 642 Q 459.43017578125 642 459.43017578125 652 L 459.43017578125 707 Q 459.43017578125 717 449.43017578125 717 L 388 717 Q 378 717 378 707 L 378 652 Q 378 642 388 642 Z" stroke-miterlimit="10" stroke-dasharray=""/></g><g><g><path fill="none" stroke="none"/><text fill="#000000" stroke="none" font-family="Roboto" font-size="13px" font-style="normal" font-weight="normal" text-decoration="undefined" x="504.715087890625" y="715.5" text-anchor="middle" dominant-baseline="central" transform="matrix(1 0 0 1 -86 -62)">get status</text><text fill="#000000" stroke="none" font-family="Roboto" font-size="13px" font-style="normal" font-weight="normal" text-decoration="undefined" x="504.715087890625" y="728.5" text-anchor="middle" dominant-baseline="central" transform="matrix(1 0 0 1 -86 -62)">activities</text><text fill="#000000" stroke="none" font-family="Roboto" font-size="13px" font-style="normal" font-weight="normal" text-decoration="undefined" x="504.715087890625" y="741.5" text-anchor="middle" dominant-baseline="central" transform="matrix(1 0 0 1 -86 -62)">from</text><text fill="#000000" stroke="none" font-family="Roboto" font-size="13px" font-style="normal" font-weight="normal" text-decoration="undefined" x="504.715087890625" y="754.5" text-anchor="middle" dominant-baseline="central" transform="matrix(1 0 0 1 -86 -62)">ambulance</text><text fill="#000000" stroke="none" font-family="Roboto" font-size="13px" font-style="normal" font-weight="normal" text-decoration="undefined" x="504.715087890625" y="767.5" text-anchor="middle" dominant-baseline="central" transform="matrix(1 0 0 1 -86 -62)">driver</text></g></g><g><path fill="none" stroke="#000000" paint-order="fill stroke markers" d=" M 283 666 L 378 666" stroke-miterlimit="10" stroke-dasharray="6,4"/></g><g><path fill="#FFFFFF" stroke="none" paint-order="stroke fill markers" d=" M 367.83732514237585 670.209517756016 L 378 666 L 367.83732514237585 661.790482243984"/></g><g><path fill="none" stroke="#000000" paint-order="fill stroke markers" d=" M 367.83732514237585 670.209517756016 L 378 666 L 367.83732514237585 661.790482243984 L 367.83732514237585 670.209517756016" stroke-miterlimit="10" stroke-dasharray=""/></g><g><path fill="#FFFFFF" stroke="none" paint-order="stroke fill markers" d=" M 283 666 C 283 664.3431456 284.3431456 663 286 663 C 287.6568544 663 289 664.3431456 289 666 C 289 667.6568544 287.6568544 669 286 669 C 284.3431456 669 283 667.6568544 283 666 Z"/></g><g><path fill="none" stroke="#000000" paint-order="fill stroke markers" d=" M 283 666 C 283 664.3431456 284.3431456 663 286 663 C 287.6568544 663 289 664.3431456 289 666 C 289 667.6568544 287.6568544 669 286 669 C 284.3431456 669 283 667.6568544 283 666 Z" stroke-miterlimit="10" stroke-dasharray=""/></g><g><path fill="none" stroke="#000000" paint-order="fill stroke markers" d=" M 378 682 L 283 682" stroke-miterlimit="10" stroke-dasharray="6,4"/></g><g><path fill="#FFFFFF" stroke="none" paint-order="stroke fill markers" d=" M 293.16267485762415 677.790482243984 L 283 682 L 293.16267485762415 686.209517756016"/></g><g><path fill="none" stroke="#000000" paint-order="fill stroke markers" d=" M 293.16267485762415 677.790482243984 L 283 682 L 293.16267485762415 686.209517756016 L 293.16267485762415 677.790482243984" stroke-miterlimit="10" stroke-dasharray=""/></g><g><path fill="#FFFFFF" stroke="none" paint-order="stroke fill markers" d=" M 372 682 C 372 680.3431456 373.3431456 679 375 679 C 376.6568544 679 378 680.3431456 378 682 C 378 683.6568544 376.6568544 685 375 685 C 373.3431456 685 372 683.6568544 372 682 Z"/></g><g><path fill="none" stroke="#000000" paint-order="fill stroke markers" d=" M 372 682 C 372 680.3431456 373.3431456 679 375 679 C 376.6568544 679 378 680.3431456 378 682 C 378 683.6568544 376.6568544 685 375 685 C 373.3431456 685 372 683.6568544 372 682 Z" stroke-miterlimit="10" stroke-dasharray=""/></g><g><path fill="none" stroke="#000000" paint-order="fill stroke markers" d=" M 123 667 L 202 667" stroke-miterlimit="10" stroke-dasharray="6,4"/></g><g><path fill="#FFFFFF" stroke="none" paint-order="stroke fill markers" d=" M 191.83732514237585 671.209517756016 L 202 667 L 191.83732514237585 662.790482243984"/></g><g><path fill="none" stroke="#000000" paint-order="fill stroke markers" d=" M 191.83732514237585 671.209517756016 L 202 667 L 191.83732514237585 662.790482243984 L 191.83732514237585 671.209517756016" stroke-miterlimit="10" stroke-dasharray=""/></g><g><path fill="#FFFFFF" stroke="none" paint-order="stroke fill markers" d=" M 123 667 C 123 665.3431456 124.34314560000001 664 126 664 C 127.65685439999999 664 129 665.3431456 129 667 C 129 668.6568544 127.65685439999999 670 126 670 C 124.34314560000001 670 123 668.6568544 123 667 Z"/></g><g><path fill="none" stroke="#000000" paint-order="fill stroke markers" d=" M 123 667 C 123 665.3431456 124.34314560000001 664 126 664 C 127.65685439999999 664 129 665.3431456 129 667 C 129 668.6568544 127.65685439999999 670 126 670 C 124.34314560000001 670 123 668.6568544 123 667 Z" stroke-miterlimit="10" stroke-dasharray=""/></g><g><path fill="#C0C0C0" stroke="none" paint-order="stroke fill markers" d=" M 219 753 L 280.43017578125 753 Q 290.43017578125 753 290.43017578125 763 L 290.43017578125 805 Q 290.43017578125 815 280.43017578125 815 L 219 815 Q 209 815 209 805 L 209 763 Q 209 753 219 753 Z" fill-opacity="0.2"/></g><g><path fill="#ffffff" stroke="none" paint-order="stroke fill markers" d=" M 212 746 L 273.43017578125 746 Q 283.43017578125 746 283.43017578125 756 L 283.43017578125 798 Q 283.43017578125 808 273.43017578125 808 L 212 808 Q 202 808 202 798 L 202 756 Q 202 746 212 746 Z"/></g><g><path fill="none" stroke="#000000" paint-order="fill stroke markers" d=" M 212 746 L 273.43017578125 746 Q 283.43017578125 746 283.43017578125 756 L 283.43017578125 798 Q 283.43017578125 808 273.43017578125 808 L 212 808 Q 202 808 202 798 L 202 756 Q 202 746 212 746 Z" stroke-miterlimit="10" stroke-dasharray=""/></g><g><g><path fill="none" stroke="none"/><text fill="#000000" stroke="none" font-family="Roboto" font-size="13px" font-style="normal" font-weight="normal" text-decoration="undefined" x="328.715087890625" y="819.5" text-anchor="middle" dominant-baseline="central" transform="matrix(1 0 0 1 -86 -62)">end</text><text fill="#000000" stroke="none" font-family="Roboto" font-size="13px" font-style="normal" font-weight="normal" text-decoration="undefined" x="328.715087890625" y="832.5" text-anchor="middle" dominant-baseline="central" transform="matrix(1 0 0 1 -86 -62)">ambulance</text><text fill="#000000" stroke="none" font-family="Roboto" font-size="13px" font-style="normal" font-weight="normal" text-decoration="undefined" x="328.715087890625" y="845.5" text-anchor="middle" dominant-baseline="central" transform="matrix(1 0 0 1 -86 -62)">activity and</text><text fill="#000000" stroke="none" font-family="Roboto" font-size="13px" font-style="normal" font-weight="normal" text-decoration="undefined" x="328.715087890625" y="858.5" text-anchor="middle" dominant-baseline="central" transform="matrix(1 0 0 1 -86 -62)">close ticket</text></g></g><g><path fill="none" stroke="#000000" paint-order="fill stroke markers" d=" M 242 808 L 242 834" stroke-miterlimit="10" stroke-dasharray=""/></g><g><path fill="#000000" stroke="none" paint-order="stroke fill markers" d=" M 237.790482243984 823.8373251423759 L 242 834 L 246.209517756016 823.8373251423759"/></g><g><path fill="none" stroke="#000000" paint-order="fill stroke markers" d=" M 237.790482243984 823.8373251423759 L 242 834 L 246.209517756016 823.8373251423759 L 237.790482243984 823.8373251423759" stroke-miterlimit="10" stroke-dasharray=""/></g></g></svg>