<svg version="1.1" xmlns="http://www.w3.org/2000/svg" xmlns:xlink="http://www.w3.org/1999/xlink" width="332" height="564"><defs/><g><g><path fill="none" stroke="#000000" paint-order="fill stroke markers" d=" M 10 10 L 162 10 L 162 554 L 10 554 L 10 10 Z Z" stroke-miterlimit="10" stroke-dasharray=""/></g><g><path fill="none" stroke="#000000" paint-order="fill stroke markers" d=" M 10 33 L 162 33" stroke-miterlimit="10" stroke-dasharray=""/></g><g><g><path fill="none" stroke="none"/><text fill="#000000" stroke="none" font-family="Roboto" font-size="13px" font-style="normal" font-weight="normal" text-decoration="undefined" x="300" y="93" text-anchor="middle" dominant-baseline="text-before-edge" transform="matrix(1 0 0 1 -214 -78)">driver</text></g></g><g><path fill="none" stroke="#000000" paint-order="fill stroke markers" d=" M 170 10 L 322 10 L 322 554 L 170 554 L 170 10 Z Z" stroke-miterlimit="10" stroke-dasharray=""/></g><g><path fill="none" stroke="#000000" paint-order="fill stroke markers" d=" M 170 33 L 322 33" stroke-miterlimit="10" stroke-dasharray=""/></g><g><g><path fill="none" stroke="none"/><text fill="#000000" stroke="none" font-family="Roboto" font-size="13px" font-style="normal" font-weight="normal" text-decoration="undefined" x="460" y="93" text-anchor="middle" dominant-baseline="text-before-edge" transform="matrix(1 0 0 1 -214 -78)">backend</text></g></g><g><path fill="#C0C0C0" stroke="none" paint-order="stroke fill markers" d=" M 219 145 L 280.43017578125 145 Q 290.43017578125 145 290.43017578125 155 L 290.43017578125 197 Q 290.43017578125 207 280.43017578125 207 L 219 207 Q 209 207 209 197 L 209 155 Q 209 145 219 145 Z" fill-opacity="0.2"/></g><g><path fill="#ffffff" stroke="none" paint-order="stroke fill markers" d=" M 212 138 L 273.43017578125 138 Q 283.43017578125 138 283.43017578125 148 L 283.43017578125 190 Q 283.43017578125 200 273.43017578125 200 L 212 200 Q 202 200 202 190 L 202 148 Q 202 138 212 138 Z"/></g><g><path fill="none" stroke="#000000" paint-order="fill stroke markers" d=" M 212 138 L 273.43017578125 138 Q 283.43017578125 138 283.43017578125 148 L 283.43017578125 190 Q 283.43017578125 200 273.43017578125 200 L 212 200 Q 202 200 202 190 L 202 148 Q 202 138 212 138 Z" stroke-miterlimit="10" stroke-dasharray=""/></g><g><g><path fill="none" stroke="none"/><text fill="#000000" stroke="none" font-family="Roboto" font-size="13px" font-style="normal" font-weight="normal" text-decoration="undefined" x="456.715087890625" y="227.5" text-anchor="middle" dominant-baseline="central" transform="matrix(1 0 0 1 -214 -78)">assignment</text><text fill="#000000" stroke="none" font-family="Roboto" font-size="13px" font-style="normal" font-weight="normal" text-decoration="undefined" x="456.715087890625" y="240.5" text-anchor="middle" dominant-baseline="central" transform="matrix(1 0 0 1 -214 -78)">from</text><text fill="#000000" stroke="none" font-family="Roboto" font-size="13px" font-style="normal" font-weight="normal" text-decoration="undefined" x="456.715087890625" y="253.5" text-anchor="middle" dominant-baseline="central" transform="matrix(1 0 0 1 -214 -78)">ambulance</text><text fill="#000000" stroke="none" font-family="Roboto" font-size="13px" font-style="normal" font-weight="normal" text-decoration="undefined" x="456.715087890625" y="266.5" text-anchor="middle" dominant-baseline="central" transform="matrix(1 0 0 1 -214 -78)">operator</text></g></g><g><path fill="#C0C0C0" stroke="none" paint-order="stroke fill markers" d=" M 67 161 L 128.43017578125 161 Q 138.43017578125 161 138.43017578125 171 L 138.43017578125 187 Q 138.43017578125 197 128.43017578125 197 L 67 197 Q 57 197 57 187 L 57 171 Q 57 161 67 161 Z" fill-opacity="0.2"/></g><g><path fill="#ffffff" stroke="none" paint-order="stroke fill markers" d=" M 60 154 L 121.43017578125 154 Q 131.43017578125 154 131.43017578125 164 L 131.43017578125 180 Q 131.43017578125 190 121.43017578125 190 L 60 190 Q 50 190 50 180 L 50 164 Q 50 154 60 154 Z"/></g><g><path fill="none" stroke="#000000" paint-order="fill stroke markers" d=" M 60 154 L 121.43017578125 154 Q 131.43017578125 154 131.43017578125 164 L 131.43017578125 180 Q 131.43017578125 190 121.43017578125 190 L 60 190 Q 50 190 50 180 L 50 164 Q 50 154 60 154 Z" stroke-miterlimit="10" stroke-dasharray=""/></g><g><g><path fill="none" stroke="none"/><text fill="#000000" stroke="none" font-family="Roboto" font-size="13px" font-style="normal" font-weight="normal" text-decoration="undefined" x="304.715087890625" y="243.5" text-anchor="middle" dominant-baseline="central" transform="matrix(1 0 0 1 -214 -78)">accepted the</text><text fill="#000000" stroke="none" font-family="Roboto" font-size="13px" font-style="normal" font-weight="normal" text-decoration="undefined" x="304.715087890625" y="256.5" text-anchor="middle" dominant-baseline="central" transform="matrix(1 0 0 1 -214 -78)">assignment</text></g></g><g><path fill="#C0C0C0" stroke="none" paint-order="stroke fill markers" d=" M 81 105 C 81 96.16344319999999 88.16344320000002 89 97 89 C 105.83655679999998 89 113 96.16344319999999 113 105 C 113 113.83655680000001 105.83655679999998 121 97 121 C 88.16344320000002 121 81 113.83655680000001 81 105 Z" fill-opacity="0.2"/></g><g><path fill="#ffffff" stroke="none" paint-order="stroke fill markers" d=" M 74 98 C 74 89.16344319999999 81.16344320000002 82 90 82 C 98.83655679999998 82 106 89.16344319999999 106 98 C 106 106.83655680000001 98.83655679999998 114 90 114 C 81.16344320000002 114 74 106.83655680000001 74 98 Z"/></g><g><path fill="none" stroke="#000000" paint-order="fill stroke markers" d=" M 74 98 C 74 89.16344319999999 81.16344320000002 82 90 82 C 98.83655679999998 82 106 89.16344319999999 106 98 C 106 106.83655680000001 98.83655679999998 114 90 114 C 81.16344320000002 114 74 106.83655680000001 74 98 Z" stroke-miterlimit="10" stroke-dasharray=""/></g><g><rect fill="#ffffff" stroke="none" x="271.287353515625" y="119.5" width="65.42529296875" height="39" transform="matrix(1 0 0 1 -214 -78)"/></g><g><g><path fill="none" stroke="none"/><text fill="#000000" stroke="none" font-family="Roboto" font-size="13px" font-style="normal" font-weight="normal" text-decoration="undefined" x="304" y="126" text-anchor="middle" dominant-baseline="central" transform="matrix(1 0 0 1 -214 -78)">Start</text><text fill="#000000" stroke="none" font-family="Roboto" font-size="13px" font-style="normal" font-weight="normal" text-decoration="undefined" x="304" y="139" text-anchor="middle" dominant-baseline="central" transform="matrix(1 0 0 1 -214 -78)">Ambulance</text><text fill="#000000" stroke="none" font-family="Roboto" font-size="13px" font-style="normal" font-weight="normal" text-decoration="undefined" x="304" y="152" text-anchor="middle" dominant-baseline="central" transform="matrix(1 0 0 1 -214 -78)">Service</text></g></g><g><path fill="none" stroke="#000000" paint-order="fill stroke markers" d=" M 90 114 L 90 154" stroke-miterlimit="10" stroke-dasharray=""/></g><g><path fill="#000000" stroke="none" paint-order="stroke fill markers" d=" M 85.790482243984 143.83732514237585 L 90 154 L 94.209517756016 143.83732514237585"/></g><g><path fill="none" stroke="#000000" paint-order="fill stroke markers" d=" M 85.790482243984 143.83732514237585 L 90 154 L 94.209517756016 143.83732514237585 L 85.790482243984 143.83732514237585" stroke-miterlimit="10" stroke-dasharray=""/></g><g><path fill="none" stroke="#000000" paint-order="fill stroke markers" d=" M 202 176 L 131 176" stroke-miterlimit="10" stroke-dasharray="6,4"/></g><g><path fill="#FFFFFF" stroke="none" paint-order="stroke fill markers" d=" M 141.16267485762415 171.790482243984 L 131 176 L 141.16267485762415 180.209517756016"/></g><g><path fill="none" stroke="#000000" paint-order="fill stroke markers" d=" M 141.16267485762415 171.790482243984 L 131 176 L 141.16267485762415 180.209517756016 L 141.16267485762415 171.790482243984" stroke-miterlimit="10" stroke-dasharray=""/></g><g><path fill="#FFFFFF" stroke="none" paint-order="stroke fill markers" d=" M 196 176 C 196 174.3431456 197.3431456 173 199 173 C 200.6568544 173 202 174.3431456 202 176 C 202 177.6568544 200.6568544 179 199 179 C 197.3431456 179 196 177.6568544 196 176 Z"/></g><g><path fill="none" stroke="#000000" paint-order="fill stroke markers" d=" M 196 176 C 196 174.3431456 197.3431456 173 199 173 C 200.6568544 173 202 174.3431456 202 176 C 202 177.6568544 200.6568544 179 199 179 C 197.3431456 179 196 177.6568544 196 176 Z" stroke-miterlimit="10" stroke-dasharray=""/></g><g><path fill="#C0C0C0" stroke="none" paint-order="stroke fill markers" d=" M 219 249 L 280.43017578125 249 Q 290.43017578125 249 290.43017578125 259 L 290.43017578125 295 Q 290.43017578125 305 280.43017578125 305 L 219 305 Q 209 305 209 295 L 209 259 Q 209 249 219 249 Z" fill-opacity="0.2"/></g><g><path fill="#ffffff" stroke="none" paint-order="stroke fill markers" d=" M 212 242 L 273.43017578125 242 Q 283.43017578125 242 283.43017578125 252 L 283.43017578125 288 Q 283.43017578125 298 273.43017578125 298 L 212 298 Q 202 298 202 288 L 202 252 Q 202 242 212 242 Z"/></g><g><path fill="none" stroke="#000000" paint-order="fill stroke markers" d=" M 212 242 L 273.43017578125 242 Q 283.43017578125 242 283.43017578125 252 L 283.43017578125 288 Q 283.43017578125 298 273.43017578125 298 L 212 298 Q 202 298 202 288 L 202 252 Q 202 242 212 242 Z" stroke-miterlimit="10" stroke-dasharray=""/></g><g><g><path fill="none" stroke="none"/><text fill="#000000" stroke="none" font-family="Roboto" font-size="13px" font-style="normal" font-weight="normal" text-decoration="undefined" x="456.715087890625" y="334.5" text-anchor="middle" dominant-baseline="central" transform="matrix(1 0 0 1 -214 -78)">monitoring</text><text fill="#000000" stroke="none" font-family="Roboto" font-size="13px" font-style="normal" font-weight="normal" text-decoration="undefined" x="456.715087890625" y="347.5" text-anchor="middle" dominant-baseline="central" transform="matrix(1 0 0 1 -214 -78)">ambulance</text><text fill="#000000" stroke="none" font-family="Roboto" font-size="13px" font-style="normal" font-weight="normal" text-decoration="undefined" x="456.715087890625" y="360.5" text-anchor="middle" dominant-baseline="central" transform="matrix(1 0 0 1 -214 -78)">activity</text></g></g><g><path fill="none" stroke="#000000" paint-order="fill stroke markers" d=" M 242 200 L 242 242" stroke-miterlimit="10" stroke-dasharray=""/></g><g><path fill="#000000" stroke="none" paint-order="stroke fill markers" d=" M 237.790482243984 231.83732514237585 L 242 242 L 246.209517756016 231.83732514237585"/></g><g><path fill="none" stroke="#000000" paint-order="fill stroke markers" d=" M 237.790482243984 231.83732514237585 L 242 242 L 246.209517756016 231.83732514237585 L 237.790482243984 231.83732514237585" stroke-miterlimit="10" stroke-dasharray=""/></g><g><path fill="#C0C0C0" stroke="none" paint-order="stroke fill markers" d=" M 67 257 L 128.43017578125 257 Q 138.43017578125 257 138.43017578125 267 L 138.43017578125 303 Q 138.43017578125 313 128.43017578125 313 L 67 313 Q 57 313 57 303 L 57 267 Q 57 257 67 257 Z" fill-opacity="0.2"/></g><g><path fill="#ffffff" stroke="none" paint-order="stroke fill markers" d=" M 60 250 L 121.43017578125 250 Q 131.43017578125 250 131.43017578125 260 L 131.43017578125 296 Q 131.43017578125 306 121.43017578125 306 L 60 306 Q 50 306 50 296 L 50 260 Q 50 250 60 250 Z"/></g><g><path fill="none" stroke="#000000" paint-order="fill stroke markers" d=" M 60 250 L 121.43017578125 250 Q 131.43017578125 250 131.43017578125 260 L 131.43017578125 296 Q 131.43017578125 306 121.43017578125 306 L 60 306 Q 50 306 50 296 L 50 260 Q 50 250 60 250 Z" stroke-miterlimit="10" stroke-dasharray=""/></g><g><path fill="none" stroke="#000000" paint-order="fill stroke markers" d=" M 88.18403800104181 300.5640260967535 A 4 4 0 1 1 92.35114100916991 300.2360679774998" stroke-miterlimit="10" stroke-dasharray=""/></g><g><path fill="none" stroke="#000000" paint-order="fill stroke markers" d=" M 89 301 L 85 301" stroke-miterlimit="10" stroke-dasharray=""/></g><g><path fill="none" stroke="#000000" paint-order="fill stroke markers" d=" M 89 301 L 89 297" stroke-miterlimit="10" stroke-dasharray=""/></g><g><g><path fill="none" stroke="none"/><text fill="#000000" stroke="none" font-family="Roboto" font-size="13px" font-style="normal" font-weight="normal" text-decoration="undefined" x="304.715087890625" y="349.5" text-anchor="middle" dominant-baseline="central" transform="matrix(1 0 0 1 -214 -78)">update</text><text fill="#000000" stroke="none" font-family="Roboto" font-size="13px" font-style="normal" font-weight="normal" text-decoration="undefined" x="304.715087890625" y="362.5" text-anchor="middle" dominant-baseline="central" transform="matrix(1 0 0 1 -214 -78)">location</text></g></g><g><path fill="none" stroke="#000000" paint-order="fill stroke markers" d=" M 90 190 L 90 250" stroke-miterlimit="10" stroke-dasharray=""/></g><g><path fill="#000000" stroke="none" paint-order="stroke fill markers" d=" M 85.790482243984 239.83732514237585 L 90 250 L 94.209517756016 239.83732514237585"/></g><g><path fill="none" stroke="#000000" paint-order="fill stroke markers" d=" M 85.790482243984 239.83732514237585 L 90 250 L 94.209517756016 239.83732514237585 L 85.790482243984 239.83732514237585" stroke-miterlimit="10" stroke-dasharray=""/></g><g><path fill="none" stroke="#000000" paint-order="fill stroke markers" d=" M 117 190 L 117 210 L 117 210 A 8 8 0 0 0 125 218 L 210 218 L 210 218 A 8 8 0 0 1 218 226 L 218 242" stroke-miterlimit="10" stroke-dasharray="6,4"/></g><g><path fill="#FFFFFF" stroke="none" paint-order="stroke fill markers" d=" M 213.790482243984 231.83732514237585 L 218 242 L 222.209517756016 231.83732514237585"/></g><g><path fill="none" stroke="#000000" paint-order="fill stroke markers" d=" M 213.790482243984 231.83732514237585 L 218 242 L 222.209517756016 231.83732514237585 L 213.790482243984 231.83732514237585" stroke-miterlimit="10" stroke-dasharray=""/></g><g><path fill="#FFFFFF" stroke="none" paint-order="stroke fill markers" d=" M 114 193 C 114 191.3431456 115.34314560000001 190 117 190 C 118.65685439999999 190 120 191.3431456 120 193 C 120 194.6568544 118.65685439999999 196 117 196 C 115.34314560000001 196 114 194.6568544 114 193 Z"/></g><g><path fill="none" stroke="#000000" paint-order="fill stroke markers" d=" M 114 193 C 114 191.3431456 115.34314560000001 190 117 190 C 118.65685439999999 190 120 191.3431456 120 193 C 120 194.6568544 118.65685439999999 196 117 196 C 115.34314560000001 196 114 194.6568544 114 193 Z" stroke-miterlimit="10" stroke-dasharray=""/></g><g><path fill="none" stroke="#000000" paint-order="fill stroke markers" d=" M 202 266 L 131 266" stroke-miterlimit="10" stroke-dasharray="6,4"/></g><g><path fill="#FFFFFF" stroke="none" paint-order="stroke fill markers" d=" M 141.16267485762415 261.790482243984 L 131 266 L 141.16267485762415 270.209517756016"/></g><g><path fill="none" stroke="#000000" paint-order="fill stroke markers" d=" M 141.16267485762415 261.790482243984 L 131 266 L 141.16267485762415 270.209517756016 L 141.16267485762415 261.790482243984" stroke-miterlimit="10" stroke-dasharray=""/></g><g><path fill="#FFFFFF" stroke="none" paint-order="stroke fill markers" d=" M 196 266 C 196 264.3431456 197.3431456 263 199 263 C 200.6568544 263 202 264.3431456 202 266 C 202 267.6568544 200.6568544 269 199 269 C 197.3431456 269 196 267.6568544 196 266 Z"/></g><g><path fill="none" stroke="#000000" paint-order="fill stroke markers" d=" M 196 266 C 196 264.3431456 197.3431456 263 199 263 C 200.6568544 263 202 264.3431456 202 266 C 202 267.6568544 200.6568544 269 199 269 C 197.3431456 269 196 267.6568544 196 266 Z" stroke-miterlimit="10" stroke-dasharray=""/></g><g><path fill="none" stroke="#000000" paint-order="fill stroke markers" d=" M 131 282 L 202 282" stroke-miterlimit="10" stroke-dasharray="6,4"/></g><g><path fill="#FFFFFF" stroke="none" paint-order="stroke fill markers" d=" M 191.83732514237585 286.209517756016 L 202 282 L 191.83732514237585 277.790482243984"/></g><g><path fill="none" stroke="#000000" paint-order="fill stroke markers" d=" M 191.83732514237585 286.209517756016 L 202 282 L 191.83732514237585 277.790482243984 L 191.83732514237585 286.209517756016" stroke-miterlimit="10" stroke-dasharray=""/></g><g><path fill="#FFFFFF" stroke="none" paint-order="stroke fill markers" d=" M 131 282 C 131 280.3431456 132.3431456 279 134 279 C 135.6568544 279 137 280.3431456 137 282 C 137 283.6568544 135.6568544 285 134 285 C 132.3431456 285 131 283.6568544 131 282 Z"/></g><g><path fill="none" stroke="#000000" paint-order="fill stroke markers" d=" M 131 282 C 131 280.3431456 132.3431456 279 134 279 C 135.6568544 279 137 280.3431456 137 282 C 137 283.6568544 135.6568544 285 134 285 C 132.3431456 285 131 283.6568544 131 282 Z" stroke-miterlimit="10" stroke-dasharray=""/></g><g><path fill="#C0C0C0" stroke="none" paint-order="stroke fill markers" d=" M 67 345 L 128.43017578125 345 Q 138.43017578125 345 138.43017578125 355 L 138.43017578125 384 Q 138.43017578125 394 128.43017578125 394 L 67 394 Q 57 394 57 384 L 57 355 Q 57 345 67 345 Z" fill-opacity="0.2"/></g><g><path fill="#ffffff" stroke="none" paint-order="stroke fill markers" d=" M 60 338 L 121.43017578125 338 Q 131.43017578125 338 131.43017578125 348 L 131.43017578125 377 Q 131.43017578125 387 121.43017578125 387 L 60 387 Q 50 387 50 377 L 50 348 Q 50 338 60 338 Z"/></g><g><path fill="none" stroke="#000000" paint-order="fill stroke markers" d=" M 60 338 L 121.43017578125 338 Q 131.43017578125 338 131.43017578125 348 L 131.43017578125 377 Q 131.43017578125 387 121.43017578125 387 L 60 387 Q 50 387 50 377 L 50 348 Q 50 338 60 338 Z" stroke-miterlimit="10" stroke-dasharray=""/></g><g><g><path fill="none" stroke="none"/><text fill="#000000" stroke="none" font-family="Roboto" font-size="13px" font-style="normal" font-weight="normal" text-decoration="undefined" x="304.715087890625" y="427.5" text-anchor="middle" dominant-baseline="central" transform="matrix(1 0 0 1 -214 -78)">update status</text><text fill="#000000" stroke="none" font-family="Roboto" font-size="13px" font-style="normal" font-weight="normal" text-decoration="undefined" x="304.715087890625" y="440.5" text-anchor="middle" dominant-baseline="central" transform="matrix(1 0 0 1 -214 -78)">ambulance</text><text fill="#000000" stroke="none" font-family="Roboto" font-size="13px" font-style="normal" font-weight="normal" text-decoration="undefined" x="304.715087890625" y="453.5" text-anchor="middle" dominant-baseline="central" transform="matrix(1 0 0 1 -214 -78)">service</text></g></g><g><path fill="none" stroke="#000000" paint-order="fill stroke markers" d=" M 90 306 L 90 338" stroke-miterlimit="10" stroke-dasharray=""/></g><g><path fill="#000000" stroke="none" paint-order="stroke fill markers" d=" M 85.790482243984 327.83732514237585 L 90 338 L 94.209517756016 327.83732514237585"/></g><g><path fill="none" stroke="#000000" paint-order="fill stroke markers" d=" M 85.790482243984 327.83732514237585 L 90 338 L 94.209517756016 327.83732514237585 L 85.790482243984 327.83732514237585" stroke-miterlimit="10" stroke-dasharray=""/></g><g><path fill="#C0C0C0" stroke="none" paint-order="stroke fill markers" d=" M 67 425 L 128.43017578125 425 Q 138.43017578125 425 138.43017578125 435 L 138.43017578125 438 Q 138.43017578125 448 128.43017578125 448 L 67 448 Q 57 448 57 438 L 57 435 Q 57 425 67 425 Z" fill-opacity="0.2"/></g><g><path fill="#ffffff" stroke="none" paint-order="stroke fill markers" d=" M 60 418 L 121.43017578125 418 Q 131.43017578125 418 131.43017578125 428 L 131.43017578125 431 Q 131.43017578125 441 121.43017578125 441 L 60 441 Q 50 441 50 431 L 50 428 Q 50 418 60 418 Z"/></g><g><path fill="none" stroke="#000000" paint-order="fill stroke markers" d=" M 60 418 L 121.43017578125 418 Q 131.43017578125 418 131.43017578125 428 L 131.43017578125 431 Q 131.43017578125 441 121.43017578125 441 L 60 441 Q 50 441 50 431 L 50 428 Q 50 418 60 418 Z" stroke-miterlimit="10" stroke-dasharray=""/></g><g><g><path fill="none" stroke="none"/><text fill="#000000" stroke="none" font-family="Roboto" font-size="13px" font-style="normal" font-weight="normal" text-decoration="undefined" x="304.715087890625" y="507.5" text-anchor="middle" dominant-baseline="central" transform="matrix(1 0 0 1 -214 -78)">end service</text></g></g><g><path fill="none" stroke="#000000" paint-order="fill stroke markers" d=" M 90 387 L 90 418" stroke-miterlimit="10" stroke-dasharray=""/></g><g><path fill="#000000" stroke="none" paint-order="stroke fill markers" d=" M 85.790482243984 407.83732514237585 L 90 418 L 94.209517756016 407.83732514237585"/></g><g><path fill="none" stroke="#000000" paint-order="fill stroke markers" d=" M 85.790482243984 407.83732514237585 L 90 418 L 94.209517756016 407.83732514237585 L 85.790482243984 407.83732514237585" stroke-miterlimit="10" stroke-dasharray=""/></g><g><path fill="#C0C0C0" stroke="none" paint-order="stroke fill markers" d=" M 227 345 L 288.43017578125 345 Q 298.43017578125 345 298.43017578125 355 L 298.43017578125 384 Q 298.43017578125 394 288.43017578125 394 L 227 394 Q 217 394 217 384 L 217 355 Q 217 345 227 345 Z" fill-opacity="0.2"/></g><g><path fill="#ffffff" stroke="none" paint-order="stroke fill markers" d=" M 220 338 L 281.43017578125 338 Q 291.43017578125 338 291.43017578125 348 L 291.43017578125 377 Q 291.43017578125 387 281.43017578125 387 L 220 387 Q 210 387 210 377 L 210 348 Q 210 338 220 338 Z"/></g><g><path fill="none" stroke="#000000" paint-order="fill stroke markers" d=" M 220 338 L 281.43017578125 338 Q 291.43017578125 338 291.43017578125 348 L 291.43017578125 377 Q 291.43017578125 387 281.43017578125 387 L 220 387 Q 210 387 210 377 L 210 348 Q 210 338 220 338 Z" stroke-miterlimit="10" stroke-dasharray=""/></g><g><g><path fill="none" stroke="none"/><text fill="#000000" stroke="none" font-family="Roboto" font-size="13px" font-style="normal" font-weight="normal" text-decoration="undefined" x="464.715087890625" y="434" text-anchor="middle" dominant-baseline="central" transform="matrix(1 0 0 1 -214 -78)">update</text><text fill="#000000" stroke="none" font-family="Roboto" font-size="13px" font-style="normal" font-weight="normal" text-decoration="undefined" x="464.715087890625" y="447" text-anchor="middle" dominant-baseline="central" transform="matrix(1 0 0 1 -214 -78)">service status</text></g></g><g><path fill="none" stroke="#000000" paint-order="fill stroke markers" d=" M 131 362 L 210 362" stroke-miterlimit="10" stroke-dasharray="6,4"/></g><g><path fill="#FFFFFF" stroke="none" paint-order="stroke fill markers" d=" M 199.83732514237585 366.209517756016 L 210 362 L 199.83732514237585 357.790482243984"/></g><g><path fill="none" stroke="#000000" paint-order="fill stroke markers" d=" M 199.83732514237585 366.209517756016 L 210 362 L 199.83732514237585 357.790482243984 L 199.83732514237585 366.209517756016" stroke-miterlimit="10" stroke-dasharray=""/></g><g><path fill="#FFFFFF" stroke="none" paint-order="stroke fill markers" d=" M 131 362 C 131 360.3431456 132.3431456 359 134 359 C 135.6568544 359 137 360.3431456 137 362 C 137 363.6568544 135.6568544 365 134 365 C 132.3431456 365 131 363.6568544 131 362 Z"/></g><g><path fill="none" stroke="#000000" paint-order="fill stroke markers" d=" M 131 362 C 131 360.3431456 132.3431456 359 134 359 C 135.6568544 359 137 360.3431456 137 362 C 137 363.6568544 135.6568544 365 134 365 C 132.3431456 365 131 363.6568544 131 362 Z" stroke-miterlimit="10" stroke-dasharray=""/></g><g><path fill="none" stroke="#000000" paint-order="fill stroke markers" d=" M 131 426 L 234 426 L 234 426 A 8 8 0 0 0 242 418 L 242 387" stroke-miterlimit="10" stroke-dasharray="6,4"/></g><g><path fill="#FFFFFF" stroke="none" paint-order="stroke fill markers" d=" M 246.209517756016 397.16267485762415 L 242 387 L 237.790482243984 397.16267485762415"/></g><g><path fill="none" stroke="#000000" paint-order="fill stroke markers" d=" M 246.209517756016 397.16267485762415 L 242 387 L 237.790482243984 397.16267485762415 L 246.209517756016 397.16267485762415" stroke-miterlimit="10" stroke-dasharray=""/></g><g><path fill="#FFFFFF" stroke="none" paint-order="stroke fill markers" d=" M 131 426 C 131 424.3431456 132.3431456 423 134 423 C 135.6568544 423 137 424.3431456 137 426 C 137 427.6568544 135.6568544 429 134 429 C 132.3431456 429 131 427.6568544 131 426 Z"/></g><g><path fill="none" stroke="#000000" paint-order="fill stroke markers" d=" M 131 426 C 131 424.3431456 132.3431456 423 134 423 C 135.6568544 423 137 424.3431456 137 426 C 137 427.6568544 135.6568544 429 134 429 C 132.3431456 429 131 427.6568544 131 426 Z" stroke-miterlimit="10" stroke-dasharray=""/></g><g><path fill="#C0C0C0" stroke="none" paint-order="stroke fill markers" d=" M 81 489 C 81 480.16344319999996 88.16344320000002 473 97 473 C 105.83655679999998 473 113 480.16344319999996 113 489 C 113 497.83655680000004 105.83655679999998 505 97 505 C 88.16344320000002 505 81 497.83655680000004 81 489 Z" fill-opacity="0.2"/></g><g><path fill="#ffffff" stroke="none" paint-order="stroke fill markers" d=" M 74 482 C 74 473.16344319999996 81.16344320000002 466 90 466 C 98.83655679999998 466 106 473.16344319999996 106 482 C 106 490.83655680000004 98.83655679999998 498 90 498 C 81.16344320000002 498 74 490.83655680000004 74 482 Z"/></g><g><path fill="none" stroke="#000000" paint-order="fill stroke markers" d=" M 74 482 C 74 473.16344319999996 81.16344320000002 466 90 466 C 98.83655679999998 466 106 473.16344319999996 106 482 C 106 490.83655680000004 98.83655679999998 498 90 498 C 81.16344320000002 498 74 490.83655680000004 74 482 Z" stroke-miterlimit="10" stroke-width="3" stroke-dasharray=""/></g><g><rect fill="#ffffff" stroke="none" x="271.287353515625" y="582.5" width="65.42529296875" height="39" transform="matrix(1 0 0 1 -214 -78)"/></g><g><g><path fill="none" stroke="none"/><text fill="#000000" stroke="none" font-family="Roboto" font-size="13px" font-style="normal" font-weight="normal" text-decoration="undefined" x="304" y="589" text-anchor="middle" dominant-baseline="central" transform="matrix(1 0 0 1 -214 -78)">End</text><text fill="#000000" stroke="none" font-family="Roboto" font-size="13px" font-style="normal" font-weight="normal" text-decoration="undefined" x="304" y="602" text-anchor="middle" dominant-baseline="central" transform="matrix(1 0 0 1 -214 -78)">Ambulance</text><text fill="#000000" stroke="none" font-family="Roboto" font-size="13px" font-style="normal" font-weight="normal" text-decoration="undefined" x="304" y="615" text-anchor="middle" dominant-baseline="central" transform="matrix(1 0 0 1 -214 -78)">Service</text></g></g><g><path fill="none" stroke="#000000" paint-order="fill stroke markers" d=" M 90 441 L 90 466" stroke-miterlimit="10" stroke-dasharray=""/></g><g><path fill="#000000" stroke="none" paint-order="stroke fill markers" d=" M 85.790482243984 455.8373251423759 L 90 466 L 94.209517756016 455.8373251423759"/></g><g><path fill="none" stroke="#000000" paint-order="fill stroke markers" d=" M 85.790482243984 455.8373251423759 L 90 466 L 94.209517756016 455.8373251423759 L 85.790482243984 455.8373251423759" stroke-miterlimit="10" stroke-dasharray=""/></g></g></svg>