<svg version="1.1" xmlns="http://www.w3.org/2000/svg" xmlns:xlink="http://www.w3.org/1999/xlink" width="660" height="948"><defs/><g><g><path fill="none" stroke="#000000" paint-order="fill stroke markers" d=" M 10 10 L 138 10 L 138 938 L 10 938 L 10 10 Z Z" stroke-miterlimit="10" stroke-dasharray=""/></g><g><path fill="none" stroke="#000000" paint-order="fill stroke markers" d=" M 10 33 L 138 33" stroke-miterlimit="10" stroke-dasharray=""/></g><g><g><path fill="none" stroke="none"/><text fill="#000000" stroke="none" font-family="Roboto" font-size="13px" font-style="normal" font-weight="normal" text-decoration="undefined" x="168" y="77" text-anchor="middle" dominant-baseline="text-before-edge" transform="matrix(1 0 0 1 -94 -62)">customer</text></g></g><g><path fill="none" stroke="#000000" paint-order="fill stroke markers" d=" M 146 10 L 450 10 L 450 938 L 146 938 L 146 10 Z Z" stroke-miterlimit="10" stroke-dasharray=""/></g><g><path fill="none" stroke="#000000" paint-order="fill stroke markers" d=" M 146 33 L 450 33" stroke-miterlimit="10" stroke-dasharray=""/></g><g><g><path fill="none" stroke="none"/><text fill="#000000" stroke="none" font-family="Roboto" font-size="13px" font-style="normal" font-weight="normal" text-decoration="undefined" x="392" y="77" text-anchor="middle" dominant-baseline="text-before-edge" transform="matrix(1 0 0 1 -94 -62)">operator</text></g></g><g><path fill="none" stroke="#000000" paint-order="fill stroke markers" d=" M 458 10 L 650 10 L 650 938 L 458 938 L 458 10 Z Z" stroke-miterlimit="10" stroke-dasharray=""/></g><g><path fill="none" stroke="#000000" paint-order="fill stroke markers" d=" M 458 33 L 650 33" stroke-miterlimit="10" stroke-dasharray=""/></g><g><g><path fill="none" stroke="none"/><text fill="#000000" stroke="none" font-family="Roboto" font-size="13px" font-style="normal" font-weight="normal" text-decoration="undefined" x="648" y="77" text-anchor="middle" dominant-baseline="text-before-edge" transform="matrix(1 0 0 1 -94 -62)">backend</text></g></g><g><path fill="#C0C0C0" stroke="none" paint-order="stroke fill markers" d=" M 65 89 C 65 80.16344319999999 72.16344319999999 73 81 73 C 89.83655680000001 73 97 80.16344319999999 97 89 C 97 97.83655680000001 89.83655680000001 105 81 105 C 72.16344319999999 105 65 97.83655680000001 65 89 Z" fill-opacity="0.2"/></g><g><path fill="#ffffff" stroke="none" paint-order="stroke fill markers" d=" M 58 82 C 58 73.16344319999999 65.16344319999999 66 74 66 C 82.83655680000001 66 90 73.16344319999999 90 82 C 90 90.83655680000001 82.83655680000001 98 74 98 C 65.16344319999999 98 58 90.83655680000001 58 82 Z"/></g><g><path fill="none" stroke="#000000" paint-order="fill stroke markers" d=" M 58 82 C 58 73.16344319999999 65.16344319999999 66 74 66 C 82.83655680000001 66 90 73.16344319999999 90 82 C 90 90.83655680000001 82.83655680000001 98 74 98 C 65.16344319999999 98 58 90.83655680000001 58 82 Z" stroke-miterlimit="10" stroke-dasharray=""/></g><g><rect fill="#ffffff" stroke="none" x="154.00341796875" y="111.5" width="27.9931640625" height="13" transform="matrix(1 0 0 1 -94 -62)"/></g><g><g><path fill="none" stroke="none"/><text fill="#000000" stroke="none" font-family="Roboto" font-size="13px" font-style="normal" font-weight="normal" text-decoration="undefined" x="168" y="118" text-anchor="middle" dominant-baseline="central" transform="matrix(1 0 0 1 -94 -62)">Start</text></g></g><g><path fill="#C0C0C0" stroke="none" paint-order="stroke fill markers" d=" M 203 225 L 264.43017578125 225 Q 274.43017578125 225 274.43017578125 235 L 274.43017578125 251 Q 274.43017578125 261 264.43017578125 261 L 203 261 Q 193 261 193 251 L 193 235 Q 193 225 203 225 Z" fill-opacity="0.2"/></g><g><path fill="#ffffff" stroke="none" paint-order="stroke fill markers" d=" M 196 218 L 257.43017578125 218 Q 267.43017578125 218 267.43017578125 228 L 267.43017578125 244 Q 267.43017578125 254 257.43017578125 254 L 196 254 Q 186 254 186 244 L 186 228 Q 186 218 196 218 Z"/></g><g><path fill="none" stroke="#000000" paint-order="fill stroke markers" d=" M 196 218 L 257.43017578125 218 Q 267.43017578125 218 267.43017578125 228 L 267.43017578125 244 Q 267.43017578125 254 257.43017578125 254 L 196 254 Q 186 254 186 244 L 186 228 Q 186 218 196 218 Z" stroke-miterlimit="10" stroke-dasharray=""/></g><g><g><path fill="none" stroke="none"/><text fill="#000000" stroke="none" font-family="Roboto" font-size="13px" font-style="normal" font-weight="normal" text-decoration="undefined" x="320.715087890625" y="291.5" text-anchor="middle" dominant-baseline="central" transform="matrix(1 0 0 1 -94 -62)">operator as</text><text fill="#000000" stroke="none" font-family="Roboto" font-size="13px" font-style="normal" font-weight="normal" text-decoration="undefined" x="320.715087890625" y="304.5" text-anchor="middle" dominant-baseline="central" transform="matrix(1 0 0 1 -94 -62)">callcenter</text></g></g><g><path fill="#C0C0C0" stroke="none" paint-order="stroke fill markers" d=" M 51 225 L 112.43017578125 225 Q 122.43017578125 225 122.43017578125 235 L 122.43017578125 277 Q 122.43017578125 287 112.43017578125 287 L 51 287 Q 41 287 41 277 L 41 235 Q 41 225 51 225 Z" fill-opacity="0.2"/></g><g><path fill="#ffffff" stroke="none" paint-order="stroke fill markers" d=" M 44 218 L 105.43017578125 218 Q 115.43017578125 218 115.43017578125 228 L 115.43017578125 270 Q 115.43017578125 280 105.43017578125 280 L 44 280 Q 34 280 34 270 L 34 228 Q 34 218 44 218 Z"/></g><g><path fill="none" stroke="#000000" paint-order="fill stroke markers" d=" M 44 218 L 105.43017578125 218 Q 115.43017578125 218 115.43017578125 228 L 115.43017578125 270 Q 115.43017578125 280 105.43017578125 280 L 44 280 Q 34 280 34 270 L 34 228 Q 34 218 44 218 Z" stroke-miterlimit="10" stroke-dasharray=""/></g><g><g><path fill="none" stroke="none"/><text fill="#000000" stroke="none" font-family="Roboto" font-size="13px" font-style="normal" font-weight="normal" text-decoration="undefined" x="168.715087890625" y="291.5" text-anchor="middle" dominant-baseline="central" transform="matrix(1 0 0 1 -94 -62)">call operator</text><text fill="#000000" stroke="none" font-family="Roboto" font-size="13px" font-style="normal" font-weight="normal" text-decoration="undefined" x="168.715087890625" y="304.5" text-anchor="middle" dominant-baseline="central" transform="matrix(1 0 0 1 -94 -62)">to get</text><text fill="#000000" stroke="none" font-family="Roboto" font-size="13px" font-style="normal" font-weight="normal" text-decoration="undefined" x="168.715087890625" y="317.5" text-anchor="middle" dominant-baseline="central" transform="matrix(1 0 0 1 -94 -62)">ambulance</text><text fill="#000000" stroke="none" font-family="Roboto" font-size="13px" font-style="normal" font-weight="normal" text-decoration="undefined" x="168.715087890625" y="330.5" text-anchor="middle" dominant-baseline="central" transform="matrix(1 0 0 1 -94 -62)">service</text></g></g><g><path fill="none" stroke="#000000" paint-order="fill stroke markers" d=" M 74 98 L 74 218" stroke-miterlimit="10" stroke-dasharray=""/></g><g><path fill="#000000" stroke="none" paint-order="stroke fill markers" d=" M 69.790482243984 207.83732514237585 L 74 218 L 78.209517756016 207.83732514237585"/></g><g><path fill="none" stroke="#000000" paint-order="fill stroke markers" d=" M 69.790482243984 207.83732514237585 L 74 218 L 78.209517756016 207.83732514237585 L 69.790482243984 207.83732514237585" stroke-miterlimit="10" stroke-dasharray=""/></g><g><path fill="#C0C0C0" stroke="none" paint-order="stroke fill markers" d=" M 217 161 C 217 152.1634432 224.16344320000002 145 233 145 C 241.83655679999998 145 249 152.1634432 249 161 C 249 169.8365568 241.83655679999998 177 233 177 C 224.16344320000002 177 217 169.8365568 217 161 Z" fill-opacity="0.2"/></g><g><path fill="#ffffff" stroke="none" paint-order="stroke fill markers" d=" M 210 154 C 210 145.1634432 217.16344320000002 138 226 138 C 234.83655679999998 138 242 145.1634432 242 154 C 242 162.8365568 234.83655679999998 170 226 170 C 217.16344320000002 170 210 162.8365568 210 154 Z"/></g><g><path fill="none" stroke="#000000" paint-order="fill stroke markers" d=" M 210 154 C 210 145.1634432 217.16344320000002 138 226 138 C 234.83655679999998 138 242 145.1634432 242 154 C 242 162.8365568 234.83655679999998 170 226 170 C 217.16344320000002 170 210 162.8365568 210 154 Z" stroke-miterlimit="10" stroke-dasharray=""/></g><g><rect fill="#ffffff" stroke="none" x="287.7255859375" y="159.5" width="66.548828125" height="39" transform="matrix(1 0 0 1 -94 -62)"/></g><g><g><path fill="none" stroke="none"/><text fill="#000000" stroke="none" font-family="Roboto" font-size="13px" font-style="normal" font-weight="normal" text-decoration="undefined" x="321" y="166" text-anchor="middle" dominant-baseline="central" transform="matrix(1 0 0 1 -94 -62)">Start</text><text fill="#000000" stroke="none" font-family="Roboto" font-size="13px" font-style="normal" font-weight="normal" text-decoration="undefined" x="321" y="179" text-anchor="middle" dominant-baseline="central" transform="matrix(1 0 0 1 -94 -62)">Ambulance</text><text fill="#000000" stroke="none" font-family="Roboto" font-size="13px" font-style="normal" font-weight="normal" text-decoration="undefined" x="321" y="192" text-anchor="middle" dominant-baseline="central" transform="matrix(1 0 0 1 -94 -62)">Service</text></g></g><g><path fill="none" stroke="#000000" paint-order="fill stroke markers" d=" M 226 170 L 226 218" stroke-miterlimit="10" stroke-dasharray=""/></g><g><path fill="#000000" stroke="none" paint-order="stroke fill markers" d=" M 221.790482243984 207.83732514237585 L 226 218 L 230.209517756016 207.83732514237585"/></g><g><path fill="none" stroke="#000000" paint-order="fill stroke markers" d=" M 221.790482243984 207.83732514237585 L 226 218 L 230.209517756016 207.83732514237585 L 221.790482243984 207.83732514237585" stroke-miterlimit="10" stroke-dasharray=""/></g><g><path fill="#C0C0C0" stroke="none" paint-order="stroke fill markers" d=" M 331 225 L 392.43017578125 225 Q 402.43017578125 225 402.43017578125 235 L 402.43017578125 277 Q 402.43017578125 287 392.43017578125 287 L 331 287 Q 321 287 321 277 L 321 235 Q 321 225 331 225 Z" fill-opacity="0.2"/></g><g><path fill="#ffffff" stroke="none" paint-order="stroke fill markers" d=" M 324 218 L 385.43017578125 218 Q 395.43017578125 218 395.43017578125 228 L 395.43017578125 270 Q 395.43017578125 280 385.43017578125 280 L 324 280 Q 314 280 314 270 L 314 228 Q 314 218 324 218 Z"/></g><g><path fill="none" stroke="#000000" paint-order="fill stroke markers" d=" M 324 218 L 385.43017578125 218 Q 395.43017578125 218 395.43017578125 228 L 395.43017578125 270 Q 395.43017578125 280 385.43017578125 280 L 324 280 Q 314 280 314 270 L 314 228 Q 314 218 324 218 Z" stroke-miterlimit="10" stroke-dasharray=""/></g><g><g><path fill="none" stroke="none"/><text fill="#000000" stroke="none" font-family="Roboto" font-size="13px" font-style="normal" font-weight="normal" text-decoration="undefined" x="448.715087890625" y="291.5" text-anchor="middle" dominant-baseline="central" transform="matrix(1 0 0 1 -94 -62)">get</text><text fill="#000000" stroke="none" font-family="Roboto" font-size="13px" font-style="normal" font-weight="normal" text-decoration="undefined" x="448.715087890625" y="304.5" text-anchor="middle" dominant-baseline="central" transform="matrix(1 0 0 1 -94 -62)">assignment</text><text fill="#000000" stroke="none" font-family="Roboto" font-size="13px" font-style="normal" font-weight="normal" text-decoration="undefined" x="448.715087890625" y="317.5" text-anchor="middle" dominant-baseline="central" transform="matrix(1 0 0 1 -94 -62)">from</text><text fill="#000000" stroke="none" font-family="Roboto" font-size="13px" font-style="normal" font-weight="normal" text-decoration="undefined" x="448.715087890625" y="330.5" text-anchor="middle" dominant-baseline="central" transform="matrix(1 0 0 1 -94 -62)">callcenter</text></g></g><g><path fill="none" stroke="#000000" paint-order="fill stroke markers" d=" M 242 154 L 346 154 L 346 154 A 8 8 0 0 1 354 162 L 354 218" stroke-miterlimit="10" stroke-dasharray=""/></g><g><path fill="#000000" stroke="none" paint-order="stroke fill markers" d=" M 349.790482243984 207.83732514237585 L 354 218 L 358.209517756016 207.83732514237585"/></g><g><path fill="none" stroke="#000000" paint-order="fill stroke markers" d=" M 349.790482243984 207.83732514237585 L 354 218 L 358.209517756016 207.83732514237585 L 349.790482243984 207.83732514237585" stroke-miterlimit="10" stroke-dasharray=""/></g><g><path fill="#C0C0C0" stroke="none" paint-order="stroke fill markers" d=" M 203 385 L 264.43017578125 385 Q 274.43017578125 385 274.43017578125 395 L 274.43017578125 439 Q 274.43017578125 449 264.43017578125 449 L 203 449 Q 193 449 193 439 L 193 395 Q 193 385 203 385 Z" fill-opacity="0.2"/></g><g><path fill="#ffffff" stroke="none" paint-order="stroke fill markers" d=" M 196 378 L 257.43017578125 378 Q 267.43017578125 378 267.43017578125 388 L 267.43017578125 432 Q 267.43017578125 442 257.43017578125 442 L 196 442 Q 186 442 186 432 L 186 388 Q 186 378 196 378 Z"/></g><g><path fill="none" stroke="#000000" paint-order="fill stroke markers" d=" M 196 378 L 257.43017578125 378 Q 267.43017578125 378 267.43017578125 388 L 267.43017578125 432 Q 267.43017578125 442 257.43017578125 442 L 196 442 Q 186 442 186 432 L 186 388 Q 186 378 196 378 Z" stroke-miterlimit="10" stroke-dasharray=""/></g><g><g><path fill="none" stroke="none"/><text fill="#000000" stroke="none" font-family="Roboto" font-size="13px" font-style="normal" font-weight="normal" text-decoration="undefined" x="320.715087890625" y="458.5" text-anchor="middle" dominant-baseline="central" transform="matrix(1 0 0 1 -94 -62)">assign</text><text fill="#000000" stroke="none" font-family="Roboto" font-size="13px" font-style="normal" font-weight="normal" text-decoration="undefined" x="320.715087890625" y="471.5" text-anchor="middle" dominant-baseline="central" transform="matrix(1 0 0 1 -94 -62)">ambulance</text><text fill="#000000" stroke="none" font-family="Roboto" font-size="13px" font-style="normal" font-weight="normal" text-decoration="undefined" x="320.715087890625" y="484.5" text-anchor="middle" dominant-baseline="central" transform="matrix(1 0 0 1 -94 -62)">driver</text></g></g><g><path fill="none" stroke="#000000" paint-order="fill stroke markers" d=" M 226 254 L 226 378" stroke-miterlimit="10" stroke-dasharray=""/></g><g><path fill="#000000" stroke="none" paint-order="stroke fill markers" d=" M 221.790482243984 367.83732514237585 L 226 378 L 230.209517756016 367.83732514237585"/></g><g><path fill="none" stroke="#000000" paint-order="fill stroke markers" d=" M 221.790482243984 367.83732514237585 L 226 378 L 230.209517756016 367.83732514237585 L 221.790482243984 367.83732514237585" stroke-miterlimit="10" stroke-dasharray=""/></g><g><path fill="none" stroke="#000000" paint-order="fill stroke markers" d=" M 314 324 L 258 324 L 258 324 A 8 8 0 0 0 250 332 L 250 378" stroke-miterlimit="10" stroke-dasharray=""/></g><g><path fill="#000000" stroke="none" paint-order="stroke fill markers" d=" M 245.790482243984 367.83732514237585 L 250 378 L 254.209517756016 367.83732514237585"/></g><g><path fill="none" stroke="#000000" paint-order="fill stroke markers" d=" M 245.790482243984 367.83732514237585 L 250 378 L 254.209517756016 367.83732514237585 L 245.790482243984 367.83732514237585" stroke-miterlimit="10" stroke-dasharray=""/></g><g><path fill="#C0C0C0" stroke="none" paint-order="stroke fill markers" d=" M 515 225 L 607 225 Q 617 225 617 235 L 617 251 Q 617 261 607 261 L 515 261 Q 505 261 505 251 L 505 235 Q 505 225 515 225 Z" fill-opacity="0.2"/></g><g><path fill="#ffffff" stroke="none" paint-order="stroke fill markers" d=" M 508 218 L 600 218 Q 610 218 610 228 L 610 244 Q 610 254 600 254 L 508 254 Q 498 254 498 244 L 498 228 Q 498 218 508 218 Z"/></g><g><path fill="none" stroke="#000000" paint-order="fill stroke markers" d=" M 508 218 L 600 218 Q 610 218 610 228 L 610 244 Q 610 254 600 254 L 508 254 Q 498 254 498 244 L 498 228 Q 498 218 508 218 Z" stroke-miterlimit="10" stroke-dasharray=""/></g><g><g><path fill="none" stroke="none"/><text fill="#000000" stroke="none" font-family="Roboto" font-size="13px" font-style="normal" font-weight="normal" text-decoration="undefined" x="648" y="291.5" text-anchor="middle" dominant-baseline="central" transform="matrix(1 0 0 1 -94 -62)">backend</text><text fill="#000000" stroke="none" font-family="Roboto" font-size="13px" font-style="normal" font-weight="normal" text-decoration="undefined" x="648" y="304.5" text-anchor="middle" dominant-baseline="central" transform="matrix(1 0 0 1 -94 -62)">notification</text></g></g><g><path fill="none" stroke="#000000" paint-order="fill stroke markers" d=" M 498 234 L 395 234" stroke-miterlimit="10" stroke-dasharray="6,4"/></g><g><path fill="#FFFFFF" stroke="none" paint-order="stroke fill markers" d=" M 405.16267485762415 229.790482243984 L 395 234 L 405.16267485762415 238.209517756016"/></g><g><path fill="none" stroke="#000000" paint-order="fill stroke markers" d=" M 405.16267485762415 229.790482243984 L 395 234 L 405.16267485762415 238.209517756016 L 405.16267485762415 229.790482243984" stroke-miterlimit="10" stroke-dasharray=""/></g><g><path fill="#FFFFFF" stroke="none" paint-order="stroke fill markers" d=" M 492 234 C 492 232.3431456 493.34314559999996 231 495 231 C 496.65685440000004 231 498 232.3431456 498 234 C 498 235.6568544 496.65685440000004 237 495 237 C 493.34314559999996 237 492 235.6568544 492 234 Z"/></g><g><path fill="none" stroke="#000000" paint-order="fill stroke markers" d=" M 492 234 C 492 232.3431456 493.34314559999996 231 495 231 C 496.65685440000004 231 498 232.3431456 498 234 C 498 235.6568544 496.65685440000004 237 495 237 C 493.34314559999996 237 492 235.6568544 492 234 Z" stroke-miterlimit="10" stroke-dasharray=""/></g><g><path fill="#C0C0C0" stroke="none" paint-order="stroke fill markers" d=" M 331 313 L 392.43017578125 313 Q 402.43017578125 313 402.43017578125 323 L 402.43017578125 339 Q 402.43017578125 349 392.43017578125 349 L 331 349 Q 321 349 321 339 L 321 323 Q 321 313 331 313 Z" fill-opacity="0.2"/></g><g><path fill="#ffffff" stroke="none" paint-order="stroke fill markers" d=" M 324 306 L 385.43017578125 306 Q 395.43017578125 306 395.43017578125 316 L 395.43017578125 332 Q 395.43017578125 342 385.43017578125 342 L 324 342 Q 314 342 314 332 L 314 316 Q 314 306 324 306 Z"/></g><g><path fill="none" stroke="#000000" paint-order="fill stroke markers" d=" M 324 306 L 385.43017578125 306 Q 395.43017578125 306 395.43017578125 316 L 395.43017578125 332 Q 395.43017578125 342 385.43017578125 342 L 324 342 Q 314 342 314 332 L 314 316 Q 314 306 324 306 Z" stroke-miterlimit="10" stroke-dasharray=""/></g><g><g><path fill="none" stroke="none"/><text fill="#000000" stroke="none" font-family="Roboto" font-size="13px" font-style="normal" font-weight="normal" text-decoration="undefined" x="448.715087890625" y="379.5" text-anchor="middle" dominant-baseline="central" transform="matrix(1 0 0 1 -94 -62)">accept</text><text fill="#000000" stroke="none" font-family="Roboto" font-size="13px" font-style="normal" font-weight="normal" text-decoration="undefined" x="448.715087890625" y="392.5" text-anchor="middle" dominant-baseline="central" transform="matrix(1 0 0 1 -94 -62)">assignment</text></g></g><g><path fill="none" stroke="#000000" paint-order="fill stroke markers" d=" M 354 280 L 354 306" stroke-miterlimit="10" stroke-dasharray=""/></g><g><path fill="#000000" stroke="none" paint-order="stroke fill markers" d=" M 349.790482243984 295.83732514237585 L 354 306 L 358.209517756016 295.83732514237585"/></g><g><path fill="none" stroke="#000000" paint-order="fill stroke markers" d=" M 349.790482243984 295.83732514237585 L 354 306 L 358.209517756016 295.83732514237585 L 349.790482243984 295.83732514237585" stroke-miterlimit="10" stroke-dasharray=""/></g><g><path fill="#C0C0C0" stroke="none" paint-order="stroke fill markers" d=" M 515 313 L 607 313 Q 617 313 617 323 L 617 352 Q 617 362 607 362 L 515 362 Q 505 362 505 352 L 505 323 Q 505 313 515 313 Z" fill-opacity="0.2"/></g><g><path fill="#ffffff" stroke="none" paint-order="stroke fill markers" d=" M 508 306 L 600 306 Q 610 306 610 316 L 610 345 Q 610 355 600 355 L 508 355 Q 498 355 498 345 L 498 316 Q 498 306 508 306 Z"/></g><g><path fill="none" stroke="#000000" paint-order="fill stroke markers" d=" M 508 306 L 600 306 Q 610 306 610 316 L 610 345 Q 610 355 600 355 L 508 355 Q 498 355 498 345 L 498 316 Q 498 306 508 306 Z" stroke-miterlimit="10" stroke-dasharray=""/></g><g><g><path fill="none" stroke="none"/><text fill="#000000" stroke="none" font-family="Roboto" font-size="13px" font-style="normal" font-weight="normal" text-decoration="undefined" x="648" y="386.5" text-anchor="middle" dominant-baseline="central" transform="matrix(1 0 0 1 -94 -62)">get acceptation</text><text fill="#000000" stroke="none" font-family="Roboto" font-size="13px" font-style="normal" font-weight="normal" text-decoration="undefined" x="648" y="399.5" text-anchor="middle" dominant-baseline="central" transform="matrix(1 0 0 1 -94 -62)">from operator</text></g></g><g><path fill="none" stroke="#000000" paint-order="fill stroke markers" d=" M 395 322 L 498 322" stroke-miterlimit="10" stroke-dasharray="6,4"/></g><g><path fill="#FFFFFF" stroke="none" paint-order="stroke fill markers" d=" M 487.8373251423759 326.209517756016 L 498 322 L 487.8373251423758 317.790482243984"/></g><g><path fill="none" stroke="#000000" paint-order="fill stroke markers" d=" M 487.8373251423759 326.209517756016 L 498 322 L 487.8373251423758 317.790482243984 L 487.8373251423759 326.209517756016" stroke-miterlimit="10" stroke-dasharray=""/></g><g><path fill="#FFFFFF" stroke="none" paint-order="stroke fill markers" d=" M 395 322 C 395 320.3431456 396.3431456 319 398 319 C 399.6568544 319 401 320.3431456 401 322 C 401 323.6568544 399.6568544 325 398 325 C 396.3431456 325 395 323.6568544 395 322 Z"/></g><g><path fill="none" stroke="#000000" paint-order="fill stroke markers" d=" M 395 322 C 395 320.3431456 396.3431456 319 398 319 C 399.6568544 319 401 320.3431456 401 322 C 401 323.6568544 399.6568544 325 398 325 C 396.3431456 325 395 323.6568544 395 322 Z" stroke-miterlimit="10" stroke-dasharray=""/></g><g><path fill="#C0C0C0" stroke="none" paint-order="stroke fill markers" d=" M 51 481 L 112.43017578125 481 Q 122.43017578125 481 122.43017578125 491 L 122.43017578125 520 Q 122.43017578125 530 112.43017578125 530 L 51 530 Q 41 530 41 520 L 41 491 Q 41 481 51 481 Z" fill-opacity="0.2"/></g><g><path fill="#ffffff" stroke="none" paint-order="stroke fill markers" d=" M 44 474 L 105.43017578125 474 Q 115.43017578125 474 115.43017578125 484 L 115.43017578125 513 Q 115.43017578125 523 105.43017578125 523 L 44 523 Q 34 523 34 513 L 34 484 Q 34 474 44 474 Z"/></g><g><path fill="none" stroke="#000000" paint-order="fill stroke markers" d=" M 44 474 L 105.43017578125 474 Q 115.43017578125 474 115.43017578125 484 L 115.43017578125 513 Q 115.43017578125 523 105.43017578125 523 L 44 523 Q 34 523 34 513 L 34 484 Q 34 474 44 474 Z" stroke-miterlimit="10" stroke-dasharray=""/></g><g><g><path fill="none" stroke="none"/><text fill="#000000" stroke="none" font-family="Roboto" font-size="13px" font-style="normal" font-weight="normal" text-decoration="undefined" x="168.715087890625" y="547.5" text-anchor="middle" dominant-baseline="central" transform="matrix(1 0 0 1 -94 -62)">get</text><text fill="#000000" stroke="none" font-family="Roboto" font-size="13px" font-style="normal" font-weight="normal" text-decoration="undefined" x="168.715087890625" y="560.5" text-anchor="middle" dominant-baseline="central" transform="matrix(1 0 0 1 -94 -62)">ambulance</text><text fill="#000000" stroke="none" font-family="Roboto" font-size="13px" font-style="normal" font-weight="normal" text-decoration="undefined" x="168.715087890625" y="573.5" text-anchor="middle" dominant-baseline="central" transform="matrix(1 0 0 1 -94 -62)">service</text></g></g><g><path fill="none" stroke="#000000" paint-order="fill stroke markers" d=" M 74 280 L 74 474" stroke-miterlimit="10" stroke-dasharray=""/></g><g><path fill="#000000" stroke="none" paint-order="stroke fill markers" d=" M 69.790482243984 463.8373251423759 L 74 474 L 78.209517756016 463.8373251423759"/></g><g><path fill="none" stroke="#000000" paint-order="fill stroke markers" d=" M 69.790482243984 463.8373251423759 L 74 474 L 78.209517756016 463.8373251423759 L 69.790482243984 463.8373251423759" stroke-miterlimit="10" stroke-dasharray=""/></g><g><path fill="#C0C0C0" stroke="none" paint-order="stroke fill markers" d=" M 515 385 L 607 385 Q 617 385 617 395 L 617 437 Q 617 447 607 447 L 515 447 Q 505 447 505 437 L 505 395 Q 505 385 515 385 Z" fill-opacity="0.2"/></g><g><path fill="#ffffff" stroke="none" paint-order="stroke fill markers" d=" M 508 378 L 600 378 Q 610 378 610 388 L 610 430 Q 610 440 600 440 L 508 440 Q 498 440 498 430 L 498 388 Q 498 378 508 378 Z"/></g><g><path fill="none" stroke="#000000" paint-order="fill stroke markers" d=" M 508 378 L 600 378 Q 610 378 610 388 L 610 430 Q 610 440 600 440 L 508 440 Q 498 440 498 430 L 498 388 Q 498 378 508 378 Z" stroke-miterlimit="10" stroke-dasharray=""/></g><g><g><path fill="none" stroke="none"/><text fill="#000000" stroke="none" font-family="Roboto" font-size="13px" font-style="normal" font-weight="normal" text-decoration="undefined" x="648" y="451.5" text-anchor="middle" dominant-baseline="central" transform="matrix(1 0 0 1 -94 -62)">update ambulance</text><text fill="#000000" stroke="none" font-family="Roboto" font-size="13px" font-style="normal" font-weight="normal" text-decoration="undefined" x="648" y="464.5" text-anchor="middle" dominant-baseline="central" transform="matrix(1 0 0 1 -94 -62)">status activity and</text><text fill="#000000" stroke="none" font-family="Roboto" font-size="13px" font-style="normal" font-weight="normal" text-decoration="undefined" x="648" y="477.5" text-anchor="middle" dominant-baseline="central" transform="matrix(1 0 0 1 -94 -62)">get confirmation</text><text fill="#000000" stroke="none" font-family="Roboto" font-size="13px" font-style="normal" font-weight="normal" text-decoration="undefined" x="648" y="490.5" text-anchor="middle" dominant-baseline="central" transform="matrix(1 0 0 1 -94 -62)">from driver</text></g></g><g><path fill="none" stroke="#000000" paint-order="fill stroke markers" d=" M 267 407 L 498 407" stroke-miterlimit="10" stroke-dasharray="6,4"/></g><g><path fill="#FFFFFF" stroke="none" paint-order="stroke fill markers" d=" M 487.8373251423759 411.209517756016 L 498 407 L 487.8373251423758 402.790482243984"/></g><g><path fill="none" stroke="#000000" paint-order="fill stroke markers" d=" M 487.8373251423759 411.209517756016 L 498 407 L 487.8373251423758 402.790482243984 L 487.8373251423759 411.209517756016" stroke-miterlimit="10" stroke-dasharray=""/></g><g><path fill="#FFFFFF" stroke="none" paint-order="stroke fill markers" d=" M 267 407 C 267 405.3431456 268.3431456 404 270 404 C 271.6568544 404 273 405.3431456 273 407 C 273 408.6568544 271.6568544 410 270 410 C 268.3431456 410 267 408.6568544 267 407 Z"/></g><g><path fill="none" stroke="#000000" paint-order="fill stroke markers" d=" M 267 407 C 267 405.3431456 268.3431456 404 270 404 C 271.6568544 404 273 405.3431456 273 407 C 273 408.6568544 271.6568544 410 270 410 C 268.3431456 410 267 408.6568544 267 407 Z" stroke-miterlimit="10" stroke-dasharray=""/></g><g><path fill="#C0C0C0" stroke="none" paint-order="stroke fill markers" d=" M 331 473 L 394.4423828125 473 Q 404.4423828125 473 404.4423828125 483 L 404.4423828125 512 Q 404.4423828125 522 394.4423828125 522 L 331 522 Q 321 522 321 512 L 321 483 Q 321 473 331 473 Z" fill-opacity="0.2"/></g><g><path fill="#ffffff" stroke="none" paint-order="stroke fill markers" d=" M 324 466 L 387.4423828125 466 Q 397.4423828125 466 397.4423828125 476 L 397.4423828125 505 Q 397.4423828125 515 387.4423828125 515 L 324 515 Q 314 515 314 505 L 314 476 Q 314 466 324 466 Z"/></g><g><path fill="none" stroke="#000000" paint-order="fill stroke markers" d=" M 324 466 L 387.4423828125 466 Q 397.4423828125 466 397.4423828125 476 L 397.4423828125 505 Q 397.4423828125 515 387.4423828125 515 L 324 515 Q 314 515 314 505 L 314 476 Q 314 466 324 466 Z" stroke-miterlimit="10" stroke-dasharray=""/></g><g><g><path fill="none" stroke="none"/><text fill="#000000" stroke="none" font-family="Roboto" font-size="13px" font-style="normal" font-weight="normal" text-decoration="undefined" x="449.72119140625" y="539.5" text-anchor="middle" dominant-baseline="central" transform="matrix(1 0 0 1 -94 -62)">get</text><text fill="#000000" stroke="none" font-family="Roboto" font-size="13px" font-style="normal" font-weight="normal" text-decoration="undefined" x="449.72119140625" y="552.5" text-anchor="middle" dominant-baseline="central" transform="matrix(1 0 0 1 -94 -62)">confirmation</text><text fill="#000000" stroke="none" font-family="Roboto" font-size="13px" font-style="normal" font-weight="normal" text-decoration="undefined" x="449.72119140625" y="565.5" text-anchor="middle" dominant-baseline="central" transform="matrix(1 0 0 1 -94 -62)">from driver</text></g></g><g><path fill="none" stroke="#000000" paint-order="fill stroke markers" d=" M 267 426 L 346 426 L 346 426 A 8 8 0 0 1 354 434 L 354 466" stroke-miterlimit="10" stroke-dasharray=""/></g><g><path fill="#000000" stroke="none" paint-order="stroke fill markers" d=" M 349.790482243984 455.8373251423759 L 354 466 L 358.209517756016 455.8373251423759"/></g><g><path fill="none" stroke="#000000" paint-order="fill stroke markers" d=" M 349.790482243984 455.8373251423759 L 354 466 L 358.209517756016 455.8373251423759 L 349.790482243984 455.8373251423759" stroke-miterlimit="10" stroke-dasharray=""/></g><g><path fill="none" stroke="#000000" paint-order="fill stroke markers" d=" M 554 440 L 554 482 L 554 482 A 8 8 0 0 1 546 490 L 397 490" stroke-miterlimit="10" stroke-dasharray="6,4"/></g><g><path fill="#FFFFFF" stroke="none" paint-order="stroke fill markers" d=" M 407.16267485762415 485.790482243984 L 397 490 L 407.16267485762415 494.209517756016"/></g><g><path fill="none" stroke="#000000" paint-order="fill stroke markers" d=" M 407.16267485762415 485.790482243984 L 397 490 L 407.16267485762415 494.209517756016 L 407.16267485762415 485.790482243984" stroke-miterlimit="10" stroke-dasharray=""/></g><g><path fill="#FFFFFF" stroke="none" paint-order="stroke fill markers" d=" M 551 443 C 551 441.3431456 552.3431456 440 554 440 C 555.6568544 440 557 441.3431456 557 443 C 557 444.6568544 555.6568544 446 554 446 C 552.3431456 446 551 444.6568544 551 443 Z"/></g><g><path fill="none" stroke="#000000" paint-order="fill stroke markers" d=" M 551 443 C 551 441.3431456 552.3431456 440 554 440 C 555.6568544 440 557 441.3431456 557 443 C 557 444.6568544 555.6568544 446 554 446 C 552.3431456 446 551 444.6568544 551 443 Z" stroke-miterlimit="10" stroke-dasharray=""/></g><g><path fill="#C0C0C0" stroke="none" paint-order="stroke fill markers" d=" M 203 569 L 264.43017578125 569 Q 274.43017578125 569 274.43017578125 579 L 274.43017578125 608 Q 274.43017578125 618 264.43017578125 618 L 203 618 Q 193 618 193 608 L 193 579 Q 193 569 203 569 Z" fill-opacity="0.2"/></g><g><path fill="#ffffff" stroke="none" paint-order="stroke fill markers" d=" M 196 562 L 257.43017578125 562 Q 267.43017578125 562 267.43017578125 572 L 267.43017578125 601 Q 267.43017578125 611 257.43017578125 611 L 196 611 Q 186 611 186 601 L 186 572 Q 186 562 196 562 Z"/></g><g><path fill="none" stroke="#000000" paint-order="fill stroke markers" d=" M 196 562 L 257.43017578125 562 Q 267.43017578125 562 267.43017578125 572 L 267.43017578125 601 Q 267.43017578125 611 257.43017578125 611 L 196 611 Q 186 611 186 601 L 186 572 Q 186 562 196 562 Z" stroke-miterlimit="10" stroke-dasharray=""/></g><g><g><path fill="none" stroke="none"/><text fill="#000000" stroke="none" font-family="Roboto" font-size="13px" font-style="normal" font-weight="normal" text-decoration="undefined" x="320.715087890625" y="635.5" text-anchor="middle" dominant-baseline="central" transform="matrix(1 0 0 1 -94 -62)">send</text><text fill="#000000" stroke="none" font-family="Roboto" font-size="13px" font-style="normal" font-weight="normal" text-decoration="undefined" x="320.715087890625" y="648.5" text-anchor="middle" dominant-baseline="central" transform="matrix(1 0 0 1 -94 -62)">ambulance</text><text fill="#000000" stroke="none" font-family="Roboto" font-size="13px" font-style="normal" font-weight="normal" text-decoration="undefined" x="320.715087890625" y="661.5" text-anchor="middle" dominant-baseline="central" transform="matrix(1 0 0 1 -94 -62)">unit</text></g></g><g><path fill="none" stroke="#000000" paint-order="fill stroke markers" d=" M 354 515 L 354 570 L 354 570 A 8 8 0 0 1 346 578 L 267 578" stroke-miterlimit="10" stroke-dasharray=""/></g><g><path fill="#000000" stroke="none" paint-order="stroke fill markers" d=" M 277.16267485762415 573.790482243984 L 267 578 L 277.16267485762415 582.209517756016"/></g><g><path fill="none" stroke="#000000" paint-order="fill stroke markers" d=" M 277.16267485762415 573.790482243984 L 267 578 L 277.16267485762415 582.209517756016 L 277.16267485762415 573.790482243984" stroke-miterlimit="10" stroke-dasharray=""/></g><g><path fill="#C0C0C0" stroke="none" paint-order="stroke fill markers" d=" M 523 569 L 607 569 Q 617 569 617 579 L 617 608 Q 617 618 607 618 L 523 618 Q 513 618 513 608 L 513 579 Q 513 569 523 569 Z" fill-opacity="0.2"/></g><g><path fill="#ffffff" stroke="none" paint-order="stroke fill markers" d=" M 516 562 L 600 562 Q 610 562 610 572 L 610 601 Q 610 611 600 611 L 516 611 Q 506 611 506 601 L 506 572 Q 506 562 516 562 Z"/></g><g><path fill="none" stroke="#000000" paint-order="fill stroke markers" d=" M 516 562 L 600 562 Q 610 562 610 572 L 610 601 Q 610 611 600 611 L 516 611 Q 506 611 506 601 L 506 572 Q 506 562 516 562 Z" stroke-miterlimit="10" stroke-dasharray=""/></g><g><g><path fill="none" stroke="none"/><text fill="#000000" stroke="none" font-family="Roboto" font-size="13px" font-style="normal" font-weight="normal" text-decoration="undefined" x="652" y="635.5" text-anchor="middle" dominant-baseline="central" transform="matrix(1 0 0 1 -94 -62)">update status</text><text fill="#000000" stroke="none" font-family="Roboto" font-size="13px" font-style="normal" font-weight="normal" text-decoration="undefined" x="652" y="648.5" text-anchor="middle" dominant-baseline="central" transform="matrix(1 0 0 1 -94 -62)">ambulance unit</text><text fill="#000000" stroke="none" font-family="Roboto" font-size="13px" font-style="normal" font-weight="normal" text-decoration="undefined" x="652" y="661.5" text-anchor="middle" dominant-baseline="central" transform="matrix(1 0 0 1 -94 -62)">activity</text></g></g><g><path fill="none" stroke="#000000" paint-order="fill stroke markers" d=" M 267 586 L 506 586" stroke-miterlimit="10" stroke-dasharray="6,4"/></g><g><path fill="#FFFFFF" stroke="none" paint-order="stroke fill markers" d=" M 495.8373251423759 590.209517756016 L 506 586 L 495.8373251423758 581.790482243984"/></g><g><path fill="none" stroke="#000000" paint-order="fill stroke markers" d=" M 495.8373251423759 590.209517756016 L 506 586 L 495.8373251423758 581.790482243984 L 495.8373251423759 590.209517756016" stroke-miterlimit="10" stroke-dasharray=""/></g><g><path fill="#FFFFFF" stroke="none" paint-order="stroke fill markers" d=" M 267 586 C 267 584.3431456 268.3431456 583 270 583 C 271.6568544 583 273 584.3431456 273 586 C 273 587.6568544 271.6568544 589 270 589 C 268.3431456 589 267 587.6568544 267 586 Z"/></g><g><path fill="none" stroke="#000000" paint-order="fill stroke markers" d=" M 267 586 C 267 584.3431456 268.3431456 583 270 583 C 271.6568544 583 273 584.3431456 273 586 C 273 587.6568544 271.6568544 589 270 589 C 268.3431456 589 267 587.6568544 267 586 Z" stroke-miterlimit="10" stroke-dasharray=""/></g><g><path fill="#C0C0C0" stroke="none" paint-order="stroke fill markers" d=" M 203 649 L 264.43017578125 649 Q 274.43017578125 649 274.43017578125 659 L 274.43017578125 719 Q 274.43017578125 729 264.43017578125 729 L 203 729 Q 193 729 193 719 L 193 659 Q 193 649 203 649 Z" fill-opacity="0.2"/></g><g><path fill="#ffffff" stroke="none" paint-order="stroke fill markers" d=" M 196 642 L 257.43017578125 642 Q 267.43017578125 642 267.43017578125 652 L 267.43017578125 712 Q 267.43017578125 722 257.43017578125 722 L 196 722 Q 186 722 186 712 L 186 652 Q 186 642 196 642 Z"/></g><g><path fill="none" stroke="#000000" paint-order="fill stroke markers" d=" M 196 642 L 257.43017578125 642 Q 267.43017578125 642 267.43017578125 652 L 267.43017578125 712 Q 267.43017578125 722 257.43017578125 722 L 196 722 Q 186 722 186 712 L 186 652 Q 186 642 196 642 Z" stroke-miterlimit="10" stroke-dasharray=""/></g><g><path fill="none" stroke="#000000" paint-order="fill stroke markers" d=" M 224.1840380010418 716.5640260967534 A 4 4 0 1 1 228.3511410091699 716.2360679774998" stroke-miterlimit="10" stroke-dasharray=""/></g><g><path fill="none" stroke="#000000" paint-order="fill stroke markers" d=" M 225 717 L 221 717" stroke-miterlimit="10" stroke-dasharray=""/></g><g><path fill="none" stroke="#000000" paint-order="fill stroke markers" d=" M 225 717 L 225 713" stroke-miterlimit="10" stroke-dasharray=""/></g><g><g><path fill="none" stroke="none"/><text fill="#000000" stroke="none" font-family="Roboto" font-size="13px" font-style="normal" font-weight="normal" text-decoration="undefined" x="320.715087890625" y="730.5" text-anchor="middle" dominant-baseline="central" transform="matrix(1 0 0 1 -94 -62)">monitoring</text><text fill="#000000" stroke="none" font-family="Roboto" font-size="13px" font-style="normal" font-weight="normal" text-decoration="undefined" x="320.715087890625" y="743.5" text-anchor="middle" dominant-baseline="central" transform="matrix(1 0 0 1 -94 -62)">ambulance</text><text fill="#000000" stroke="none" font-family="Roboto" font-size="13px" font-style="normal" font-weight="normal" text-decoration="undefined" x="320.715087890625" y="756.5" text-anchor="middle" dominant-baseline="central" transform="matrix(1 0 0 1 -94 -62)">activity</text></g></g><g><path fill="none" stroke="#000000" paint-order="fill stroke markers" d=" M 226 611 L 226 642" stroke-miterlimit="10" stroke-dasharray=""/></g><g><path fill="#000000" stroke="none" paint-order="stroke fill markers" d=" M 221.790482243984 631.8373251423759 L 226 642 L 230.209517756016 631.8373251423759"/></g><g><path fill="none" stroke="#000000" paint-order="fill stroke markers" d=" M 221.790482243984 631.8373251423759 L 226 642 L 230.209517756016 631.8373251423759 L 221.790482243984 631.8373251423759" stroke-miterlimit="10" stroke-dasharray=""/></g><g><path fill="#C0C0C0" stroke="none" paint-order="stroke fill markers" d=" M 523 657 L 607 657 Q 617 657 617 667 L 617 703 Q 617 713 607 713 L 523 713 Q 513 713 513 703 L 513 667 Q 513 657 523 657 Z" fill-opacity="0.2"/></g><g><path fill="#ffffff" stroke="none" paint-order="stroke fill markers" d=" M 516 650 L 600 650 Q 610 650 610 660 L 610 696 Q 610 706 600 706 L 516 706 Q 506 706 506 696 L 506 660 Q 506 650 516 650 Z"/></g><g><path fill="none" stroke="#000000" paint-order="fill stroke markers" d=" M 516 650 L 600 650 Q 610 650 610 660 L 610 696 Q 610 706 600 706 L 516 706 Q 506 706 506 696 L 506 660 Q 506 650 516 650 Z" stroke-miterlimit="10" stroke-dasharray=""/></g><g><path fill="none" stroke="#000000" paint-order="fill stroke markers" d=" M 555.1840380010418 700.5640260967534 A 4 4 0 1 1 559.3511410091699 700.2360679774998" stroke-miterlimit="10" stroke-dasharray=""/></g><g><path fill="none" stroke="#000000" paint-order="fill stroke markers" d=" M 556 701 L 552 701" stroke-miterlimit="10" stroke-dasharray=""/></g><g><path fill="none" stroke="#000000" paint-order="fill stroke markers" d=" M 556 701 L 556 697" stroke-miterlimit="10" stroke-dasharray=""/></g><g><g><path fill="none" stroke="none"/><text fill="#000000" stroke="none" font-family="Roboto" font-size="13px" font-style="normal" font-weight="normal" text-decoration="undefined" x="652" y="733.5" text-anchor="middle" dominant-baseline="central" transform="matrix(1 0 0 1 -94 -62)">ger status from</text><text fill="#000000" stroke="none" font-family="Roboto" font-size="13px" font-style="normal" font-weight="normal" text-decoration="undefined" x="652" y="746.5" text-anchor="middle" dominant-baseline="central" transform="matrix(1 0 0 1 -94 -62)">driver</text></g></g><g><path fill="none" stroke="#000000" paint-order="fill stroke markers" d=" M 558 611 L 558 650" stroke-miterlimit="10" stroke-dasharray=""/></g><g><path fill="#000000" stroke="none" paint-order="stroke fill markers" d=" M 553.790482243984 639.8373251423759 L 558 650 L 562.209517756016 639.8373251423759"/></g><g><path fill="none" stroke="#000000" paint-order="fill stroke markers" d=" M 553.790482243984 639.8373251423759 L 558 650 L 562.209517756016 639.8373251423759 L 553.790482243984 639.8373251423759" stroke-miterlimit="10" stroke-dasharray=""/></g><g><path fill="none" stroke="#000000" paint-order="fill stroke markers" d=" M 506 682 L 267 682" stroke-miterlimit="10" stroke-dasharray="6,4"/></g><g><path fill="#FFFFFF" stroke="none" paint-order="stroke fill markers" d=" M 277.16267485762415 677.790482243984 L 267 682 L 277.16267485762415 686.209517756016"/></g><g><path fill="none" stroke="#000000" paint-order="fill stroke markers" d=" M 277.16267485762415 677.790482243984 L 267 682 L 277.16267485762415 686.209517756016 L 277.16267485762415 677.790482243984" stroke-miterlimit="10" stroke-dasharray=""/></g><g><path fill="#FFFFFF" stroke="none" paint-order="stroke fill markers" d=" M 500 682 C 500 680.3431456 501.34314559999996 679 503 679 C 504.65685440000004 679 506 680.3431456 506 682 C 506 683.6568544 504.65685440000004 685 503 685 C 501.34314559999996 685 500 683.6568544 500 682 Z"/></g><g><path fill="none" stroke="#000000" paint-order="fill stroke markers" d=" M 500 682 C 500 680.3431456 501.34314559999996 679 503 679 C 504.65685440000004 679 506 680.3431456 506 682 C 506 683.6568544 504.65685440000004 685 503 685 C 501.34314559999996 685 500 683.6568544 500 682 Z" stroke-miterlimit="10" stroke-dasharray=""/></g><g><path fill="#C0C0C0" stroke="none" paint-order="stroke fill markers" d=" M 203 761 L 264.43017578125 761 Q 274.43017578125 761 274.43017578125 771 L 274.43017578125 813 Q 274.43017578125 823 264.43017578125 823 L 203 823 Q 193 823 193 813 L 193 771 Q 193 761 203 761 Z" fill-opacity="0.2"/></g><g><path fill="#ffffff" stroke="none" paint-order="stroke fill markers" d=" M 196 754 L 257.43017578125 754 Q 267.43017578125 754 267.43017578125 764 L 267.43017578125 806 Q 267.43017578125 816 257.43017578125 816 L 196 816 Q 186 816 186 806 L 186 764 Q 186 754 196 754 Z"/></g><g><path fill="none" stroke="#000000" paint-order="fill stroke markers" d=" M 196 754 L 257.43017578125 754 Q 267.43017578125 754 267.43017578125 764 L 267.43017578125 806 Q 267.43017578125 816 257.43017578125 816 L 196 816 Q 186 816 186 806 L 186 764 Q 186 754 196 754 Z" stroke-miterlimit="10" stroke-dasharray=""/></g><g><g><path fill="none" stroke="none"/><text fill="#000000" stroke="none" font-family="Roboto" font-size="13px" font-style="normal" font-weight="normal" text-decoration="undefined" x="320.715087890625" y="827.5" text-anchor="middle" dominant-baseline="central" transform="matrix(1 0 0 1 -94 -62)">end</text><text fill="#000000" stroke="none" font-family="Roboto" font-size="13px" font-style="normal" font-weight="normal" text-decoration="undefined" x="320.715087890625" y="840.5" text-anchor="middle" dominant-baseline="central" transform="matrix(1 0 0 1 -94 -62)">ambulance</text><text fill="#000000" stroke="none" font-family="Roboto" font-size="13px" font-style="normal" font-weight="normal" text-decoration="undefined" x="320.715087890625" y="853.5" text-anchor="middle" dominant-baseline="central" transform="matrix(1 0 0 1 -94 -62)">activity and</text><text fill="#000000" stroke="none" font-family="Roboto" font-size="13px" font-style="normal" font-weight="normal" text-decoration="undefined" x="320.715087890625" y="866.5" text-anchor="middle" dominant-baseline="central" transform="matrix(1 0 0 1 -94 -62)">close ticket</text></g></g><g><path fill="#C0C0C0" stroke="none" paint-order="stroke fill markers" d=" M 217 865 C 217 856.1634432 224.16344320000002 849 233 849 C 241.83655679999998 849 249 856.1634432 249 865 C 249 873.8365568 241.83655679999998 881 233 881 C 224.16344320000002 881 217 873.8365568 217 865 Z" fill-opacity="0.2"/></g><g><path fill="#ffffff" stroke="none" paint-order="stroke fill markers" d=" M 210 858 C 210 849.1634432 217.16344320000002 842 226 842 C 234.83655679999998 842 242 849.1634432 242 858 C 242 866.8365568 234.83655679999998 874 226 874 C 217.16344320000002 874 210 866.8365568 210 858 Z"/></g><g><path fill="none" stroke="#000000" paint-order="fill stroke markers" d=" M 210 858 C 210 849.1634432 217.16344320000002 842 226 842 C 234.83655679999998 842 242 849.1634432 242 858 C 242 866.8365568 234.83655679999998 874 226 874 C 217.16344320000002 874 210 866.8365568 210 858 Z" stroke-miterlimit="10" stroke-width="3" stroke-dasharray=""/></g><g><rect fill="#ffffff" stroke="none" x="287.287353515625" y="942.5" width="65.42529296875" height="39" transform="matrix(1 0 0 1 -94 -62)"/></g><g><g><path fill="none" stroke="none"/><text fill="#000000" stroke="none" font-family="Roboto" font-size="13px" font-style="normal" font-weight="normal" text-decoration="undefined" x="320" y="949" text-anchor="middle" dominant-baseline="central" transform="matrix(1 0 0 1 -94 -62)">End</text><text fill="#000000" stroke="none" font-family="Roboto" font-size="13px" font-style="normal" font-weight="normal" text-decoration="undefined" x="320" y="962" text-anchor="middle" dominant-baseline="central" transform="matrix(1 0 0 1 -94 -62)">Ambulance</text><text fill="#000000" stroke="none" font-family="Roboto" font-size="13px" font-style="normal" font-weight="normal" text-decoration="undefined" x="320" y="975" text-anchor="middle" dominant-baseline="central" transform="matrix(1 0 0 1 -94 -62)">Service</text></g></g><g><path fill="#C0C0C0" stroke="none" paint-order="stroke fill markers" d=" M 65 873 C 65 864.1634432 72.16344319999999 857 81 857 C 89.83655680000001 857 97 864.1634432 97 873 C 97 881.8365568 89.83655680000001 889 81 889 C 72.16344319999999 889 65 881.8365568 65 873 Z" fill-opacity="0.2"/></g><g><path fill="#ffffff" stroke="none" paint-order="stroke fill markers" d=" M 58 866 C 58 857.1634432 65.16344319999999 850 74 850 C 82.83655680000001 850 90 857.1634432 90 866 C 90 874.8365568 82.83655680000001 882 74 882 C 65.16344319999999 882 58 874.8365568 58 866 Z"/></g><g><path fill="none" stroke="#000000" paint-order="fill stroke markers" d=" M 58 866 C 58 857.1634432 65.16344319999999 850 74 850 C 82.83655680000001 850 90 857.1634432 90 866 C 90 874.8365568 82.83655680000001 882 74 882 C 65.16344319999999 882 58 874.8365568 58 866 Z" stroke-miterlimit="10" stroke-width="3" stroke-dasharray=""/></g><g><rect fill="#ffffff" stroke="none" x="119.075439453125" y="957.5" width="97.84912109375" height="13" transform="matrix(1 0 0 1 -94 -62)"/></g><g><g><path fill="none" stroke="none"/><text fill="#000000" stroke="none" font-family="Roboto" font-size="13px" font-style="normal" font-weight="normal" text-decoration="undefined" x="168" y="964" text-anchor="middle" dominant-baseline="central" transform="matrix(1 0 0 1 -94 -62)">End</text></g></g><g><path fill="none" stroke="#000000" paint-order="fill stroke markers" d=" M 74 523 L 74 850" stroke-miterlimit="10" stroke-dasharray=""/></g><g><path fill="#000000" stroke="none" paint-order="stroke fill markers" d=" M 69.790482243984 839.8373251423759 L 74 850 L 78.209517756016 839.8373251423759"/></g><g><path fill="none" stroke="#000000" paint-order="fill stroke markers" d=" M 69.790482243984 839.8373251423759 L 74 850 L 78.209517756016 839.8373251423759 L 69.790482243984 839.8373251423759" stroke-miterlimit="10" stroke-dasharray=""/></g><g><path fill="#C0C0C0" stroke="none" paint-order="stroke fill markers" d=" M 203 481 L 264.43017578125 481 Q 274.43017578125 481 274.43017578125 491 L 274.43017578125 520 Q 274.43017578125 530 264.43017578125 530 L 203 530 Q 193 530 193 520 L 193 491 Q 193 481 203 481 Z" fill-opacity="0.2"/></g><g><path fill="#ffffff" stroke="none" paint-order="stroke fill markers" d=" M 196 474 L 257.43017578125 474 Q 267.43017578125 474 267.43017578125 484 L 267.43017578125 513 Q 267.43017578125 523 257.43017578125 523 L 196 523 Q 186 523 186 513 L 186 484 Q 186 474 196 474 Z"/></g><g><path fill="none" stroke="#000000" paint-order="fill stroke markers" d=" M 196 474 L 257.43017578125 474 Q 267.43017578125 474 267.43017578125 484 L 267.43017578125 513 Q 267.43017578125 523 257.43017578125 523 L 196 523 Q 186 523 186 513 L 186 484 Q 186 474 196 474 Z" stroke-miterlimit="10" stroke-dasharray=""/></g><g><g><path fill="none" stroke="none"/><text fill="#000000" stroke="none" font-family="Roboto" font-size="13px" font-style="normal" font-weight="normal" text-decoration="undefined" x="320.715087890625" y="547.5" text-anchor="middle" dominant-baseline="central" transform="matrix(1 0 0 1 -94 -62)">send</text><text fill="#000000" stroke="none" font-family="Roboto" font-size="13px" font-style="normal" font-weight="normal" text-decoration="undefined" x="320.715087890625" y="560.5" text-anchor="middle" dominant-baseline="central" transform="matrix(1 0 0 1 -94 -62)">information</text><text fill="#000000" stroke="none" font-family="Roboto" font-size="13px" font-style="normal" font-weight="normal" text-decoration="undefined" x="320.715087890625" y="573.5" text-anchor="middle" dominant-baseline="central" transform="matrix(1 0 0 1 -94 -62)">to customer</text></g></g><g><path fill="none" stroke="#000000" paint-order="fill stroke markers" d=" M 314 490 L 267 490" stroke-miterlimit="10" stroke-dasharray=""/></g><g><path fill="#000000" stroke="none" paint-order="stroke fill markers" d=" M 277.16267485762415 485.790482243984 L 267 490 L 277.16267485762415 494.209517756016"/></g><g><path fill="none" stroke="#000000" paint-order="fill stroke markers" d=" M 277.16267485762415 485.790482243984 L 267 490 L 277.16267485762415 494.209517756016 L 277.16267485762415 485.790482243984" stroke-miterlimit="10" stroke-dasharray=""/></g><g><path fill="none" stroke="#000000" paint-order="fill stroke markers" d=" M 226 523 L 226 562" stroke-miterlimit="10" stroke-dasharray=""/></g><g><path fill="#000000" stroke="none" paint-order="stroke fill markers" d=" M 221.790482243984 551.8373251423759 L 226 562 L 230.209517756016 551.8373251423759"/></g><g><path fill="none" stroke="#000000" paint-order="fill stroke markers" d=" M 221.790482243984 551.8373251423759 L 226 562 L 230.209517756016 551.8373251423759 L 221.790482243984 551.8373251423759" stroke-miterlimit="10" stroke-dasharray=""/></g><g><path fill="none" stroke="#000000" paint-order="fill stroke markers" d=" M 226 722 L 226 754" stroke-miterlimit="10" stroke-dasharray=""/></g><g><path fill="#000000" stroke="none" paint-order="stroke fill markers" d=" M 221.790482243984 743.8373251423759 L 226 754 L 230.209517756016 743.8373251423759"/></g><g><path fill="none" stroke="#000000" paint-order="fill stroke markers" d=" M 221.790482243984 743.8373251423759 L 226 754 L 230.209517756016 743.8373251423759 L 221.790482243984 743.8373251423759" stroke-miterlimit="10" stroke-dasharray=""/></g><g><path fill="none" stroke="#000000" paint-order="fill stroke markers" d=" M 226 816 L 226 842" stroke-miterlimit="10" stroke-dasharray=""/></g><g><path fill="#000000" stroke="none" paint-order="stroke fill markers" d=" M 221.790482243984 831.8373251423759 L 226 842 L 230.209517756016 831.8373251423759"/></g><g><path fill="none" stroke="#000000" paint-order="fill stroke markers" d=" M 221.790482243984 831.8373251423759 L 226 842 L 230.209517756016 831.8373251423759 L 221.790482243984 831.8373251423759" stroke-miterlimit="10" stroke-dasharray=""/></g><g><path fill="none" stroke="#000000" paint-order="fill stroke markers" d=" M 186 498 L 115 498" stroke-miterlimit="10" stroke-dasharray="6,4"/></g><g><path fill="#FFFFFF" stroke="none" paint-order="stroke fill markers" d=" M 125.16267485762415 493.790482243984 L 115 498 L 125.16267485762415 502.209517756016"/></g><g><path fill="none" stroke="#000000" paint-order="fill stroke markers" d=" M 125.16267485762415 493.790482243984 L 115 498 L 125.16267485762415 502.209517756016 L 125.16267485762415 493.790482243984" stroke-miterlimit="10" stroke-dasharray=""/></g><g><path fill="#FFFFFF" stroke="none" paint-order="stroke fill markers" d=" M 180 498 C 180 496.34314559999996 181.3431456 495 183 495 C 184.6568544 495 186 496.34314559999996 186 498 C 186 499.65685440000004 184.6568544 501 183 501 C 181.3431456 501 180 499.65685440000004 180 498 Z"/></g><g><path fill="none" stroke="#000000" paint-order="fill stroke markers" d=" M 180 498 C 180 496.34314559999996 181.3431456 495 183 495 C 184.6568544 495 186 496.34314559999996 186 498 C 186 499.65685440000004 184.6568544 501 183 501 C 181.3431456 501 180 499.65685440000004 180 498 Z" stroke-miterlimit="10" stroke-dasharray=""/></g><g><path fill="none" stroke="#000000" paint-order="fill stroke markers" d=" M 115 234 L 186 234" stroke-miterlimit="10" stroke-dasharray="6,4"/></g><g><path fill="#FFFFFF" stroke="none" paint-order="stroke fill markers" d=" M 175.83732514237585 238.209517756016 L 186 234 L 175.83732514237585 229.790482243984"/></g><g><path fill="none" stroke="#000000" paint-order="fill stroke markers" d=" M 175.83732514237585 238.209517756016 L 186 234 L 175.83732514237585 229.790482243984 L 175.83732514237585 238.209517756016" stroke-miterlimit="10" stroke-dasharray=""/></g><g><path fill="#FFFFFF" stroke="none" paint-order="stroke fill markers" d=" M 115 234 C 115 232.3431456 116.34314560000001 231 118 231 C 119.65685439999999 231 121 232.3431456 121 234 C 121 235.6568544 119.65685439999999 237 118 237 C 116.34314560000001 237 115 235.6568544 115 234 Z"/></g><g><path fill="none" stroke="#000000" paint-order="fill stroke markers" d=" M 115 234 C 115 232.3431456 116.34314560000001 231 118 231 C 119.65685439999999 231 121 232.3431456 121 234 C 121 235.6568544 119.65685439999999 237 118 237 C 116.34314560000001 237 115 235.6568544 115 234 Z" stroke-miterlimit="10" stroke-dasharray=""/></g></g></svg>