<svg version="1.1" xmlns="http://www.w3.org/2000/svg" xmlns:xlink="http://www.w3.org/1999/xlink" width="390" height="644"><defs/><g><g><path fill="#C0C0C0" stroke="none" paint-order="stroke fill markers" d=" M 190 17 L 246.041015625 17 Q 256.041015625 17 256.041015625 27 L 256.041015625 47 Q 256.041015625 57 246.041015625 57 L 190 57 Q 180 57 180 47 L 180 27 Q 180 17 190 17 Z" fill-opacity="0.2"/></g><g><path fill="#ffffff" stroke="none" paint-order="stroke fill markers" d=" M 183 10 L 239.041015625 10 Q 249.041015625 10 249.041015625 20 L 249.041015625 40 Q 249.041015625 50 239.041015625 50 L 183 50 Q 173 50 173 40 L 173 20 Q 173 10 183 10 Z"/></g><g><path fill="none" stroke="#000000" paint-order="fill stroke markers" d=" M 183 10 L 239.041015625 10 Q 249.041015625 10 249.041015625 20 L 249.041015625 40 Q 249.041015625 50 239.041015625 50 L 183 50 Q 173 50 173 40 L 173 20 Q 173 10 183 10 Z" stroke-miterlimit="10" stroke-dasharray=""/></g><g><g><path fill="none" stroke="none"/><text fill="#000000" stroke="none" font-family="Roboto" font-size="13px" font-style="normal" font-weight="bold" text-decoration="undefined" x="388.5205078125" y="133.5" text-anchor="middle" dominant-baseline="central" transform="matrix(1 0 0 1 -177 -110)">new ticket</text></g></g><g><path fill="#C0C0C0" stroke="none" paint-order="stroke fill markers" d=" M 184 97 L 252 97 Q 262 97 262 107 L 262 127 Q 262 137 252 137 L 184 137 Q 174 137 174 127 L 174 107 Q 174 97 184 97 Z" fill-opacity="0.2"/></g><g><path fill="#ffffff" stroke="none" paint-order="stroke fill markers" d=" M 177 90 L 245 90 Q 255 90 255 100 L 255 120 Q 255 130 245 130 L 177 130 Q 167 130 167 120 L 167 100 Q 167 90 177 90 Z"/></g><g><path fill="none" stroke="#000000" paint-order="fill stroke markers" d=" M 177 90 L 245 90 Q 255 90 255 100 L 255 120 Q 255 130 245 130 L 177 130 Q 167 130 167 120 L 167 100 Q 167 90 177 90 Z" stroke-miterlimit="10" stroke-dasharray=""/></g><g><g><path fill="none" stroke="none"/><text fill="#000000" stroke="none" font-family="Roboto" font-size="13px" font-style="normal" font-weight="bold" text-decoration="undefined" x="388.5" y="213.5" text-anchor="middle" dominant-baseline="central" transform="matrix(1 0 0 1 -177 -110)">menunggu</text><text fill="#000000" stroke="none" font-family="Roboto" font-size="13px" font-style="normal" font-weight="bold" text-decoration="undefined" x="388.5" y="226.5" text-anchor="middle" dominant-baseline="central" transform="matrix(1 0 0 1 -177 -110)">penugasan</text></g></g><g><path fill="none" stroke="#000000" paint-order="fill stroke markers" d=" M 211 51 L 211 89" stroke-miterlimit="10" stroke-dasharray=""/></g><g><path fill="none" stroke="#000000" paint-order="fill stroke markers" d=" M 206.790482243984 78.83732514237585 L 211 89 L 215.209517756016 78.83732514237585" stroke-miterlimit="10" stroke-dasharray=""/></g><g><rect fill="#ffffff" stroke="none" x="400" y="166" width="120" height="26" transform="matrix(1 0 0 1 -177 -110)"/></g><g><g><path fill="none" stroke="none"/><text fill="#000000" stroke="none" font-family="Roboto" font-size="13px" font-style="normal" font-weight="normal" text-decoration="undefined" x="460" y="172.5" text-anchor="middle" dominant-baseline="central" transform="matrix(1 0 0 1 -177 -110)">entry data, validasi</text><text fill="#000000" stroke="none" font-family="Roboto" font-size="13px" font-style="normal" font-weight="normal" text-decoration="undefined" x="460" y="185.5" text-anchor="middle" dominant-baseline="central" transform="matrix(1 0 0 1 -177 -110)">dan verifikasi</text></g></g><g><path fill="#C0C0C0" stroke="none" paint-order="stroke fill markers" d=" M 189 177 L 247.4404296875 177 Q 257.4404296875 177 257.4404296875 187 L 257.4404296875 207 Q 257.4404296875 217 247.4404296875 217 L 189 217 Q 179 217 179 207 L 179 187 Q 179 177 189 177 Z" fill-opacity="0.2"/></g><g><path fill="#ffffff" stroke="none" paint-order="stroke fill markers" d=" M 182 170 L 240.4404296875 170 Q 250.4404296875 170 250.4404296875 180 L 250.4404296875 200 Q 250.4404296875 210 240.4404296875 210 L 182 210 Q 172 210 172 200 L 172 180 Q 172 170 182 170 Z"/></g><g><path fill="none" stroke="#000000" paint-order="fill stroke markers" d=" M 182 170 L 240.4404296875 170 Q 250.4404296875 170 250.4404296875 180 L 250.4404296875 200 Q 250.4404296875 210 240.4404296875 210 L 182 210 Q 172 210 172 200 L 172 180 Q 172 170 182 170 Z" stroke-miterlimit="10" stroke-dasharray=""/></g><g><g><path fill="none" stroke="none"/><text fill="#000000" stroke="none" font-family="Roboto" font-size="13px" font-style="normal" font-weight="bold" text-decoration="undefined" x="388.72021484375" y="293.5" text-anchor="middle" dominant-baseline="central" transform="matrix(1 0 0 1 -177 -110)">ditugaskan</text></g></g><g><path fill="#C0C0C0" stroke="none" paint-order="stroke fill markers" d=" M 185 257 L 251.52099609375 257 Q 261.52099609375 257 261.52099609375 267 L 261.52099609375 287 Q 261.52099609375 297 251.52099609375 297 L 185 297 Q 175 297 175 287 L 175 267 Q 175 257 185 257 Z" fill-opacity="0.2"/></g><g><path fill="#ffffff" stroke="none" paint-order="stroke fill markers" d=" M 178 250 L 244.52099609375 250 Q 254.52099609375 250 254.52099609375 260 L 254.52099609375 280 Q 254.52099609375 290 244.52099609375 290 L 178 290 Q 168 290 168 280 L 168 260 Q 168 250 178 250 Z"/></g><g><path fill="none" stroke="#000000" paint-order="fill stroke markers" d=" M 178 250 L 244.52099609375 250 Q 254.52099609375 250 254.52099609375 260 L 254.52099609375 280 Q 254.52099609375 290 244.52099609375 290 L 178 290 Q 168 290 168 280 L 168 260 Q 168 250 178 250 Z" stroke-miterlimit="10" stroke-dasharray=""/></g><g><g><path fill="none" stroke="none"/><text fill="#000000" stroke="none" font-family="Roboto" font-size="13px" font-style="normal" font-weight="bold" text-decoration="undefined" x="388.760498046875" y="373.5" text-anchor="middle" dominant-baseline="central" transform="matrix(1 0 0 1 -177 -110)">penjemputan</text></g></g><g><path fill="#C0C0C0" stroke="none" paint-order="stroke fill markers" d=" M 188 345 L 248 345 Q 258 345 258 355 L 258 375 Q 258 385 248 385 L 188 385 Q 178 385 178 375 L 178 355 Q 178 345 188 345 Z" fill-opacity="0.2"/></g><g><path fill="#ffffff" stroke="none" paint-order="stroke fill markers" d=" M 181 338 L 241 338 Q 251 338 251 348 L 251 368 Q 251 378 241 378 L 181 378 Q 171 378 171 368 L 171 348 Q 171 338 181 338 Z"/></g><g><path fill="none" stroke="#000000" paint-order="fill stroke markers" d=" M 181 338 L 241 338 Q 251 338 251 348 L 251 368 Q 251 378 241 378 L 181 378 Q 171 378 171 368 L 171 348 Q 171 338 181 338 Z" stroke-miterlimit="10" stroke-dasharray=""/></g><g><g><path fill="none" stroke="none"/><text fill="#000000" stroke="none" font-family="Roboto" font-size="13px" font-style="normal" font-weight="bold" text-decoration="undefined" x="388.5" y="461.5" text-anchor="middle" dominant-baseline="central" transform="matrix(1 0 0 1 -177 -110)">pasien</text><text fill="#000000" stroke="none" font-family="Roboto" font-size="13px" font-style="normal" font-weight="bold" text-decoration="undefined" x="388.5" y="474.5" text-anchor="middle" dominant-baseline="central" transform="matrix(1 0 0 1 -177 -110)">diangkut</text></g></g><g><path fill="#C0C0C0" stroke="none" paint-order="stroke fill markers" d=" M 184 425 L 252 425 Q 262 425 262 435 L 262 466 Q 262 476 252 476 L 184 476 Q 174 476 174 466 L 174 435 Q 174 425 184 425 Z" fill-opacity="0.2"/></g><g><path fill="#ffffff" stroke="none" paint-order="stroke fill markers" d=" M 177 418 L 245 418 Q 255 418 255 428 L 255 459 Q 255 469 245 469 L 177 469 Q 167 469 167 459 L 167 428 Q 167 418 177 418 Z"/></g><g><path fill="none" stroke="#000000" paint-order="fill stroke markers" d=" M 177 418 L 245 418 Q 255 418 255 428 L 255 459 Q 255 469 245 469 L 177 469 Q 167 469 167 459 L 167 428 Q 167 418 177 418 Z" stroke-miterlimit="10" stroke-dasharray=""/></g><g><g><path fill="none" stroke="none"/><text fill="#000000" stroke="none" font-family="Roboto" font-size="13px" font-style="normal" font-weight="bold" text-decoration="undefined" x="388.5" y="541.5" text-anchor="middle" dominant-baseline="central" transform="matrix(1 0 0 1 -177 -110)">pengantaran</text><text fill="#000000" stroke="none" font-family="Roboto" font-size="13px" font-style="normal" font-weight="bold" text-decoration="undefined" x="388.5" y="554.5" text-anchor="middle" dominant-baseline="central" transform="matrix(1 0 0 1 -177 -110)">ke medical</text><text fill="#000000" stroke="none" font-family="Roboto" font-size="13px" font-style="normal" font-weight="bold" text-decoration="undefined" x="388.5" y="567.5" text-anchor="middle" dominant-baseline="central" transform="matrix(1 0 0 1 -177 -110)">center</text></g></g><g><path fill="#C0C0C0" stroke="none" paint-order="stroke fill markers" d=" M 191 513 L 245.09228515625 513 Q 255.09228515625 513 255.09228515625 523 L 255.09228515625 543 Q 255.09228515625 553 245.09228515625 553 L 191 553 Q 181 553 181 543 L 181 523 Q 181 513 191 513 Z" fill-opacity="0.2"/></g><g><path fill="#ffffff" stroke="none" paint-order="stroke fill markers" d=" M 184 506 L 238.09228515625 506 Q 248.09228515625 506 248.09228515625 516 L 248.09228515625 536 Q 248.09228515625 546 238.09228515625 546 L 184 546 Q 174 546 174 536 L 174 516 Q 174 506 184 506 Z"/></g><g><path fill="none" stroke="#000000" paint-order="fill stroke markers" d=" M 184 506 L 238.09228515625 506 Q 248.09228515625 506 248.09228515625 516 L 248.09228515625 536 Q 248.09228515625 546 238.09228515625 546 L 184 546 Q 174 546 174 536 L 174 516 Q 174 506 184 506 Z" stroke-miterlimit="10" stroke-dasharray=""/></g><g><g><path fill="none" stroke="none"/><text fill="#000000" stroke="none" font-family="Roboto" font-size="13px" font-style="normal" font-weight="bold" text-decoration="undefined" x="388.546142578125" y="629.5" text-anchor="middle" dominant-baseline="central" transform="matrix(1 0 0 1 -177 -110)">pasien tiba</text></g></g><g><path fill="#C0C0C0" stroke="none" paint-order="stroke fill markers" d=" M 194 601 L 241.7255859375 601 Q 251.7255859375 601 251.7255859375 611 L 251.7255859375 631 Q 251.7255859375 641 241.7255859375 641 L 194 641 Q 184 641 184 631 L 184 611 Q 184 601 194 601 Z" fill-opacity="0.2"/></g><g><path fill="#ffffff" stroke="none" paint-order="stroke fill markers" d=" M 187 594 L 234.7255859375 594 Q 244.7255859375 594 244.7255859375 604 L 244.7255859375 624 Q 244.7255859375 634 234.7255859375 634 L 187 634 Q 177 634 177 624 L 177 604 Q 177 594 187 594 Z"/></g><g><path fill="none" stroke="#000000" paint-order="fill stroke markers" d=" M 187 594 L 234.7255859375 594 Q 244.7255859375 594 244.7255859375 604 L 244.7255859375 624 Q 244.7255859375 634 234.7255859375 634 L 187 634 Q 177 634 177 624 L 177 604 Q 177 594 187 594 Z" stroke-miterlimit="10" stroke-dasharray=""/></g><g><g><path fill="none" stroke="none"/><text fill="#000000" stroke="none" font-family="Roboto" font-size="13px" font-style="normal" font-weight="bold" text-decoration="undefined" x="388.36279296875" y="717.5" text-anchor="middle" dominant-baseline="central" transform="matrix(1 0 0 1 -177 -110)">end ticket</text></g></g><g><path fill="none" stroke="#000000" paint-order="fill stroke markers" d=" M 211 211 L 211 249" stroke-miterlimit="10" stroke-dasharray=""/></g><g><path fill="none" stroke="#000000" paint-order="fill stroke markers" d=" M 206.790482243984 238.83732514237585 L 211 249 L 215.209517756016 238.83732514237585" stroke-miterlimit="10" stroke-dasharray=""/></g><g><rect fill="#ffffff" stroke="none" x="187" y="327" width="187" height="26" transform="matrix(1 0 0 1 -177 -110)"/></g><g><g><path fill="none" stroke="none"/><text fill="#000000" stroke="none" font-family="Roboto" font-size="13px" font-style="normal" font-weight="normal" text-decoration="undefined" x="280.5" y="333.5" text-anchor="middle" dominant-baseline="central" transform="matrix(1 0 0 1 -177 -110)">driver menerima penugasan dan</text><text fill="#000000" stroke="none" font-family="Roboto" font-size="13px" font-style="normal" font-weight="normal" text-decoration="undefined" x="280.5" y="346.5" text-anchor="middle" dominant-baseline="central" transform="matrix(1 0 0 1 -177 -110)">menuju lokasi penjemputan</text></g></g><g><path fill="none" stroke="#000000" paint-order="fill stroke markers" d=" M 211 379 L 211 417" stroke-miterlimit="10" stroke-dasharray=""/></g><g><path fill="none" stroke="#000000" paint-order="fill stroke markers" d=" M 206.790482243984 406.8373251423759 L 211 417 L 215.209517756016 406.8373251423759" stroke-miterlimit="10" stroke-dasharray=""/></g><g><rect fill="#ffffff" stroke="none" x="400" y="492" width="93.12744140625" height="26" transform="matrix(1 0 0 1 -177 -110)"/></g><g><g><path fill="none" stroke="none"/><text fill="#000000" stroke="none" font-family="Roboto" font-size="13px" font-style="normal" font-weight="normal" text-decoration="undefined" x="446.563720703125" y="498.5" text-anchor="middle" dominant-baseline="central" transform="matrix(1 0 0 1 -177 -110)">driver menuju</text><text fill="#000000" stroke="none" font-family="Roboto" font-size="13px" font-style="normal" font-weight="normal" text-decoration="undefined" x="446.563720703125" y="511.5" text-anchor="middle" dominant-baseline="central" transform="matrix(1 0 0 1 -177 -110)">medical center</text></g></g><g><path fill="none" stroke="#000000" paint-order="fill stroke markers" d=" M 211 470 L 211 505" stroke-miterlimit="10" stroke-dasharray=""/></g><g><path fill="none" stroke="#000000" paint-order="fill stroke markers" d=" M 206.790482243984 494.8373251423759 L 211 505 L 215.209517756016 494.8373251423759" stroke-miterlimit="10" stroke-dasharray=""/></g><g><rect fill="#ffffff" stroke="none" x="392" y="583" width="133" height="26" transform="matrix(1 0 0 1 -177 -110)"/></g><g><g><path fill="none" stroke="none"/><text fill="#000000" stroke="none" font-family="Roboto" font-size="13px" font-style="normal" font-weight="normal" text-decoration="undefined" x="458.5" y="589.5" text-anchor="middle" dominant-baseline="central" transform="matrix(1 0 0 1 -177 -110)">driver sampai di lokasi</text><text fill="#000000" stroke="none" font-family="Roboto" font-size="13px" font-style="normal" font-weight="normal" text-decoration="undefined" x="458.5" y="602.5" text-anchor="middle" dominant-baseline="central" transform="matrix(1 0 0 1 -177 -110)">medical center</text></g></g><g><path fill="none" stroke="#000000" paint-order="fill stroke markers" d=" M 211 547 L 210 593" stroke-miterlimit="10" stroke-dasharray=""/></g><g><path fill="none" stroke="#000000" paint-order="fill stroke markers" d=" M 206.01235210782488 582.7482360401718 L 210 593 L 214.42939894957703 582.9312153193404" stroke-miterlimit="10" stroke-dasharray=""/></g><g><rect fill="#ffffff" stroke="none" x="395" y="668" width="114" height="26" transform="matrix(1 0 0 1 -177 -110)"/></g><g><g><path fill="none" stroke="none"/><text fill="#000000" stroke="none" font-family="Roboto" font-size="13px" font-style="normal" font-weight="normal" text-decoration="undefined" x="452" y="674.5" text-anchor="middle" dominant-baseline="central" transform="matrix(1 0 0 1 -177 -110)">pasien diterima di</text><text fill="#000000" stroke="none" font-family="Roboto" font-size="13px" font-style="normal" font-weight="normal" text-decoration="undefined" x="452" y="687.5" text-anchor="middle" dominant-baseline="central" transform="matrix(1 0 0 1 -177 -110)">medical center</text></g></g><g><path fill="none" stroke="#000000" paint-order="fill stroke markers" d=" M 211 291 L 211 337" stroke-miterlimit="10" stroke-dasharray=""/></g><g><path fill="none" stroke="#000000" paint-order="fill stroke markers" d=" M 206.790482243984 326.83732514237585 L 211 337 L 215.209517756016 326.83732514237585" stroke-miterlimit="10" stroke-dasharray=""/></g><g><rect fill="#ffffff" stroke="none" x="399" y="408" width="101" height="39" transform="matrix(1 0 0 1 -177 -110)"/></g><g><g><path fill="none" stroke="none"/><text fill="#000000" stroke="none" font-family="Roboto" font-size="13px" font-style="normal" font-weight="normal" text-decoration="undefined" x="449.5" y="421" text-anchor="middle" dominant-baseline="central" transform="matrix(1 0 0 1 -177 -110)">driver sampai</text><text fill="#000000" stroke="none" font-family="Roboto" font-size="13px" font-style="normal" font-weight="normal" text-decoration="undefined" x="449.5" y="434" text-anchor="middle" dominant-baseline="central" transform="matrix(1 0 0 1 -177 -110)">titik penjemputan</text></g></g><g><path fill="none" stroke="#000000" paint-order="fill stroke markers" d=" M 231 210 L 231 234 L 278 234 L 278 190 L 250 190" stroke-miterlimit="10" stroke-dasharray=""/></g><g><path fill="none" stroke="#000000" paint-order="fill stroke markers" d=" M 260.16267485762415 185.790482243984 L 250 190 L 260.16267485762415 194.209517756016" stroke-miterlimit="10" stroke-dasharray=""/></g><g><rect fill="#ffffff" stroke="none" x="463" y="311" width="73" height="26" transform="matrix(1 0 0 1 -177 -110)"/></g><g><g><path fill="none" stroke="none"/><text fill="#000000" stroke="none" font-family="Roboto" font-size="13px" font-style="normal" font-weight="normal" text-decoration="undefined" x="499.5" y="317.5" text-anchor="middle" dominant-baseline="central" transform="matrix(1 0 0 1 -177 -110)">penugasan</text><text fill="#000000" stroke="none" font-family="Roboto" font-size="13px" font-style="normal" font-weight="normal" text-decoration="undefined" x="499.5" y="330.5" text-anchor="middle" dominant-baseline="central" transform="matrix(1 0 0 1 -177 -110)">berjenjang</text></g></g><g><path fill="none" stroke="#000000" paint-order="fill stroke markers" d=" M 211 131 L 211 169" stroke-miterlimit="10" stroke-dasharray=""/></g><g><path fill="none" stroke="#000000" paint-order="fill stroke markers" d=" M 206.790482243984 158.83732514237585 L 211 169 L 215.209517756016 158.83732514237585" stroke-miterlimit="10" stroke-dasharray=""/></g><g><rect fill="#ffffff" stroke="none" x="399" y="248" width="158" height="26" transform="matrix(1 0 0 1 -177 -110)"/></g><g><g><path fill="none" stroke="none"/><text fill="#000000" stroke="none" font-family="Roboto" font-size="13px" font-style="normal" font-weight="normal" text-decoration="undefined" x="478" y="254.5" text-anchor="middle" dominant-baseline="central" transform="matrix(1 0 0 1 -177 -110)">penugasan operator,</text><text fill="#000000" stroke="none" font-family="Roboto" font-size="13px" font-style="normal" font-weight="normal" text-decoration="undefined" x="478" y="267.5" text-anchor="middle" dominant-baseline="central" transform="matrix(1 0 0 1 -177 -110)">ambulance unit dan driver</text></g></g></g></svg>